# MagicaVoxel @ Ephtracy

# group
o 

# material
mtllib dunDoll50.mtl
usemtl palette

# normals
vn -1 0 0
vn 1 0 0
vn 0 0 1
vn 0 0 -1
vn 0 -1 0
vn 0 1 0

# texcoords
vt 0.00585938 0.5
vt 0.0214844 0.5
vt 0.0292969 0.5
vt 0.0449219 0.5
vt 0.0527344 0.5

# verts
v -0.6 0 0.3
v -0.6 0 -0.4
v -0.6 0.2 0.3
v -0.6 0.2 -0.4
v 5.96046e-08 0.2 0.3
v 5.96046e-08 0.2 -0.2
v 5.96046e-08 0.3 0.3
v 5.96046e-08 0.3 -0.2
v 0.1 0.2 -0.2
v 0.1 0.2 -0.3
v 0.1 0.3 -0.2
v 0.1 0.3 -0.3
v 0.2 0.2 -0.3
v 0.2 0.2 -0.4
v 0.2 0.3 -0.3
v 0.2 0.3 -0.4
v 0.4 0.2 -0.3
v 0.4 0.2 -0.4
v 0.4 0.3 -0.3
v 0.4 0.3 -0.4
v 0.5 0.2 -0.2
v 0.5 0.2 -0.3
v 0.5 0.3 -0.2
v 0.5 0.3 -0.3
v 0.6 0.2 0.2
v 0.6 0.2 -0.2
v 0.6 0.3 0.2
v 0.6 0.3 -0.2
v 0.7 0.2 0.3
v 0.7 0.2 0.2
v 0.7 0.3 0.3
v 0.7 0.3 0.2
v 1.2 0 0.3
v 1.2 0 -0.4
v 1.2 0.2 0.3
v 1.2 0.2 -0.4
v -0.6 0 0.3
v -0.6 0.2 0.3
v 5.96046e-08 0.2 0.3
v 5.96046e-08 0.3 0.3
v 0.1 0.2 0.3
v 0.1 0.3 0.3
v 0.4 0.2 0.3
v 0.4 0.3 0.3
v 0.7 0.2 0.3
v 0.7 0.3 0.3
v 1.2 0 0.3
v 1.2 0.2 0.3
v 0.6 0.2 0.2
v 0.6 0.3 0.2
v 0.7 0.2 0.2
v 0.7 0.3 0.2
v 5.96046e-08 0.2 -0.2
v 5.96046e-08 0.3 -0.2
v 0.1 0.2 -0.2
v 0.1 0.3 -0.2
v 0.5 0.2 -0.2
v 0.5 0.3 -0.2
v 0.6 0.2 -0.2
v 0.6 0.3 -0.2
v 0.1 0.2 -0.3
v 0.1 0.3 -0.3
v 0.2 0.2 -0.3
v 0.2 0.3 -0.3
v 0.4 0.2 -0.3
v 0.4 0.3 -0.3
v 0.5 0.2 -0.3
v 0.5 0.3 -0.3
v -0.6 0 -0.4
v -0.6 0.2 -0.4
v 0.2 0.2 -0.4
v 0.2 0.3 -0.4
v 0.4 0.2 -0.4
v 0.4 0.3 -0.4
v 1.2 0 -0.4
v 1.2 0.2 -0.4
v -0.6 0 0.3
v 1.2 0 0.3
v -0.6 0 -0.4
v 1.2 0 -0.4
v -0.6 0.2 0.3
v 5.96046e-08 0.2 0.3
v 0.7 0.2 0.3
v 1.2 0.2 0.3
v 0.6 0.2 0.2
v 0.7 0.2 0.2
v 5.96046e-08 0.2 -0.2
v 0.1 0.2 -0.2
v 0.5 0.2 -0.2
v 0.6 0.2 -0.2
v 0.1 0.2 -0.3
v 0.2 0.2 -0.3
v 0.4 0.2 -0.3
v 0.5 0.2 -0.3
v -0.6 0.2 -0.4
v 0.2 0.2 -0.4
v 0.4 0.2 -0.4
v 1.2 0.2 -0.4
v 5.96046e-08 0.3 0.3
v 0.1 0.3 0.3
v 0.4 0.3 0.3
v 0.7 0.3 0.3
v 0.6 0.3 0.2
v 0.7 0.3 0.2
v 0.1 0.3 0.1
v 0.4 0.3 0.1
v 0.1 0.3 -2.98023e-08
v 0.2 0.3 -2.98023e-08
v 0.3 0.3 -2.98023e-08
v 0.4 0.3 -2.98023e-08
v 0.1 0.3 -0.1
v 0.2 0.3 -0.1
v 0.3 0.3 -0.1
v 0.4 0.3 -0.1
v 5.96046e-08 0.3 -0.2
v 0.1 0.3 -0.2
v 0.2 0.3 -0.2
v 0.4 0.3 -0.2
v 0.5 0.3 -0.2
v 0.6 0.3 -0.2
v 0.1 0.3 -0.3
v 0.2 0.3 -0.3
v 0.4 0.3 -0.3
v 0.5 0.3 -0.3
v 0.2 0.3 -0.4
v 0.4 0.3 -0.4

# faces
f 3/5/1 2/5/1 1/5/1
f 4/5/1 2/5/1 3/5/1
f 7/3/1 6/3/1 5/3/1
f 8/3/1 6/3/1 7/3/1
f 11/3/1 10/3/1 9/3/1
f 12/3/1 10/3/1 11/3/1
f 15/3/1 14/3/1 13/3/1
f 16/3/1 14/3/1 15/3/1
f 17/3/2 18/3/2 19/3/2
f 19/3/2 18/3/2 20/3/2
f 21/3/2 22/3/2 23/3/2
f 23/3/2 22/3/2 24/3/2
f 25/3/2 26/3/2 27/3/2
f 27/3/2 26/3/2 28/3/2
f 29/3/2 30/3/2 31/3/2
f 31/3/2 30/3/2 32/3/2
f 33/5/2 34/5/2 35/5/2
f 35/5/2 34/5/2 36/5/2
f 39/5/3 38/5/3 37/5/3
f 41/5/3 39/5/3 37/5/3
f 41/3/3 40/3/3 39/3/3
f 42/3/3 40/3/3 41/3/3
f 43/5/3 41/5/3 37/5/3
f 43/4/3 42/4/3 41/4/3
f 44/4/3 42/4/3 43/4/3
f 45/5/3 43/5/3 37/5/3
f 45/3/3 44/3/3 43/3/3
f 46/3/3 44/3/3 45/3/3
f 47/5/3 45/5/3 37/5/3
f 48/5/3 45/5/3 47/5/3
f 49/3/4 50/3/4 51/3/4
f 51/3/4 50/3/4 52/3/4
f 53/3/4 54/3/4 55/3/4
f 55/3/4 54/3/4 56/3/4
f 57/3/4 58/3/4 59/3/4
f 59/3/4 58/3/4 60/3/4
f 61/3/4 62/3/4 63/3/4
f 63/3/4 62/3/4 64/3/4
f 65/3/4 66/3/4 67/3/4
f 67/3/4 66/3/4 68/3/4
f 69/5/4 70/5/4 71/5/4
f 69/5/4 71/5/4 73/5/4
f 71/3/4 72/3/4 73/3/4
f 73/3/4 72/3/4 74/3/4
f 69/5/4 73/5/4 75/5/4
f 75/5/4 73/5/4 76/5/4
f 79/5/5 78/5/5 77/5/5
f 80/5/5 78/5/5 79/5/5
f 83/5/6 84/5/6 86/5/6
f 81/5/6 82/5/6 87/5/6
f 85/5/6 86/5/6 90/5/6
f 87/5/6 88/5/6 91/5/6
f 89/5/6 90/5/6 94/5/6
f 91/5/6 92/5/6 95/5/6
f 81/5/6 87/5/6 95/5/6
f 87/5/6 91/5/6 95/5/6
f 95/5/6 92/5/6 96/5/6
f 93/5/6 94/5/6 97/5/6
f 86/5/6 84/5/6 98/5/6
f 97/5/6 94/5/6 98/5/6
f 94/5/6 90/5/6 98/5/6
f 90/5/6 86/5/6 98/5/6
f 101/3/6 102/3/6 103/3/6
f 103/3/6 102/3/6 104/3/6
f 99/3/6 100/3/6 105/3/6
f 100/4/6 101/4/6 105/4/6
f 101/3/6 103/3/6 106/3/6
f 105/4/6 101/4/6 106/4/6
f 99/3/6 105/3/6 107/3/6
f 105/1/6 106/1/6 107/1/6
f 107/1/6 106/1/6 108/1/6
f 108/1/6 106/1/6 109/1/6
f 106/3/6 103/3/6 110/3/6
f 109/1/6 106/1/6 110/1/6
f 99/3/6 107/3/6 111/3/6
f 107/2/6 108/2/6 111/2/6
f 108/1/6 109/1/6 112/1/6
f 111/2/6 108/2/6 112/2/6
f 109/2/6 110/2/6 113/2/6
f 112/1/6 109/1/6 113/1/6
f 110/3/6 103/3/6 114/3/6
f 113/2/6 110/2/6 114/2/6
f 99/3/6 111/3/6 115/3/6
f 111/3/6 112/3/6 115/3/6
f 115/3/6 112/3/6 116/3/6
f 112/1/6 113/1/6 117/1/6
f 116/3/6 112/3/6 117/3/6
f 113/1/6 114/1/6 117/1/6
f 114/3/6 103/3/6 118/3/6
f 117/1/6 114/1/6 118/1/6
f 118/3/6 103/3/6 119/3/6
f 119/3/6 103/3/6 120/3/6
f 116/3/6 117/3/6 121/3/6
f 118/3/6 119/3/6 121/3/6
f 117/3/6 118/3/6 121/3/6
f 121/3/6 119/3/6 122/3/6
f 122/3/6 119/3/6 123/3/6
f 123/3/6 119/3/6 124/3/6
f 122/3/6 123/3/6 125/3/6
f 125/3/6 123/3/6 126/3/6
