# MagicaVoxel @ Ephtracy

# group
o 

# material
mtllib dunDoll10.mtl
usemtl palette

# normals
vn -1 0 0
vn 1 0 0
vn 0 0 1
vn 0 0 -1
vn 0 -1 0
vn 0 1 0

# texcoords
vt 0.00585938 0.5
vt 0.0136719 0.5
vt 0.0214844 0.5
vt 0.0292969 0.5
vt 0.0449219 0.5

# verts
v -0.6 0 0.3
v -0.6 0 -0.4
v -0.6 0.2 0.3
v -0.6 0.2 -0.4
v 5.96046e-08 0.2 0.3
v 5.96046e-08 0.2 -0.2
v 5.96046e-08 0.3 0.3
v 5.96046e-08 0.3 -0.2
v 0.1 0.2 -0.2
v 0.1 0.2 -0.3
v 0.1 0.3 -0.2
v 0.1 0.3 -0.3
v 0.2 0.2 -0.3
v 0.2 0.2 -0.4
v 0.2 0.3 -0.3
v 0.2 0.3 -0.4
v 0.4 0.2 -0.3
v 0.4 0.2 -0.4
v 0.4 0.3 -0.3
v 0.4 0.3 -0.4
v 0.5 0.2 -0.2
v 0.5 0.2 -0.3
v 0.5 0.3 -0.2
v 0.5 0.3 -0.3
v 0.6 0.2 0.2
v 0.6 0.2 -0.2
v 0.6 0.3 0.2
v 0.6 0.3 -0.2
v 0.7 0.2 0.3
v 0.7 0.2 0.2
v 0.7 0.3 0.3
v 0.7 0.3 0.2
v 1.2 0 0.3
v 1.2 0 -0.4
v 1.2 0.2 0.3
v 1.2 0.2 -0.4
v -0.6 0 0.3
v -0.6 0.2 0.3
v 5.96046e-08 0.2 0.3
v 5.96046e-08 0.3 0.3
v 0.1 0.2 0.3
v 0.1 0.3 0.3
v 0.4 0.2 0.3
v 0.4 0.3 0.3
v 0.7 0.2 0.3
v 0.7 0.3 0.3
v 1.2 0 0.3
v 1.2 0.2 0.3
v 0.6 0.2 0.2
v 0.6 0.3 0.2
v 0.7 0.2 0.2
v 0.7 0.3 0.2
v 5.96046e-08 0.2 -0.2
v 5.96046e-08 0.3 -0.2
v 0.1 0.2 -0.2
v 0.1 0.3 -0.2
v 0.5 0.2 -0.2
v 0.5 0.3 -0.2
v 0.6 0.2 -0.2
v 0.6 0.3 -0.2
v 0.1 0.2 -0.3
v 0.1 0.3 -0.3
v 0.2 0.2 -0.3
v 0.2 0.3 -0.3
v 0.4 0.2 -0.3
v 0.4 0.3 -0.3
v 0.5 0.2 -0.3
v 0.5 0.3 -0.3
v -0.6 0 -0.4
v -0.6 0.2 -0.4
v 0.2 0.2 -0.4
v 0.2 0.3 -0.4
v 0.4 0.2 -0.4
v 0.4 0.3 -0.4
v 1.2 0 -0.4
v 1.2 0.2 -0.4
v -0.6 0 0.3
v 1.2 0 0.3
v -0.6 0 -0.4
v 1.2 0 -0.4
v -0.6 0.2 0.3
v 5.96046e-08 0.2 0.3
v 0.7 0.2 0.3
v 1.2 0.2 0.3
v 0.6 0.2 0.2
v 0.7 0.2 0.2
v 5.96046e-08 0.2 -0.2
v 0.1 0.2 -0.2
v 0.5 0.2 -0.2
v 0.6 0.2 -0.2
v 0.1 0.2 -0.3
v 0.2 0.2 -0.3
v 0.4 0.2 -0.3
v 0.5 0.2 -0.3
v -0.6 0.2 -0.4
v 0.2 0.2 -0.4
v 0.4 0.2 -0.4
v 1.2 0.2 -0.4
v 5.96046e-08 0.3 0.3
v 0.1 0.3 0.3
v 0.4 0.3 0.3
v 0.7 0.3 0.3
v 0.6 0.3 0.2
v 0.7 0.3 0.2
v 0.1 0.3 0.1
v 0.4 0.3 0.1
v 0.1 0.3 -2.98023e-08
v 0.2 0.3 -2.98023e-08
v 0.3 0.3 -2.98023e-08
v 0.4 0.3 -2.98023e-08
v 0.1 0.3 -0.1
v 0.2 0.3 -0.1
v 0.3 0.3 -0.1
v 0.4 0.3 -0.1
v 5.96046e-08 0.3 -0.2
v 0.1 0.3 -0.2
v 0.2 0.3 -0.2
v 0.4 0.3 -0.2
v 0.5 0.3 -0.2
v 0.6 0.3 -0.2
v 0.1 0.3 -0.3
v 0.2 0.3 -0.3
v 0.4 0.3 -0.3
v 0.5 0.3 -0.3
v 0.2 0.3 -0.4
v 0.4 0.3 -0.4

# faces
f 3/2/1 2/2/1 1/2/1
f 4/2/1 2/2/1 3/2/1
f 7/4/1 6/4/1 5/4/1
f 8/4/1 6/4/1 7/4/1
f 11/4/1 10/4/1 9/4/1
f 12/4/1 10/4/1 11/4/1
f 15/4/1 14/4/1 13/4/1
f 16/4/1 14/4/1 15/4/1
f 17/4/2 18/4/2 19/4/2
f 19/4/2 18/4/2 20/4/2
f 21/4/2 22/4/2 23/4/2
f 23/4/2 22/4/2 24/4/2
f 25/4/2 26/4/2 27/4/2
f 27/4/2 26/4/2 28/4/2
f 29/4/2 30/4/2 31/4/2
f 31/4/2 30/4/2 32/4/2
f 33/2/2 34/2/2 35/2/2
f 35/2/2 34/2/2 36/2/2
f 39/2/3 38/2/3 37/2/3
f 41/2/3 39/2/3 37/2/3
f 41/4/3 40/4/3 39/4/3
f 42/4/3 40/4/3 41/4/3
f 43/2/3 41/2/3 37/2/3
f 43/5/3 42/5/3 41/5/3
f 44/5/3 42/5/3 43/5/3
f 45/2/3 43/2/3 37/2/3
f 45/4/3 44/4/3 43/4/3
f 46/4/3 44/4/3 45/4/3
f 47/2/3 45/2/3 37/2/3
f 48/2/3 45/2/3 47/2/3
f 49/4/4 50/4/4 51/4/4
f 51/4/4 50/4/4 52/4/4
f 53/4/4 54/4/4 55/4/4
f 55/4/4 54/4/4 56/4/4
f 57/4/4 58/4/4 59/4/4
f 59/4/4 58/4/4 60/4/4
f 61/4/4 62/4/4 63/4/4
f 63/4/4 62/4/4 64/4/4
f 65/4/4 66/4/4 67/4/4
f 67/4/4 66/4/4 68/4/4
f 69/2/4 70/2/4 71/2/4
f 69/2/4 71/2/4 73/2/4
f 71/4/4 72/4/4 73/4/4
f 73/4/4 72/4/4 74/4/4
f 69/2/4 73/2/4 75/2/4
f 75/2/4 73/2/4 76/2/4
f 79/2/5 78/2/5 77/2/5
f 80/2/5 78/2/5 79/2/5
f 83/2/6 84/2/6 86/2/6
f 81/2/6 82/2/6 87/2/6
f 85/2/6 86/2/6 90/2/6
f 87/2/6 88/2/6 91/2/6
f 89/2/6 90/2/6 94/2/6
f 91/2/6 92/2/6 95/2/6
f 81/2/6 87/2/6 95/2/6
f 87/2/6 91/2/6 95/2/6
f 95/2/6 92/2/6 96/2/6
f 93/2/6 94/2/6 97/2/6
f 86/2/6 84/2/6 98/2/6
f 97/2/6 94/2/6 98/2/6
f 94/2/6 90/2/6 98/2/6
f 90/2/6 86/2/6 98/2/6
f 101/4/6 102/4/6 103/4/6
f 103/4/6 102/4/6 104/4/6
f 99/4/6 100/4/6 105/4/6
f 100/5/6 101/5/6 105/5/6
f 101/4/6 103/4/6 106/4/6
f 105/5/6 101/5/6 106/5/6
f 99/4/6 105/4/6 107/4/6
f 105/1/6 106/1/6 107/1/6
f 107/1/6 106/1/6 108/1/6
f 108/1/6 106/1/6 109/1/6
f 106/4/6 103/4/6 110/4/6
f 109/1/6 106/1/6 110/1/6
f 99/4/6 107/4/6 111/4/6
f 107/3/6 108/3/6 111/3/6
f 108/1/6 109/1/6 112/1/6
f 111/3/6 108/3/6 112/3/6
f 109/3/6 110/3/6 113/3/6
f 112/1/6 109/1/6 113/1/6
f 110/4/6 103/4/6 114/4/6
f 113/3/6 110/3/6 114/3/6
f 99/4/6 111/4/6 115/4/6
f 111/4/6 112/4/6 115/4/6
f 115/4/6 112/4/6 116/4/6
f 112/1/6 113/1/6 117/1/6
f 116/4/6 112/4/6 117/4/6
f 113/1/6 114/1/6 117/1/6
f 114/4/6 103/4/6 118/4/6
f 117/1/6 114/1/6 118/1/6
f 118/4/6 103/4/6 119/4/6
f 119/4/6 103/4/6 120/4/6
f 116/4/6 117/4/6 121/4/6
f 118/4/6 119/4/6 121/4/6
f 117/4/6 118/4/6 121/4/6
f 121/4/6 119/4/6 122/4/6
f 122/4/6 119/4/6 123/4/6
f 123/4/6 119/4/6 124/4/6
f 122/4/6 123/4/6 125/4/6
f 125/4/6 123/4/6 126/4/6
