# Blender 3.3.1
# www.blender.org
mtllib DragonDagger.mtl
o Untitled
v -0.250312 0.253173 0.051941
v -0.250312 0.253173 -0.048059
v -0.250312 0.453173 0.051941
v -0.250312 0.453173 -0.048059
v -0.150312 0.153173 0.051941
v -0.150312 0.153173 -0.048059
v -0.150312 0.253173 0.051941
v -0.150312 0.253173 -0.048059
v -0.150312 0.453173 0.051941
v -0.150312 0.453173 -0.048059
v -0.150312 1.853173 0.051941
v -0.150312 1.853173 -0.048059
v -0.050312 -0.246827 0.051941
v -0.050312 -0.246827 -0.048059
v -0.050312 -0.146827 0.051941
v -0.050312 -0.146827 -0.048059
v -0.050312 -0.046827 0.051941
v -0.050312 -0.046827 -0.048059
v -0.050312 0.153173 0.051941
v -0.050312 0.153173 -0.048059
v -0.050312 1.853173 0.051941
v -0.050312 1.853173 -0.048059
v -0.050312 1.953173 0.051941
v -0.050312 1.953173 -0.048059
v 0.049688 -0.246827 0.051941
v 0.049688 -0.246827 -0.048059
v 0.049688 -0.146827 0.051941
v 0.049688 -0.146827 -0.048059
v 0.049688 -0.046827 0.051941
v 0.049688 -0.046827 -0.048059
v 0.049688 0.153173 0.051941
v 0.049688 0.153173 -0.048059
v 0.049688 1.853173 0.051941
v 0.049688 1.853173 -0.048059
v 0.049688 1.953173 0.051941
v 0.049688 1.953173 -0.048059
v 0.149688 0.153173 0.051941
v 0.149688 0.153173 -0.048059
v 0.149688 0.253173 0.051941
v 0.149688 0.253173 -0.048059
v 0.149688 0.453173 0.051941
v 0.149688 0.453173 -0.048059
v 0.149688 1.853173 0.051941
v 0.149688 1.853173 -0.048059
v 0.249688 0.253173 0.051941
v 0.249688 0.253173 -0.048059
v 0.249688 0.453173 0.051941
v 0.249688 0.453173 -0.048059
v -0.250312 0.253173 0.051941
v -0.250312 0.453173 0.051941
v -0.150312 0.153173 0.051941
v -0.150312 0.253173 0.051941
v -0.150312 0.353173 0.051941
v -0.150312 0.453173 0.051941
v -0.150312 1.853173 0.051941
v -0.050312 -0.246827 0.051941
v -0.050312 -0.146827 0.051941
v -0.050312 -0.046827 0.051941
v -0.050312 0.153173 0.051941
v -0.050312 0.253173 0.051941
v -0.050312 0.353173 0.051941
v -0.050312 1.753173 0.051941
v -0.050312 1.853173 0.051941
v -0.050312 1.953173 0.051941
v 0.049688 -0.246827 0.051941
v 0.049688 -0.146827 0.051941
v 0.049688 -0.046827 0.051941
v 0.049688 0.153173 0.051941
v 0.049688 0.253173 0.051941
v 0.049688 0.353173 0.051941
v 0.049688 1.753173 0.051941
v 0.049688 1.853173 0.051941
v 0.049688 1.953173 0.051941
v 0.149688 0.153173 0.051941
v 0.149688 0.253173 0.051941
v 0.149688 0.353173 0.051941
v 0.149688 0.453173 0.051941
v 0.149688 1.853173 0.051941
v 0.249688 0.253173 0.051941
v 0.249688 0.453173 0.051941
v -0.250312 0.253173 -0.048059
v -0.250312 0.453173 -0.048059
v -0.150312 0.153173 -0.048059
v -0.150312 0.253173 -0.048059
v -0.150312 0.353173 -0.048059
v -0.150312 0.453173 -0.048059
v -0.150312 1.853173 -0.048059
v -0.050312 -0.246827 -0.048059
v -0.050312 -0.146827 -0.048059
v -0.050312 -0.046827 -0.048059
v -0.050312 0.153173 -0.048059
v -0.050312 0.253173 -0.048059
v -0.050312 0.353173 -0.048059
v -0.050312 1.753173 -0.048059
v -0.050312 1.853173 -0.048059
v -0.050312 1.953173 -0.048059
v 0.049688 -0.246827 -0.048059
v 0.049688 -0.146827 -0.048059
v 0.049688 -0.046827 -0.048059
v 0.049688 0.153173 -0.048059
v 0.049688 0.253173 -0.048059
v 0.049688 0.353173 -0.048059
v 0.049688 1.753173 -0.048059
v 0.049688 1.853173 -0.048059
v 0.049688 1.953173 -0.048059
v 0.149688 0.153173 -0.048059
v 0.149688 0.253173 -0.048059
v 0.149688 0.353173 -0.048059
v 0.149688 0.453173 -0.048059
v 0.149688 1.853173 -0.048059
v 0.249688 0.253173 -0.048059
v 0.249688 0.453173 -0.048059
v -0.050312 -0.246827 0.051941
v 0.049688 -0.246827 0.051941
v -0.050312 -0.246827 -0.048059
v 0.049688 -0.246827 -0.048059
v -0.150312 0.153173 0.051941
v -0.050312 0.153173 0.051941
v 0.049688 0.153173 0.051941
v 0.149688 0.153173 0.051941
v -0.150312 0.153173 -0.048059
v -0.050312 0.153173 -0.048059
v 0.049688 0.153173 -0.048059
v 0.149688 0.153173 -0.048059
v -0.250312 0.253173 0.051941
v -0.150312 0.253173 0.051941
v 0.149688 0.253173 0.051941
v 0.249688 0.253173 0.051941
v -0.250312 0.253173 -0.048059
v -0.150312 0.253173 -0.048059
v 0.149688 0.253173 -0.048059
v 0.249688 0.253173 -0.048059
v -0.250312 0.453173 0.051941
v -0.150312 0.453173 0.051941
v 0.149688 0.453173 0.051941
v 0.249688 0.453173 0.051941
v -0.250312 0.453173 -0.048059
v -0.150312 0.453173 -0.048059
v 0.149688 0.453173 -0.048059
v 0.249688 0.453173 -0.048059
v -0.150312 1.853173 0.051941
v -0.050312 1.853173 0.051941
v 0.049688 1.853173 0.051941
v 0.149688 1.853173 0.051941
v -0.150312 1.853173 -0.048059
v -0.050312 1.853173 -0.048059
v 0.049688 1.853173 -0.048059
v 0.149688 1.853173 -0.048059
v -0.050312 1.953173 0.051941
v 0.049688 1.953173 0.051941
v -0.050312 1.953173 -0.048059
v 0.049688 1.953173 -0.048059
vn -1.0000 -0.0000 -0.0000
vn 1.0000 -0.0000 -0.0000
vn -0.0000 -0.0000 1.0000
vn -0.0000 -0.0000 -1.0000
vn -0.0000 -1.0000 -0.0000
vn -0.0000 1.0000 -0.0000
vt 0.021484 0.500000
vt 0.021484 0.500000
vt 0.021484 0.500000
vt 0.021484 0.500000
vt 0.021484 0.500000
vt 0.021484 0.500000
vt 0.021484 0.500000
vt 0.021484 0.500000
vt 0.009766 0.500000
vt 0.009766 0.500000
vt 0.009766 0.500000
vt 0.009766 0.500000
vt 0.021484 0.500000
vt 0.021484 0.500000
vt 0.021484 0.500000
vt 0.017578 0.500000
vt 0.021484 0.500000
vt 0.017578 0.500000
vt 0.017578 0.500000
vt 0.021484 0.500000
vt 0.017578 0.500000
vt 0.021484 0.500000
vt 0.021484 0.500000
vt 0.021484 0.500000
vt 0.009766 0.500000
vt 0.009766 0.500000
vt 0.009766 0.500000
vt 0.009766 0.500000
vt 0.021484 0.500000
vt 0.021484 0.500000
vt 0.021484 0.500000
vt 0.017578 0.500000
vt 0.021484 0.500000
vt 0.017578 0.500000
vt 0.017578 0.500000
vt 0.021484 0.500000
vt 0.017578 0.500000
vt 0.021484 0.500000
vt 0.021484 0.500000
vt 0.021484 0.500000
vt 0.009766 0.500000
vt 0.009766 0.500000
vt 0.009766 0.500000
vt 0.009766 0.500000
vt 0.021484 0.500000
vt 0.021484 0.500000
vt 0.021484 0.500000
vt 0.021484 0.500000
vt 0.009766 0.500000
vt 0.009766 0.500000
vt 0.009766 0.500000
vt 0.009766 0.500000
vt 0.021484 0.500000
vt 0.021484 0.500000
vt 0.021484 0.500000
vt 0.021484 0.500000
vt 0.021484 0.500000
vt 0.021484 0.500000
vt 0.021484 0.500000
vt 0.021484 0.500000
vt 0.009766 0.500000
vt 0.021484 0.500000
vt 0.021484 0.500000
vt 0.009766 0.500000
vt 0.009766 0.500000
vt 0.021484 0.500000
vt 0.017578 0.500000
vt 0.021484 0.500000
vt 0.017578 0.500000
vt 0.021484 0.500000
vt 0.021484 0.500000
vt 0.013672 0.500000
vt 0.021484 0.500000
vt 0.021484 0.500000
vt 0.009766 0.500000
vt 0.013672 0.500000
vt 0.013672 0.500000
vt 0.009766 0.500000
vt 0.009766 0.500000
vt 0.009766 0.500000
vt 0.021484 0.500000
vt 0.021484 0.500000
vt 0.017578 0.500000
vt 0.017578 0.500000
vt 0.021484 0.500000
vt 0.021484 0.500000
vt 0.013672 0.500000
vt 0.021484 0.500000
vt 0.013672 0.500000
vt 0.021484 0.500000
vt 0.009766 0.500000
vt 0.013672 0.500000
vt 0.009766 0.500000
vt 0.009766 0.500000
vt 0.009766 0.500000
vt 0.021484 0.500000
vt 0.021484 0.500000
vt 0.009766 0.500000
vt 0.021484 0.500000
vt 0.009766 0.500000
vt 0.021484 0.500000
vt 0.009766 0.500000
vt 0.021484 0.500000
vt 0.021484 0.500000
vt 0.021484 0.500000
vt 0.021484 0.500000
vt 0.021484 0.500000
vt 0.021484 0.500000
vt 0.009766 0.500000
vt 0.021484 0.500000
vt 0.021484 0.500000
vt 0.009766 0.500000
vt 0.009766 0.500000
vt 0.021484 0.500000
vt 0.017578 0.500000
vt 0.021484 0.500000
vt 0.017578 0.500000
vt 0.021484 0.500000
vt 0.021484 0.500000
vt 0.013672 0.500000
vt 0.021484 0.500000
vt 0.021484 0.500000
vt 0.009766 0.500000
vt 0.013672 0.500000
vt 0.013672 0.500000
vt 0.009766 0.500000
vt 0.009766 0.500000
vt 0.009766 0.500000
vt 0.021484 0.500000
vt 0.021484 0.500000
vt 0.017578 0.500000
vt 0.017578 0.500000
vt 0.021484 0.500000
vt 0.021484 0.500000
vt 0.013672 0.500000
vt 0.021484 0.500000
vt 0.013672 0.500000
vt 0.021484 0.500000
vt 0.009766 0.500000
vt 0.013672 0.500000
vt 0.009766 0.500000
vt 0.009766 0.500000
vt 0.009766 0.500000
vt 0.021484 0.500000
vt 0.021484 0.500000
vt 0.009766 0.500000
vt 0.021484 0.500000
vt 0.009766 0.500000
vt 0.021484 0.500000
vt 0.009766 0.500000
vt 0.021484 0.500000
vt 0.021484 0.500000
vt 0.021484 0.500000
vt 0.021484 0.500000
vt 0.021484 0.500000
vt 0.021484 0.500000
vt 0.021484 0.500000
vt 0.021484 0.500000
vt 0.021484 0.500000
vt 0.021484 0.500000
vt 0.021484 0.500000
vt 0.021484 0.500000
vt 0.021484 0.500000
vt 0.021484 0.500000
vt 0.021484 0.500000
vt 0.021484 0.500000
vt 0.021484 0.500000
vt 0.021484 0.500000
vt 0.021484 0.500000
vt 0.021484 0.500000
vt 0.021484 0.500000
vt 0.021484 0.500000
vt 0.021484 0.500000
vt 0.021484 0.500000
vt 0.021484 0.500000
vt 0.021484 0.500000
vt 0.021484 0.500000
vt 0.021484 0.500000
vt 0.021484 0.500000
vt 0.021484 0.500000
vt 0.009766 0.500000
vt 0.009766 0.500000
vt 0.009766 0.500000
vt 0.009766 0.500000
vt 0.009766 0.500000
vt 0.009766 0.500000
vt 0.009766 0.500000
vt 0.009766 0.500000
vt 0.009766 0.500000
vt 0.009766 0.500000
vt 0.009766 0.500000
vt 0.009766 0.500000
s 0
usemtl palette
f 3/3/1 2/2/1 1/1/1
f 4/4/1 2/2/1 3/3/1
f 7/7/1 6/6/1 5/5/1
f 8/8/1 6/6/1 7/7/1
f 11/11/1 10/10/1 9/9/1
f 12/12/1 10/10/1 11/11/1
f 15/15/1 14/14/1 13/13/1
f 16/17/1 14/14/1 15/15/1
f 17/19/1 16/18/1 15/16/1
f 18/21/1 16/18/1 17/19/1
f 19/23/1 18/22/1 17/20/1
f 20/24/1 18/22/1 19/23/1
f 23/27/1 22/26/1 21/25/1
f 24/28/1 22/26/1 23/27/1
f 25/29/2 26/30/2 27/31/2
f 27/31/2 26/30/2 28/33/2
f 27/32/2 28/34/2 29/35/2
f 29/35/2 28/34/2 30/37/2
f 29/36/2 30/38/2 31/39/2
f 31/39/2 30/38/2 32/40/2
f 33/41/2 34/42/2 35/43/2
f 35/43/2 34/42/2 36/44/2
f 37/45/2 38/46/2 39/47/2
f 39/47/2 38/46/2 40/48/2
f 41/49/2 42/50/2 43/51/2
f 43/51/2 42/50/2 44/52/2
f 45/53/2 46/54/2 47/55/2
f 47/55/2 46/54/2 48/56/2
f 52/60/3 50/58/3 49/57/3
f 53/62/3 50/58/3 52/60/3
f 54/63/3 50/58/3 53/62/3
f 59/71/3 52/60/3 51/59/3
f 59/71/3 53/62/3 52/60/3
f 60/73/3 53/62/3 59/71/3
f 61/75/3 54/64/3 53/61/3
f 61/74/3 53/62/3 60/73/3
f 61/75/3 55/65/3 54/64/3
f 62/78/3 55/65/3 61/75/3
f 63/79/3 55/65/3 62/78/3
f 65/81/3 57/68/3 56/66/3
f 66/83/3 58/69/3 57/67/3
f 66/82/3 57/68/3 65/81/3
f 67/85/3 60/73/3 59/71/3
f 67/84/3 58/69/3 66/83/3
f 67/85/3 59/71/3 58/70/3
f 68/86/3 60/73/3 67/85/3
f 69/87/3 61/76/3 60/72/3
f 69/88/3 60/73/3 68/86/3
f 69/87/3 62/77/3 61/76/3
f 70/89/3 62/77/3 69/87/3
f 71/93/3 64/80/3 63/79/3
f 71/92/3 62/77/3 70/89/3
f 71/93/3 63/79/3 62/78/3
f 72/94/3 64/80/3 71/93/3
f 73/95/3 64/80/3 72/94/3
f 74/96/3 70/90/3 69/88/3
f 74/96/3 69/88/3 68/86/3
f 75/97/3 70/90/3 74/96/3
f 76/98/3 72/94/3 71/93/3
f 76/99/3 70/90/3 75/97/3
f 76/98/3 71/93/3 70/91/3
f 77/100/3 72/94/3 76/98/3
f 78/102/3 72/94/3 77/100/3
f 79/103/3 76/99/3 75/97/3
f 79/103/3 77/101/3 76/99/3
f 80/104/3 77/101/3 79/103/3
f 81/105/4 82/106/4 84/108/4
f 84/108/4 82/106/4 85/110/4
f 85/110/4 82/106/4 86/111/4
f 83/107/4 84/108/4 91/119/4
f 84/108/4 85/110/4 91/119/4
f 91/119/4 85/110/4 92/121/4
f 85/109/4 86/112/4 93/123/4
f 92/121/4 85/110/4 93/122/4
f 86/112/4 87/113/4 93/123/4
f 93/123/4 87/113/4 94/126/4
f 94/126/4 87/113/4 95/127/4
f 88/114/4 89/116/4 97/129/4
f 89/115/4 90/117/4 98/131/4
f 97/129/4 89/116/4 98/130/4
f 91/119/4 92/121/4 99/133/4
f 98/131/4 90/117/4 99/132/4
f 90/118/4 91/119/4 99/133/4
f 99/133/4 92/121/4 100/134/4
f 92/120/4 93/124/4 101/135/4
f 100/134/4 92/121/4 101/136/4
f 93/124/4 94/125/4 101/135/4
f 101/135/4 94/125/4 102/137/4
f 95/127/4 96/128/4 103/141/4
f 102/137/4 94/125/4 103/140/4
f 94/126/4 95/127/4 103/141/4
f 103/141/4 96/128/4 104/142/4
f 104/142/4 96/128/4 105/143/4
f 101/136/4 102/138/4 106/144/4
f 100/134/4 101/136/4 106/144/4
f 106/144/4 102/138/4 107/145/4
f 103/141/4 104/142/4 108/146/4
f 107/145/4 102/138/4 108/147/4
f 102/139/4 103/141/4 108/146/4
f 108/146/4 104/142/4 109/148/4
f 109/148/4 104/142/4 110/150/4
f 107/145/4 108/147/4 111/151/4
f 108/147/4 109/149/4 111/151/4
f 111/151/4 109/149/4 112/152/4
f 115/155/5 114/154/5 113/153/5
f 116/156/5 114/154/5 115/155/5
f 121/161/5 118/158/5 117/157/5
f 122/162/5 118/158/5 121/161/5
f 123/163/5 120/160/5 119/159/5
f 124/164/5 120/160/5 123/163/5
f 129/169/5 126/166/5 125/165/5
f 130/170/5 126/166/5 129/169/5
f 131/171/5 128/168/5 127/167/5
f 132/172/5 128/168/5 131/171/5
f 133/173/6 134/174/6 137/177/6
f 137/177/6 134/174/6 138/178/6
f 135/175/6 136/176/6 139/179/6
f 139/179/6 136/176/6 140/180/6
f 141/181/6 142/182/6 145/185/6
f 145/185/6 142/182/6 146/186/6
f 143/183/6 144/184/6 147/187/6
f 147/187/6 144/184/6 148/188/6
f 149/189/6 150/190/6 151/191/6
f 151/191/6 150/190/6 152/192/6
