# MagicaVoxel @ Ephtracy

# group
o 

# material
mtllib AlfombraV.mtl
usemtl palette

# normals
vn -1 0 0
vn 1 0 0
vn 0 0 1
vn 0 0 -1
vn 0 -1 0
vn 0 1 0

# texcoords
vt 0.0214844 0.5
vt 0.0253906 0.5
vt 0.0292969 0.5
vt 0.0332031 0.5

# verts
v -5 0 0.1
v -5 0 0
v -5 15 0.1
v -5 15 0
v 5 0 0.1
v 5 0 0
v 5 15 0.1
v 5 15 0
v -5 0 0.1
v -5 15 0.1
v -4.5 0 0.1
v -4.5 14.5 0.1
v -4.2 0 0.1
v -4.2 14.3 0.1
v -3.7 0 0.1
v -3.7 13.9 0.1
v -3.4 0 0.1
v -3.4 13.7 0.1
v 3.4 0 0.1
v 3.4 13.7 0.1
v 3.7 0 0.1
v 3.7 13.9 0.1
v 4.2 0 0.1
v 4.2 14.3 0.1
v 4.5 0 0.1
v 4.5 14.5 0.1
v 5 0 0.1
v 5 15 0.1
v -5 0 0
v -5 15 0
v -4.5 0 0
v -4.5 14.5 0
v -4.2 0 0
v -4.2 14.3 0
v -3.7 0 0
v -3.7 13.9 0
v -3.4 0 0
v -3.4 13.7 0
v 3.4 0 0
v 3.4 13.7 0
v 3.7 0 0
v 3.7 13.9 0
v 4.2 0 0
v 4.2 14.3 0
v 4.5 0 0
v 4.5 14.5 0
v 5 0 0
v 5 15 0
v -5 0 0.1
v -4.5 0 0.1
v -4.2 0 0.1
v -3.7 0 0.1
v -3.4 0 0.1
v 3.4 0 0.1
v 3.7 0 0.1
v 4.2 0 0.1
v 4.5 0 0.1
v 5 0 0.1
v -5 0 0
v -4.5 0 0
v -4.2 0 0
v -3.7 0 0
v -3.4 0 0
v 3.4 0 0
v 3.7 0 0
v 4.2 0 0
v 4.5 0 0
v 5 0 0
v -5 15 0.1
v 5 15 0.1
v -5 15 0
v 5 15 0

# faces
f 3/3/1 2/3/1 1/3/1
f 4/3/1 2/3/1 3/3/1
f 5/3/2 6/3/2 7/3/2
f 7/3/2 6/3/2 8/3/2
f 11/3/3 10/3/3 9/3/3
f 12/3/3 10/3/3 11/3/3
f 13/2/3 12/2/3 11/2/3
f 14/2/3 12/2/3 13/2/3
f 15/3/3 14/3/3 13/3/3
f 16/3/3 14/3/3 15/3/3
f 17/4/3 16/4/3 15/4/3
f 18/4/3 16/4/3 17/4/3
f 19/1/3 18/1/3 17/1/3
f 20/4/3 16/4/3 18/4/3
f 20/1/3 18/1/3 19/1/3
f 21/4/3 20/4/3 19/4/3
f 22/3/3 14/3/3 16/3/3
f 22/4/3 20/4/3 21/4/3
f 22/4/3 16/4/3 20/4/3
f 23/3/3 22/3/3 21/3/3
f 24/2/3 12/2/3 14/2/3
f 24/3/3 22/3/3 23/3/3
f 24/3/3 14/3/3 22/3/3
f 25/2/3 24/2/3 23/2/3
f 26/3/3 10/3/3 12/3/3
f 26/2/3 24/2/3 25/2/3
f 26/2/3 12/2/3 24/2/3
f 27/3/3 26/3/3 25/3/3
f 28/3/3 10/3/3 26/3/3
f 28/3/3 26/3/3 27/3/3
f 29/3/4 30/3/4 31/3/4
f 31/3/4 30/3/4 32/3/4
f 31/2/4 32/2/4 33/2/4
f 33/2/4 32/2/4 34/2/4
f 33/3/4 34/3/4 35/3/4
f 35/3/4 34/3/4 36/3/4
f 35/4/4 36/4/4 37/4/4
f 37/4/4 36/4/4 38/4/4
f 37/1/4 38/1/4 39/1/4
f 38/4/4 36/4/4 40/4/4
f 39/1/4 38/1/4 40/1/4
f 39/4/4 40/4/4 41/4/4
f 36/3/4 34/3/4 42/3/4
f 41/4/4 40/4/4 42/4/4
f 40/4/4 36/4/4 42/4/4
f 41/3/4 42/3/4 43/3/4
f 34/2/4 32/2/4 44/2/4
f 43/3/4 42/3/4 44/3/4
f 42/3/4 34/3/4 44/3/4
f 43/2/4 44/2/4 45/2/4
f 32/3/4 30/3/4 46/3/4
f 45/2/4 44/2/4 46/2/4
f 44/2/4 32/2/4 46/2/4
f 45/3/4 46/3/4 47/3/4
f 46/3/4 30/3/4 48/3/4
f 47/3/4 46/3/4 48/3/4
f 59/3/5 50/3/5 49/3/5
f 60/2/5 51/2/5 50/2/5
f 60/3/5 50/3/5 59/3/5
f 61/3/5 52/3/5 51/3/5
f 61/2/5 51/2/5 60/2/5
f 62/4/5 53/4/5 52/4/5
f 62/3/5 52/3/5 61/3/5
f 63/1/5 54/1/5 53/1/5
f 63/4/5 53/4/5 62/4/5
f 64/4/5 55/4/5 54/4/5
f 64/1/5 54/1/5 63/1/5
f 65/3/5 56/3/5 55/3/5
f 65/4/5 55/4/5 64/4/5
f 66/2/5 57/2/5 56/2/5
f 66/3/5 56/3/5 65/3/5
f 67/3/5 58/3/5 57/3/5
f 67/2/5 57/2/5 66/2/5
f 68/3/5 58/3/5 67/3/5
f 69/3/6 70/3/6 71/3/6
f 71/3/6 70/3/6 72/3/6
