# Blender 3.3.1
# www.blender.org
mtllib Hammer.mtl
o Untitled
v 0.446094 0.317772 -0.050942
v 0.446094 0.317772 0.049058
v 0.446094 0.517772 -0.050942
v 0.446094 0.517772 0.049058
v 0.346094 0.217772 -0.150942
v 0.346094 0.217772 0.149058
v 0.346094 0.317772 -0.050942
v 0.346094 0.317772 0.049058
v 0.346094 0.517772 -0.050942
v 0.346094 0.517772 0.049058
v 0.346094 0.617772 -0.150942
v 0.346094 0.617772 -0.050942
v 0.346094 0.617772 0.049058
v 0.346094 0.617772 0.149058
v 0.046094 -0.282228 -0.050942
v 0.046094 -0.282228 0.049058
v 0.046094 -0.182228 -0.050942
v 0.046094 -0.182228 0.049058
v 0.046094 0.317772 -0.050942
v 0.046094 0.317772 0.049058
v -0.153906 0.217772 -0.150942
v -0.153906 0.217772 0.149058
v -0.153906 0.317772 -0.150942
v -0.153906 0.317772 0.149058
v -0.153906 0.517772 -0.150942
v -0.153906 0.517772 -0.050942
v -0.153906 0.517772 0.049058
v -0.153906 0.517772 0.149058
v -0.153906 0.617772 -0.150942
v -0.153906 0.617772 -0.050942
v -0.153906 0.617772 0.049058
v -0.153906 0.617772 0.149058
v 0.146094 0.217772 -0.150942
v 0.146094 0.217772 0.149058
v 0.146094 0.317772 -0.150942
v 0.146094 0.317772 0.149058
v 0.146094 0.517772 -0.150942
v 0.146094 0.517772 -0.050942
v 0.146094 0.517772 0.049058
v 0.146094 0.517772 0.149058
v 0.146094 0.617772 -0.150942
v 0.146094 0.617772 -0.050942
v 0.146094 0.617772 0.049058
v 0.146094 0.617772 0.149058
v -0.053906 -0.282228 -0.050942
v -0.053906 -0.282228 0.049058
v -0.053906 -0.182228 -0.050942
v -0.053906 -0.182228 0.049058
v -0.053906 0.317772 -0.050942
v -0.053906 0.317772 0.049058
v -0.353906 0.217772 -0.150942
v -0.353906 0.217772 0.149058
v -0.353906 0.317772 -0.050942
v -0.353906 0.317772 0.049058
v -0.353906 0.517772 -0.050942
v -0.353906 0.517772 0.049058
v -0.353906 0.617772 -0.150942
v -0.353906 0.617772 -0.050942
v -0.353906 0.617772 0.049058
v -0.353906 0.617772 0.149058
v -0.453906 0.317772 -0.050942
v -0.453906 0.317772 0.049058
v -0.453906 0.517772 -0.050942
v -0.453906 0.517772 0.049058
v 0.346094 0.217772 -0.150942
v 0.346094 0.617772 -0.150942
v 0.146094 0.217772 -0.150942
v 0.146094 0.317772 -0.150942
v 0.146094 0.517772 -0.150942
v 0.146094 0.617772 -0.150942
v -0.153906 0.217772 -0.150942
v -0.153906 0.317772 -0.150942
v -0.153906 0.517772 -0.150942
v -0.153906 0.617772 -0.150942
v -0.353906 0.217772 -0.150942
v -0.353906 0.617772 -0.150942
v 0.446094 0.317772 -0.050942
v 0.446094 0.517772 -0.050942
v 0.346094 0.317772 -0.050942
v 0.346094 0.517772 -0.050942
v 0.146094 0.517772 -0.050942
v 0.146094 0.617772 -0.050942
v 0.046094 -0.282228 -0.050942
v 0.046094 -0.182228 -0.050942
v 0.046094 0.317772 -0.050942
v -0.053906 -0.282228 -0.050942
v -0.053906 -0.182228 -0.050942
v -0.053906 0.317772 -0.050942
v -0.153906 0.517772 -0.050942
v -0.153906 0.617772 -0.050942
v -0.353906 0.317772 -0.050942
v -0.353906 0.517772 -0.050942
v -0.453906 0.317772 -0.050942
v -0.453906 0.517772 -0.050942
v 0.446094 0.317772 0.049058
v 0.446094 0.517772 0.049058
v 0.346094 0.317772 0.049058
v 0.346094 0.517772 0.049058
v 0.146094 0.517772 0.049058
v 0.146094 0.617772 0.049058
v 0.046094 -0.282228 0.049058
v 0.046094 -0.182228 0.049058
v 0.046094 0.317772 0.049058
v -0.053906 -0.282228 0.049058
v -0.053906 -0.182228 0.049058
v -0.053906 0.317772 0.049058
v -0.153906 0.517772 0.049058
v -0.153906 0.617772 0.049058
v -0.353906 0.317772 0.049058
v -0.353906 0.517772 0.049058
v -0.453906 0.317772 0.049058
v -0.453906 0.517772 0.049058
v 0.346094 0.217772 0.149058
v 0.346094 0.617772 0.149058
v 0.146094 0.217772 0.149058
v 0.146094 0.317772 0.149058
v 0.146094 0.517772 0.149058
v 0.146094 0.617772 0.149058
v -0.153906 0.217772 0.149058
v -0.153906 0.317772 0.149058
v -0.153906 0.517772 0.149058
v -0.153906 0.617772 0.149058
v -0.353906 0.217772 0.149058
v -0.353906 0.617772 0.149058
v 0.046094 -0.282228 -0.050942
v -0.053906 -0.282228 -0.050942
v 0.046094 -0.282228 0.049058
v -0.053906 -0.282228 0.049058
v 0.346094 0.217772 -0.150942
v 0.146094 0.217772 -0.150942
v -0.153906 0.217772 -0.150942
v -0.353906 0.217772 -0.150942
v 0.346094 0.217772 0.149058
v 0.146094 0.217772 0.149058
v -0.153906 0.217772 0.149058
v -0.353906 0.217772 0.149058
v 0.146094 0.317772 -0.150942
v -0.153906 0.317772 -0.150942
v 0.446094 0.317772 -0.050942
v 0.346094 0.317772 -0.050942
v 0.046094 0.317772 -0.050942
v -0.053906 0.317772 -0.050942
v -0.353906 0.317772 -0.050942
v -0.453906 0.317772 -0.050942
v 0.446094 0.317772 0.049058
v 0.346094 0.317772 0.049058
v 0.046094 0.317772 0.049058
v -0.053906 0.317772 0.049058
v -0.353906 0.317772 0.049058
v -0.453906 0.317772 0.049058
v 0.146094 0.317772 0.149058
v -0.153906 0.317772 0.149058
v 0.146094 0.517772 -0.150942
v -0.153906 0.517772 -0.150942
v 0.446094 0.517772 -0.050942
v 0.346094 0.517772 -0.050942
v 0.146094 0.517772 -0.050942
v -0.153906 0.517772 -0.050942
v -0.353906 0.517772 -0.050942
v -0.453906 0.517772 -0.050942
v 0.446094 0.517772 0.049058
v 0.346094 0.517772 0.049058
v 0.146094 0.517772 0.049058
v -0.153906 0.517772 0.049058
v -0.353906 0.517772 0.049058
v -0.453906 0.517772 0.049058
v 0.146094 0.517772 0.149058
v -0.153906 0.517772 0.149058
v 0.346094 0.617772 -0.150942
v 0.146094 0.617772 -0.150942
v -0.153906 0.617772 -0.150942
v -0.353906 0.617772 -0.150942
v 0.346094 0.617772 -0.050942
v 0.146094 0.617772 -0.050942
v -0.153906 0.617772 -0.050942
v -0.353906 0.617772 -0.050942
v 0.346094 0.617772 0.049058
v 0.146094 0.617772 0.049058
v -0.153906 0.617772 0.049058
v -0.353906 0.617772 0.049058
v 0.346094 0.617772 0.149058
v 0.146094 0.617772 0.149058
v -0.153906 0.617772 0.149058
v -0.353906 0.617772 0.149058
vn 1.0000 -0.0000 -0.0000
vn -1.0000 -0.0000 -0.0000
vn -0.0000 -0.0000 -1.0000
vn -0.0000 -0.0000 1.0000
vn -0.0000 -1.0000 -0.0000
vn -0.0000 1.0000 -0.0000
vt 0.025391 0.500000
vt 0.025391 0.500000
vt 0.025391 0.500000
vt 0.025391 0.500000
vt 0.029297 0.500000
vt 0.029297 0.500000
vt 0.029297 0.500000
vt 0.029297 0.500000
vt 0.025391 0.500000
vt 0.029297 0.500000
vt 0.029297 0.500000
vt 0.025391 0.500000
vt 0.029297 0.500000
vt 0.029297 0.500000
vt 0.025391 0.500000
vt 0.025391 0.500000
vt 0.029297 0.500000
vt 0.029297 0.500000
vt 0.056641 0.500000
vt 0.056641 0.500000
vt 0.056641 0.500000
vt 0.037109 0.500000
vt 0.056641 0.500000
vt 0.037109 0.500000
vt 0.037109 0.500000
vt 0.037109 0.500000
vt 0.029297 0.500000
vt 0.029297 0.500000
vt 0.029297 0.500000
vt 0.029297 0.500000
vt 0.029297 0.500000
vt 0.029297 0.500000
vt 0.029297 0.500000
vt 0.029297 0.500000
vt 0.029297 0.500000
vt 0.029297 0.500000
vt 0.029297 0.500000
vt 0.029297 0.500000
vt 0.029297 0.500000
vt 0.029297 0.500000
vt 0.029297 0.500000
vt 0.029297 0.500000
vt 0.029297 0.500000
vt 0.029297 0.500000
vt 0.029297 0.500000
vt 0.029297 0.500000
vt 0.029297 0.500000
vt 0.029297 0.500000
vt 0.029297 0.500000
vt 0.029297 0.500000
vt 0.056641 0.500000
vt 0.056641 0.500000
vt 0.056641 0.500000
vt 0.037109 0.500000
vt 0.056641 0.500000
vt 0.037109 0.500000
vt 0.037109 0.500000
vt 0.037109 0.500000
vt 0.029297 0.500000
vt 0.029297 0.500000
vt 0.029297 0.500000
vt 0.029297 0.500000
vt 0.025391 0.500000
vt 0.029297 0.500000
vt 0.029297 0.500000
vt 0.025391 0.500000
vt 0.029297 0.500000
vt 0.029297 0.500000
vt 0.025391 0.500000
vt 0.025391 0.500000
vt 0.029297 0.500000
vt 0.029297 0.500000
vt 0.025391 0.500000
vt 0.025391 0.500000
vt 0.025391 0.500000
vt 0.025391 0.500000
vt 0.029297 0.500000
vt 0.029297 0.500000
vt 0.029297 0.500000
vt 0.029297 0.500000
vt 0.029297 0.500000
vt 0.029297 0.500000
vt 0.029297 0.500000
vt 0.029297 0.500000
vt 0.029297 0.500000
vt 0.029297 0.500000
vt 0.029297 0.500000
vt 0.029297 0.500000
vt 0.025391 0.500000
vt 0.025391 0.500000
vt 0.025391 0.500000
vt 0.025391 0.500000
vt 0.025391 0.500000
vt 0.025391 0.500000
vt 0.056641 0.500000
vt 0.037109 0.500000
vt 0.056641 0.500000
vt 0.037109 0.500000
vt 0.056641 0.500000
vt 0.056641 0.500000
vt 0.037109 0.500000
vt 0.037109 0.500000
vt 0.025391 0.500000
vt 0.025391 0.500000
vt 0.025391 0.500000
vt 0.025391 0.500000
vt 0.025391 0.500000
vt 0.025391 0.500000
vt 0.025391 0.500000
vt 0.025391 0.500000
vt 0.025391 0.500000
vt 0.025391 0.500000
vt 0.025391 0.500000
vt 0.025391 0.500000
vt 0.056641 0.500000
vt 0.037109 0.500000
vt 0.056641 0.500000
vt 0.037109 0.500000
vt 0.056641 0.500000
vt 0.056641 0.500000
vt 0.037109 0.500000
vt 0.037109 0.500000
vt 0.025391 0.500000
vt 0.025391 0.500000
vt 0.025391 0.500000
vt 0.025391 0.500000
vt 0.025391 0.500000
vt 0.025391 0.500000
vt 0.029297 0.500000
vt 0.029297 0.500000
vt 0.029297 0.500000
vt 0.029297 0.500000
vt 0.029297 0.500000
vt 0.029297 0.500000
vt 0.029297 0.500000
vt 0.029297 0.500000
vt 0.029297 0.500000
vt 0.029297 0.500000
vt 0.029297 0.500000
vt 0.029297 0.500000
vt 0.056641 0.500000
vt 0.056641 0.500000
vt 0.056641 0.500000
vt 0.056641 0.500000
vt 0.029297 0.500000
vt 0.029297 0.500000
vt 0.029297 0.500000
vt 0.029297 0.500000
vt 0.029297 0.500000
vt 0.029297 0.500000
vt 0.029297 0.500000
vt 0.029297 0.500000
vt 0.029297 0.500000
vt 0.029297 0.500000
vt 0.025391 0.500000
vt 0.025391 0.500000
vt 0.029297 0.500000
vt 0.029297 0.500000
vt 0.025391 0.500000
vt 0.025391 0.500000
vt 0.025391 0.500000
vt 0.025391 0.500000
vt 0.029297 0.500000
vt 0.029297 0.500000
vt 0.025391 0.500000
vt 0.025391 0.500000
vt 0.029297 0.500000
vt 0.029297 0.500000
vt 0.029297 0.500000
vt 0.029297 0.500000
vt 0.025391 0.500000
vt 0.025391 0.500000
vt 0.029297 0.500000
vt 0.029297 0.500000
vt 0.025391 0.500000
vt 0.025391 0.500000
vt 0.025391 0.500000
vt 0.025391 0.500000
vt 0.029297 0.500000
vt 0.029297 0.500000
vt 0.025391 0.500000
vt 0.025391 0.500000
vt 0.029297 0.500000
vt 0.029297 0.500000
vt 0.029297 0.500000
vt 0.029297 0.500000
vt 0.029297 0.500000
vt 0.029297 0.500000
vt 0.029297 0.500000
vt 0.025391 0.500000
vt 0.029297 0.500000
vt 0.025391 0.500000
vt 0.029297 0.500000
vt 0.025391 0.500000
vt 0.029297 0.500000
vt 0.025391 0.500000
vt 0.025391 0.500000
vt 0.029297 0.500000
vt 0.025391 0.500000
vt 0.029297 0.500000
vt 0.025391 0.500000
vt 0.029297 0.500000
vt 0.025391 0.500000
vt 0.029297 0.500000
vt 0.029297 0.500000
vt 0.029297 0.500000
vt 0.029297 0.500000
vt 0.029297 0.500000
s 0
usemtl palette.006
f 3/3/1 2/2/1 1/1/1
f 4/4/1 2/2/1 3/3/1
f 7/7/1 6/6/1 5/5/1
f 8/8/1 6/6/1 7/7/1
f 9/10/1 7/7/1 5/5/1
f 10/11/1 6/6/1 8/8/1
f 11/13/1 9/10/1 5/5/1
f 12/15/1 10/12/1 9/9/1
f 12/14/1 9/10/1 11/13/1
f 13/17/1 6/6/1 10/11/1
f 13/16/1 10/12/1 12/15/1
f 14/18/1 6/6/1 13/17/1
f 17/21/1 16/20/1 15/19/1
f 18/23/1 16/20/1 17/21/1
f 19/25/1 18/24/1 17/22/1
f 20/26/1 18/24/1 19/25/1
f 23/29/1 22/28/1 21/27/1
f 24/30/1 22/28/1 23/29/1
f 29/35/1 26/32/1 25/31/1
f 30/36/1 26/32/1 29/35/1
f 31/37/1 28/34/1 27/33/1
f 32/38/1 28/34/1 31/37/1
f 33/39/2 34/40/2 35/41/2
f 35/41/2 34/40/2 36/42/2
f 37/43/2 38/44/2 41/47/2
f 41/47/2 38/44/2 42/48/2
f 39/45/2 40/46/2 43/49/2
f 43/49/2 40/46/2 44/50/2
f 45/51/2 46/52/2 47/53/2
f 47/53/2 46/52/2 48/55/2
f 47/54/2 48/56/2 49/57/2
f 49/57/2 48/56/2 50/58/2
f 51/59/2 52/60/2 53/61/2
f 53/61/2 52/60/2 54/62/2
f 51/59/2 53/61/2 55/64/2
f 54/62/2 52/60/2 56/65/2
f 51/59/2 55/64/2 57/67/2
f 55/63/2 56/66/2 58/69/2
f 57/67/2 55/64/2 58/68/2
f 56/65/2 52/60/2 59/71/2
f 58/69/2 56/66/2 59/70/2
f 59/71/2 52/60/2 60/72/2
f 61/73/2 62/74/2 63/75/2
f 63/75/2 62/74/2 64/76/2
f 67/79/3 66/78/3 65/77/3
f 68/80/3 66/78/3 67/79/3
f 69/81/3 66/78/3 68/80/3
f 70/82/3 66/78/3 69/81/3
f 72/84/3 69/81/3 68/80/3
f 73/85/3 69/81/3 72/84/3
f 75/87/3 72/84/3 71/83/3
f 75/87/3 74/86/3 73/85/3
f 75/87/3 73/85/3 72/84/3
f 76/88/3 74/86/3 75/87/3
f 79/91/3 78/90/3 77/89/3
f 80/92/3 78/90/3 79/91/3
f 86/99/3 84/97/3 83/95/3
f 87/101/3 85/98/3 84/96/3
f 87/100/3 84/97/3 86/99/3
f 88/102/3 85/98/3 87/101/3
f 89/103/3 82/94/3 81/93/3
f 90/104/3 82/94/3 89/103/3
f 93/107/3 92/106/3 91/105/3
f 94/108/3 92/106/3 93/107/3
f 95/109/4 96/110/4 97/111/4
f 97/111/4 96/110/4 98/112/4
f 101/115/4 102/117/4 104/119/4
f 102/116/4 103/118/4 105/121/4
f 104/119/4 102/117/4 105/120/4
f 105/121/4 103/118/4 106/122/4
f 99/113/4 100/114/4 107/123/4
f 107/123/4 100/114/4 108/124/4
f 109/125/4 110/126/4 111/127/4
f 111/127/4 110/126/4 112/128/4
f 113/129/4 114/130/4 115/131/4
f 115/131/4 114/130/4 116/132/4
f 116/132/4 114/130/4 117/133/4
f 117/133/4 114/130/4 118/134/4
f 116/132/4 117/133/4 120/136/4
f 120/136/4 117/133/4 121/137/4
f 119/135/4 120/136/4 123/139/4
f 121/137/4 122/138/4 123/139/4
f 120/136/4 121/137/4 123/139/4
f 123/139/4 122/138/4 124/140/4
f 127/143/5 126/142/5 125/141/5
f 128/144/5 126/142/5 127/143/5
f 133/149/5 130/146/5 129/145/5
f 134/150/5 130/146/5 133/149/5
f 135/151/5 132/148/5 131/147/5
f 136/152/5 132/148/5 135/151/5
f 141/157/5 138/154/5 137/153/5
f 142/158/5 138/154/5 141/157/5
f 145/161/5 140/156/5 139/155/5
f 146/162/5 140/156/5 145/161/5
f 147/163/5 141/157/5 137/153/5
f 148/164/5 138/154/5 142/158/5
f 149/165/5 144/160/5 143/159/5
f 150/166/5 144/160/5 149/165/5
f 151/167/5 148/164/5 147/163/5
f 151/167/5 147/163/5 137/153/5
f 152/168/5 138/154/5 148/164/5
f 152/168/5 148/164/5 151/167/5
f 153/169/6 154/170/6 157/173/6
f 157/173/6 154/170/6 158/174/6
f 155/171/6 156/172/6 161/177/6
f 161/177/6 156/172/6 162/178/6
f 159/175/6 160/176/6 165/181/6
f 165/181/6 160/176/6 166/182/6
f 163/179/6 164/180/6 167/183/6
f 167/183/6 164/180/6 168/184/6
f 169/185/6 170/186/6 173/189/6
f 173/189/6 170/186/6 174/191/6
f 171/187/6 172/188/6 175/193/6
f 175/193/6 172/188/6 176/195/6
f 173/190/6 174/192/6 177/197/6
f 174/192/6 175/194/6 177/197/6
f 175/194/6 176/196/6 177/197/6
f 177/197/6 176/196/6 178/199/6
f 178/199/6 176/196/6 179/201/6
f 179/201/6 176/196/6 180/203/6
f 177/198/6 178/200/6 181/205/6
f 181/205/6 178/200/6 182/206/6
f 179/202/6 180/204/6 183/207/6
f 183/207/6 180/204/6 184/208/6
