# MagicaVoxel @ Ephtracy

# group
o 

# material
mtllib GreySword.mtl
usemtl palette

# normals
vn -1 0 0
vn 1 0 0
vn 0 0 1
vn 0 0 -1
vn 0 -1 0
vn 0 1 0

# texcoords
vt 0.978516 0.5
vt 0.982422 0.5
vt 0.986328 0.5
vt 0.990234 0.5
vt 0.994141 0.5

# verts
v -0.4 0.8 0
v -0.4 0.8 -0.1
v -0.4 0.9 0
v -0.4 0.9 -0.1
v -0.3 0.7 0
v -0.3 0.7 -0.1
v -0.3 0.8 0
v -0.3 0.8 -0.1
v -0.2 0.6 0
v -0.2 0.6 -0.1
v -0.2 0.7 0.1
v -0.2 0.7 0
v -0.2 0.7 -0.1
v -0.2 0.7 -0.2
v -0.2 0.8 0.1
v -0.2 0.8 0
v -0.2 0.8 -0.1
v -0.2 0.8 -0.2
v -0.2 0.9 0
v -0.2 0.9 -0.1
v -0.2 1.1 0
v -0.2 1.1 -0.1
v -0.2 2.7 0
v -0.2 2.7 -0.1
v -0.1 0 0
v -0.1 0 -0.1
v -0.1 0.1 0
v -0.1 0.1 -0.1
v -0.1 0.2 0
v -0.1 0.2 -0.1
v -0.1 0.3 0
v -0.1 0.3 -0.1
v -0.1 0.4 0
v -0.1 0.4 -0.1
v -0.1 0.5 0
v -0.1 0.5 -0.1
v -0.1 0.6 0.1
v -0.1 0.6 0
v -0.1 0.6 -0.1
v -0.1 0.6 -0.2
v -0.1 0.7 0.1
v -0.1 0.7 0
v -0.1 0.7 -0.1
v -0.1 0.7 -0.2
v -0.1 0.8 0.1
v -0.1 0.8 0
v -0.1 0.8 -0.1
v -0.1 0.8 -0.2
v -0.1 0.9 0
v -0.1 0.9 -0.1
v -0.1 1 0.1
v -0.1 1 0
v -0.1 1 -0.1
v -0.1 1 -0.2
v -0.1 2.7 0
v -0.1 2.7 -0.1
v -0.1 2.8 0
v -0.1 2.8 -0.1
v 0.2 0.8 0
v 0.2 0.8 -0.1
v 0.2 0.9 0
v 0.2 0.9 -0.1
v -0.3 0.8 0
v -0.3 0.8 -0.1
v -0.3 0.9 0
v -0.3 0.9 -0.1
v 0 0 0
v 0 0 -0.1
v 0 0.1 0
v 0 0.1 -0.1
v 0 0.2 0
v 0 0.2 -0.1
v 0 0.3 0
v 0 0.3 -0.1
v 0 0.4 0
v 0 0.4 -0.1
v 0 0.5 0
v 0 0.5 -0.1
v 0 0.6 0.1
v 0 0.6 0
v 0 0.6 -0.1
v 0 0.6 -0.2
v 0 0.7 0.1
v 0 0.7 0
v 0 0.7 -0.1
v 0 0.7 -0.2
v 0 0.8 0.1
v 0 0.8 0
v 0 0.8 -0.1
v 0 0.8 -0.2
v 0 0.9 0
v 0 0.9 -0.1
v 0 1 0.1
v 0 1 0
v 0 1 -0.1
v 0 1 -0.2
v 0 2.7 0
v 0 2.7 -0.1
v 0 2.8 0
v 0 2.8 -0.1
v 0.1 0.6 0
v 0.1 0.6 -0.1
v 0.1 0.7 0.1
v 0.1 0.7 0
v 0.1 0.7 -0.1
v 0.1 0.7 -0.2
v 0.1 0.8 0.1
v 0.1 0.8 0
v 0.1 0.8 -0.1
v 0.1 0.8 -0.2
v 0.1 0.9 0
v 0.1 0.9 -0.1
v 0.1 1.1 0
v 0.1 1.1 -0.1
v 0.1 2.7 0
v 0.1 2.7 -0.1
v 0.2 0.7 0
v 0.2 0.7 -0.1
v 0.2 0.8 0
v 0.2 0.8 -0.1
v 0.3 0.8 0
v 0.3 0.8 -0.1
v 0.3 0.9 0
v 0.3 0.9 -0.1
v -0.2 0.7 0.1
v -0.2 0.8 0.1
v -0.1 0.6 0.1
v -0.1 0.7 0.1
v -0.1 0.8 0.1
v -0.1 1 0.1
v 0 0.6 0.1
v 0 0.7 0.1
v 0 0.8 0.1
v 0 1 0.1
v 0.1 0.7 0.1
v 0.1 0.8 0.1
v -0.4 0.8 0
v -0.4 0.9 0
v -0.3 0.7 0
v -0.3 0.8 0
v -0.3 0.9 0
v -0.2 0.6 0
v -0.2 0.7 0
v -0.2 0.8 0
v -0.2 0.9 0
v -0.2 1.1 0
v -0.2 2.7 0
v -0.1 0 0
v -0.1 0.1 0
v -0.1 0.2 0
v -0.1 0.3 0
v -0.1 0.4 0
v -0.1 0.5 0
v -0.1 0.6 0
v -0.1 0.7 0
v -0.1 0.8 0
v -0.1 0.9 0
v -0.1 1 0
v -0.1 1.1 0
v -0.1 1.5 0
v -0.1 2.6 0
v -0.1 2.7 0
v -0.1 2.8 0
v 0 0 0
v 0 0.1 0
v 0 0.2 0
v 0 0.3 0
v 0 0.4 0
v 0 0.5 0
v 0 0.6 0
v 0 0.7 0
v 0 0.8 0
v 0 0.9 0
v 0 1 0
v 0 1.1 0
v 0 1.5 0
v 0 2.6 0
v 0 2.7 0
v 0 2.8 0
v 0.1 0.6 0
v 0.1 0.7 0
v 0.1 0.8 0
v 0.1 0.9 0
v 0.1 1.1 0
v 0.1 2.7 0
v 0.2 0.7 0
v 0.2 0.8 0
v 0.2 0.9 0
v 0.3 0.8 0
v 0.3 0.9 0
v -0.4 0.8 -0.1
v -0.4 0.9 -0.1
v -0.3 0.7 -0.1
v -0.3 0.8 -0.1
v -0.3 0.9 -0.1
v -0.2 0.6 -0.1
v -0.2 0.7 -0.1
v -0.2 0.8 -0.1
v -0.2 0.9 -0.1
v -0.2 1.1 -0.1
v -0.2 2.7 -0.1
v -0.1 0 -0.1
v -0.1 0.1 -0.1
v -0.1 0.2 -0.1
v -0.1 0.3 -0.1
v -0.1 0.4 -0.1
v -0.1 0.5 -0.1
v -0.1 0.6 -0.1
v -0.1 0.7 -0.1
v -0.1 0.8 -0.1
v -0.1 0.9 -0.1
v -0.1 1 -0.1
v -0.1 1.1 -0.1
v -0.1 1.5 -0.1
v -0.1 2.6 -0.1
v -0.1 2.7 -0.1
v -0.1 2.8 -0.1
v 0 0 -0.1
v 0 0.1 -0.1
v 0 0.2 -0.1
v 0 0.3 -0.1
v 0 0.4 -0.1
v 0 0.5 -0.1
v 0 0.6 -0.1
v 0 0.7 -0.1
v 0 0.8 -0.1
v 0 0.9 -0.1
v 0 1 -0.1
v 0 1.1 -0.1
v 0 1.5 -0.1
v 0 2.6 -0.1
v 0 2.7 -0.1
v 0 2.8 -0.1
v 0.1 0.6 -0.1
v 0.1 0.7 -0.1
v 0.1 0.8 -0.1
v 0.1 0.9 -0.1
v 0.1 1.1 -0.1
v 0.1 2.7 -0.1
v 0.2 0.7 -0.1
v 0.2 0.8 -0.1
v 0.2 0.9 -0.1
v 0.3 0.8 -0.1
v 0.3 0.9 -0.1
v -0.2 0.7 -0.2
v -0.2 0.8 -0.2
v -0.1 0.6 -0.2
v -0.1 0.7 -0.2
v -0.1 0.8 -0.2
v -0.1 1 -0.2
v 0 0.6 -0.2
v 0 0.7 -0.2
v 0 0.8 -0.2
v 0 1 -0.2
v 0.1 0.7 -0.2
v 0.1 0.8 -0.2
v -0.1 0 0
v 0 0 0
v -0.1 0 -0.1
v 0 0 -0.1
v -0.1 0.6 0.1
v 0 0.6 0.1
v -0.2 0.6 0
v -0.1 0.6 0
v 0 0.6 0
v 0.1 0.6 0
v -0.2 0.6 -0.1
v -0.1 0.6 -0.1
v 0 0.6 -0.1
v 0.1 0.6 -0.1
v -0.1 0.6 -0.2
v 0 0.6 -0.2
v -0.2 0.7 0.1
v -0.1 0.7 0.1
v 0 0.7 0.1
v 0.1 0.7 0.1
v -0.3 0.7 0
v -0.2 0.7 0
v -0.1 0.7 0
v 0 0.7 0
v 0.1 0.7 0
v 0.2 0.7 0
v -0.3 0.7 -0.1
v -0.2 0.7 -0.1
v -0.1 0.7 -0.1
v 0 0.7 -0.1
v 0.1 0.7 -0.1
v 0.2 0.7 -0.1
v -0.2 0.7 -0.2
v -0.1 0.7 -0.2
v 0 0.7 -0.2
v 0.1 0.7 -0.2
v -0.4 0.8 0
v -0.3 0.8 0
v 0.2 0.8 0
v 0.3 0.8 0
v -0.4 0.8 -0.1
v -0.3 0.8 -0.1
v 0.2 0.8 -0.1
v 0.3 0.8 -0.1
v -0.2 0.8 0.1
v -0.1 0.8 0.1
v 0 0.8 0.1
v 0.1 0.8 0.1
v -0.3 0.8 0
v -0.2 0.8 0
v -0.1 0.8 0
v 0 0.8 0
v 0.1 0.8 0
v 0.2 0.8 0
v -0.3 0.8 -0.1
v -0.2 0.8 -0.1
v -0.1 0.8 -0.1
v 0 0.8 -0.1
v 0.1 0.8 -0.1
v 0.2 0.8 -0.1
v -0.2 0.8 -0.2
v -0.1 0.8 -0.2
v 0 0.8 -0.2
v 0.1 0.8 -0.2
v -0.4 0.9 0
v -0.3 0.9 0
v 0.2 0.9 0
v 0.3 0.9 0
v -0.4 0.9 -0.1
v -0.3 0.9 -0.1
v 0.2 0.9 -0.1
v 0.3 0.9 -0.1
v -0.1 1 0.1
v 0 1 0.1
v -0.1 1 0
v 0 1 0
v -0.1 1 -0.1
v 0 1 -0.1
v -0.1 1 -0.2
v 0 1 -0.2
v -0.2 2.7 0
v -0.1 2.7 0
v 0 2.7 0
v 0.1 2.7 0
v -0.2 2.7 -0.1
v -0.1 2.7 -0.1
v 0 2.7 -0.1
v 0.1 2.7 -0.1
v -0.1 2.8 0
v 0 2.8 0
v -0.1 2.8 -0.1
v 0 2.8 -0.1

# faces
f 3/5/1 2/5/1 1/5/1
f 4/5/1 2/5/1 3/5/1
f 7/5/1 6/5/1 5/5/1
f 8/5/1 6/5/1 7/5/1
f 12/5/1 10/5/1 9/5/1
f 13/5/1 10/5/1 12/5/1
f 15/5/1 12/5/1 11/5/1
f 16/5/1 12/5/1 15/5/1
f 17/5/1 14/5/1 13/5/1
f 18/5/1 14/5/1 17/5/1
f 19/5/1 17/5/1 16/5/1
f 20/5/1 17/5/1 19/5/1
f 21/3/1 20/3/1 19/3/1
f 22/3/1 20/3/1 21/3/1
f 23/2/1 22/2/1 21/2/1
f 24/2/1 22/2/1 23/2/1
f 27/5/1 26/5/1 25/5/1
f 28/5/1 26/5/1 27/5/1
f 29/4/1 28/4/1 27/4/1
f 30/4/1 28/4/1 29/4/1
f 31/5/1 30/5/1 29/5/1
f 32/5/1 30/5/1 31/5/1
f 33/4/1 32/4/1 31/4/1
f 34/4/1 32/4/1 33/4/1
f 35/5/1 34/5/1 33/5/1
f 36/5/1 34/5/1 35/5/1
f 38/4/1 36/4/1 35/4/1
f 39/4/1 36/4/1 38/4/1
f 41/5/1 38/5/1 37/5/1
f 42/5/1 38/5/1 41/5/1
f 43/5/1 40/5/1 39/5/1
f 44/5/1 40/5/1 43/5/1
f 49/5/1 46/5/1 45/5/1
f 50/5/1 48/5/1 47/5/1
f 51/5/1 49/5/1 45/5/1
f 52/5/1 49/5/1 51/5/1
f 53/5/1 48/5/1 50/5/1
f 54/5/1 48/5/1 53/5/1
f 57/2/1 56/2/1 55/2/1
f 58/2/1 56/2/1 57/2/1
f 61/5/1 60/5/1 59/5/1
f 62/5/1 60/5/1 61/5/1
f 63/5/2 64/5/2 65/5/2
f 65/5/2 64/5/2 66/5/2
f 67/5/2 68/5/2 69/5/2
f 69/5/2 68/5/2 70/5/2
f 69/4/2 70/4/2 71/4/2
f 71/4/2 70/4/2 72/4/2
f 71/5/2 72/5/2 73/5/2
f 73/5/2 72/5/2 74/5/2
f 73/4/2 74/4/2 75/4/2
f 75/4/2 74/4/2 76/4/2
f 75/5/2 76/5/2 77/5/2
f 77/5/2 76/5/2 78/5/2
f 77/4/2 78/4/2 80/4/2
f 80/4/2 78/4/2 81/4/2
f 79/5/2 80/5/2 83/5/2
f 83/5/2 80/5/2 84/5/2
f 81/5/2 82/5/2 85/5/2
f 85/5/2 82/5/2 86/5/2
f 87/5/2 88/5/2 91/5/2
f 89/5/2 90/5/2 92/5/2
f 87/5/2 91/5/2 93/5/2
f 93/5/2 91/5/2 94/5/2
f 92/5/2 90/5/2 95/5/2
f 95/5/2 90/5/2 96/5/2
f 97/2/2 98/2/2 99/2/2
f 99/2/2 98/2/2 100/2/2
f 101/5/2 102/5/2 104/5/2
f 104/5/2 102/5/2 105/5/2
f 103/5/2 104/5/2 107/5/2
f 107/5/2 104/5/2 108/5/2
f 105/5/2 106/5/2 109/5/2
f 109/5/2 106/5/2 110/5/2
f 108/5/2 109/5/2 111/5/2
f 111/5/2 109/5/2 112/5/2
f 111/3/2 112/3/2 113/3/2
f 113/3/2 112/3/2 114/3/2
f 113/2/2 114/2/2 115/2/2
f 115/2/2 114/2/2 116/2/2
f 117/5/2 118/5/2 119/5/2
f 119/5/2 118/5/2 120/5/2
f 121/5/2 122/5/2 123/5/2
f 123/5/2 122/5/2 124/5/2
f 128/5/3 126/5/3 125/5/3
f 129/5/3 126/5/3 128/5/3
f 131/5/3 128/5/3 127/5/3
f 131/5/3 130/5/3 129/5/3
f 131/5/3 129/5/3 128/5/3
f 132/5/3 130/5/3 131/5/3
f 133/5/3 130/5/3 132/5/3
f 134/5/3 130/5/3 133/5/3
f 135/5/3 133/5/3 132/5/3
f 136/5/3 133/5/3 135/5/3
f 140/5/3 138/5/3 137/5/3
f 141/5/3 138/5/3 140/5/3
f 143/5/3 140/5/3 139/5/3
f 144/5/3 140/5/3 143/5/3
f 154/5/3 143/5/3 142/5/3
f 155/5/3 143/5/3 154/5/3
f 156/5/3 145/5/3 144/5/3
f 157/3/3 146/3/3 145/3/3
f 157/5/3 145/5/3 156/5/3
f 158/3/3 146/3/3 157/3/3
f 159/2/3 147/2/3 146/2/3
f 159/3/3 146/3/3 158/3/3
f 160/2/3 147/2/3 159/2/3
f 161/2/3 147/2/3 160/2/3
f 162/2/3 147/2/3 161/2/3
f 164/5/3 149/5/3 148/5/3
f 165/4/3 150/4/3 149/4/3
f 165/5/3 149/5/3 164/5/3
f 166/5/3 151/5/3 150/5/3
f 166/4/3 150/4/3 165/4/3
f 167/4/3 152/4/3 151/4/3
f 167/5/3 151/5/3 166/5/3
f 168/5/3 153/5/3 152/5/3
f 168/4/3 152/4/3 167/4/3
f 169/4/3 154/4/3 153/4/3
f 169/5/3 153/5/3 168/5/3
f 170/4/3 154/4/3 169/4/3
f 174/5/3 160/5/3 159/5/3
f 174/5/3 159/5/3 158/5/3
f 175/5/3 160/5/3 174/5/3
f 176/1/3 161/1/3 160/1/3
f 176/5/3 160/5/3 175/5/3
f 177/2/3 163/2/3 162/2/3
f 177/1/3 161/1/3 176/1/3
f 177/2/3 162/2/3 161/2/3
f 178/2/3 163/2/3 177/2/3
f 179/2/3 163/2/3 178/2/3
f 180/5/3 171/5/3 170/5/3
f 181/5/3 171/5/3 180/5/3
f 182/5/3 173/5/3 172/5/3
f 183/3/3 174/3/3 173/3/3
f 183/3/3 175/3/3 174/3/3
f 183/5/3 173/5/3 182/5/3
f 184/2/3 176/2/3 175/2/3
f 184/3/3 175/3/3 183/3/3
f 184/2/3 178/2/3 177/2/3
f 184/2/3 177/2/3 176/2/3
f 185/2/3 178/2/3 184/2/3
f 186/5/3 182/5/3 181/5/3
f 187/5/3 182/5/3 186/5/3
f 189/5/3 188/5/3 187/5/3
f 190/5/3 188/5/3 189/5/3
f 191/5/4 192/5/4 194/5/4
f 194/5/4 192/5/4 195/5/4
f 193/5/4 194/5/4 197/5/4
f 197/5/4 194/5/4 198/5/4
f 196/5/4 197/5/4 208/5/4
f 208/5/4 197/5/4 209/5/4
f 198/5/4 199/5/4 210/5/4
f 199/3/4 200/3/4 211/3/4
f 210/5/4 199/5/4 211/5/4
f 211/3/4 200/3/4 212/3/4
f 200/2/4 201/2/4 213/2/4
f 212/3/4 200/3/4 213/3/4
f 213/2/4 201/2/4 214/2/4
f 214/2/4 201/2/4 215/2/4
f 215/2/4 201/2/4 216/2/4
f 202/5/4 203/5/4 218/5/4
f 203/4/4 204/4/4 219/4/4
f 218/5/4 203/5/4 219/5/4
f 204/5/4 205/5/4 220/5/4
f 219/4/4 204/4/4 220/4/4
f 205/4/4 206/4/4 221/4/4
f 220/5/4 205/5/4 221/5/4
f 206/5/4 207/5/4 222/5/4
f 221/4/4 206/4/4 222/4/4
f 207/4/4 208/4/4 223/4/4
f 222/5/4 207/5/4 223/5/4
f 223/4/4 208/4/4 224/4/4
f 213/5/4 214/5/4 228/5/4
f 212/5/4 213/5/4 228/5/4
f 228/5/4 214/5/4 229/5/4
f 214/1/4 215/1/4 230/1/4
f 229/5/4 214/5/4 230/5/4
f 216/2/4 217/2/4 231/2/4
f 230/1/4 215/1/4 231/1/4
f 215/2/4 216/2/4 231/2/4
f 231/2/4 217/2/4 232/2/4
f 232/2/4 217/2/4 233/2/4
f 224/5/4 225/5/4 234/5/4
f 234/5/4 225/5/4 235/5/4
f 226/5/4 227/5/4 236/5/4
f 227/3/4 228/3/4 237/3/4
f 228/3/4 229/3/4 237/3/4
f 236/5/4 227/5/4 237/5/4
f 229/2/4 230/2/4 238/2/4
f 237/3/4 229/3/4 238/3/4
f 231/2/4 232/2/4 238/2/4
f 230/2/4 231/2/4 238/2/4
f 238/2/4 232/2/4 239/2/4
f 235/5/4 236/5/4 240/5/4
f 240/5/4 236/5/4 241/5/4
f 241/5/4 242/5/4 243/5/4
f 243/5/4 242/5/4 244/5/4
f 245/5/4 246/5/4 248/5/4
f 248/5/4 246/5/4 249/5/4
f 247/5/4 248/5/4 251/5/4
f 249/5/4 250/5/4 251/5/4
f 248/5/4 249/5/4 251/5/4
f 251/5/4 250/5/4 252/5/4
f 252/5/4 250/5/4 253/5/4
f 253/5/4 250/5/4 254/5/4
f 252/5/4 253/5/4 255/5/4
f 255/5/4 253/5/4 256/5/4
f 259/5/5 258/5/5 257/5/5
f 260/5/5 258/5/5 259/5/5
f 264/5/5 262/5/5 261/5/5
f 265/5/5 262/5/5 264/5/5
f 267/5/5 264/5/5 263/5/5
f 268/5/5 264/5/5 267/5/5
f 269/5/5 266/5/5 265/5/5
f 270/5/5 266/5/5 269/5/5
f 271/5/5 269/5/5 268/5/5
f 272/5/5 269/5/5 271/5/5
f 278/5/5 274/5/5 273/5/5
f 279/5/5 274/5/5 278/5/5
f 280/5/5 276/5/5 275/5/5
f 281/5/5 276/5/5 280/5/5
f 283/5/5 278/5/5 277/5/5
f 284/5/5 278/5/5 283/5/5
f 287/5/5 282/5/5 281/5/5
f 288/5/5 282/5/5 287/5/5
f 289/5/5 285/5/5 284/5/5
f 290/5/5 285/5/5 289/5/5
f 291/5/5 287/5/5 286/5/5
f 292/5/5 287/5/5 291/5/5
f 297/5/5 294/5/5 293/5/5
f 298/5/5 294/5/5 297/5/5
f 299/5/5 296/5/5 295/5/5
f 300/5/5 296/5/5 299/5/5
f 301/5/6 302/5/6 306/5/6
f 306/5/6 302/5/6 307/5/6
f 303/5/6 304/5/6 308/5/6
f 308/5/6 304/5/6 309/5/6
f 305/5/6 306/5/6 311/5/6
f 311/5/6 306/5/6 312/5/6
f 309/5/6 310/5/6 315/5/6
f 315/5/6 310/5/6 316/5/6
f 312/5/6 313/5/6 317/5/6
f 317/5/6 313/5/6 318/5/6
f 314/5/6 315/5/6 319/5/6
f 319/5/6 315/5/6 320/5/6
f 321/5/6 322/5/6 325/5/6
f 325/5/6 322/5/6 326/5/6
f 323/5/6 324/5/6 327/5/6
f 327/5/6 324/5/6 328/5/6
f 329/5/6 330/5/6 331/5/6
f 331/5/6 330/5/6 332/5/6
f 333/5/6 334/5/6 335/5/6
f 335/5/6 334/5/6 336/5/6
f 337/2/6 338/2/6 341/2/6
f 341/2/6 338/2/6 342/2/6
f 339/2/6 340/2/6 343/2/6
f 343/2/6 340/2/6 344/2/6
f 345/2/6 346/2/6 347/2/6
f 347/2/6 346/2/6 348/2/6
