# MagicaVoxel @ Ephtracy

# group
o 

# material
mtllib caja 2 partida-0.mtl
usemtl palette

# normals
vn -1 0 0
vn 1 0 0
vn 0 0 1
vn 0 0 -1
vn 0 -1 0
vn 0 1 0

# texcoords
vt 0.0214844 0.5
vt 0.0371094 0.5

# verts
v -0.7 0.1 -0.7
v -0.7 0.1 -1
v -0.7 0.2 -0.8
v -0.7 0.2 -0.9
v -0.7 0.2 -1
v -0.7 0.5 -0.8
v -0.7 0.5 -0.9
v -0.7 0.6 -0.8
v -0.7 0.6 -0.9
v -0.7 0.9 -0.8
v -0.7 0.9 -0.9
v -0.7 1.1 -0.8
v -0.7 1.1 -0.9
v -0.7 1.4 -0.8
v -0.7 1.4 -0.9
v -0.7 1.5 -0.8
v -0.7 1.5 -0.9
v -0.7 1.8 -0.8
v -0.7 1.8 -0.9
v -0.7 1.8 -1
v -0.7 1.9 -0.7
v -0.7 1.9 -1
v 0.7 0.1 -0.7
v 0.7 0.1 -1
v 0.7 0.2 -0.8
v 0.7 0.2 -0.9
v 0.7 0.2 -1
v 0.7 0.5 -0.8
v 0.7 0.5 -0.9
v 0.7 0.6 -0.8
v 0.7 0.6 -0.9
v 0.7 0.9 -0.8
v 0.7 0.9 -0.9
v 0.7 1.1 -0.8
v 0.7 1.1 -0.9
v 0.7 1.4 -0.8
v 0.7 1.4 -0.9
v 0.7 1.5 -0.8
v 0.7 1.5 -0.9
v 0.7 1.8 -0.8
v 0.7 1.8 -0.9
v 0.7 1.8 -1
v 0.7 1.9 -0.7
v 0.7 1.9 -1
v -0.7 0.1 -0.7
v -0.7 1.9 -0.7
v 0.7 0.1 -0.7
v 0.7 1.9 -0.7
v -0.7 0.5 -0.8
v -0.7 0.6 -0.8
v -0.7 0.9 -0.8
v -0.7 1.1 -0.8
v -0.7 1.4 -0.8
v -0.7 1.5 -0.8
v 0.7 0.5 -0.8
v 0.7 0.6 -0.8
v 0.7 0.9 -0.8
v 0.7 1.1 -0.8
v 0.7 1.4 -0.8
v 0.7 1.5 -0.8
v -0.7 0.2 -0.9
v -0.7 0.5 -0.9
v -0.7 0.6 -0.9
v -0.7 0.9 -0.9
v -0.7 1.1 -0.9
v -0.7 1.4 -0.9
v -0.7 1.5 -0.9
v -0.7 1.8 -0.9
v 0.7 0.2 -0.9
v 0.7 0.5 -0.9
v 0.7 0.6 -0.9
v 0.7 0.9 -0.9
v 0.7 1.1 -0.9
v 0.7 1.4 -0.9
v 0.7 1.5 -0.9
v 0.7 1.8 -0.9
v -0.7 0.1 -1
v -0.7 0.2 -1
v -0.7 1.8 -1
v -0.7 1.9 -1
v 0.7 0.1 -1
v 0.7 0.2 -1
v 0.7 1.8 -1
v 0.7 1.9 -1
v -0.7 0.1 -0.7
v 0.7 0.1 -0.7
v -0.7 0.1 -1
v 0.7 0.1 -1
v -0.7 0.6 -0.8
v 0.7 0.6 -0.8
v -0.7 0.6 -0.9
v 0.7 0.6 -0.9
v -0.7 1.1 -0.8
v 0.7 1.1 -0.8
v -0.7 1.1 -0.9
v 0.7 1.1 -0.9
v -0.7 1.5 -0.8
v 0.7 1.5 -0.8
v -0.7 1.5 -0.9
v 0.7 1.5 -0.9
v -0.7 1.8 -0.9
v 0.7 1.8 -0.9
v -0.7 1.8 -1
v 0.7 1.8 -1
v -0.7 0.2 -0.9
v 0.7 0.2 -0.9
v -0.7 0.2 -1
v 0.7 0.2 -1
v -0.7 0.5 -0.8
v 0.7 0.5 -0.8
v -0.7 0.5 -0.9
v 0.7 0.5 -0.9
v -0.7 0.9 -0.8
v 0.7 0.9 -0.8
v -0.7 0.9 -0.9
v 0.7 0.9 -0.9
v -0.7 1.4 -0.8
v 0.7 1.4 -0.8
v -0.7 1.4 -0.9
v 0.7 1.4 -0.9
v -0.7 1.9 -0.7
v 0.7 1.9 -0.7
v -0.7 1.9 -1
v 0.7 1.9 -1

# faces
f 3/1/1 2/1/1 1/1/1
f 4/1/1 2/1/1 3/1/1
f 5/1/1 2/1/1 4/1/1
f 6/1/1 3/1/1 1/1/1
f 6/2/1 4/2/1 3/2/1
f 7/2/1 4/2/1 6/2/1
f 8/1/1 6/1/1 1/1/1
f 10/1/1 8/1/1 1/1/1
f 10/2/1 9/2/1 8/2/1
f 11/2/1 9/2/1 10/2/1
f 12/1/1 10/1/1 1/1/1
f 14/1/1 12/1/1 1/1/1
f 14/2/1 13/2/1 12/2/1
f 15/2/1 13/2/1 14/2/1
f 16/1/1 14/1/1 1/1/1
f 18/1/1 16/1/1 1/1/1
f 18/2/1 17/2/1 16/2/1
f 19/2/1 17/2/1 18/2/1
f 21/1/1 19/1/1 18/1/1
f 21/1/1 20/1/1 19/1/1
f 21/1/1 18/1/1 1/1/1
f 22/1/1 20/1/1 21/1/1
f 23/1/2 24/1/2 25/1/2
f 25/1/2 24/1/2 26/1/2
f 26/1/2 24/1/2 27/1/2
f 23/1/2 25/1/2 28/1/2
f 25/2/2 26/2/2 28/2/2
f 28/2/2 26/2/2 29/2/2
f 23/1/2 28/1/2 30/1/2
f 23/1/2 30/1/2 32/1/2
f 30/2/2 31/2/2 32/2/2
f 32/2/2 31/2/2 33/2/2
f 23/1/2 32/1/2 34/1/2
f 23/1/2 34/1/2 36/1/2
f 34/2/2 35/2/2 36/2/2
f 36/2/2 35/2/2 37/2/2
f 23/1/2 36/1/2 38/1/2
f 23/1/2 38/1/2 40/1/2
f 38/2/2 39/2/2 40/2/2
f 40/2/2 39/2/2 41/2/2
f 40/1/2 41/1/2 43/1/2
f 41/1/2 42/1/2 43/1/2
f 23/1/2 40/1/2 43/1/2
f 43/1/2 42/1/2 44/1/2
f 47/1/3 46/1/3 45/1/3
f 48/1/3 46/1/3 47/1/3
f 49/1/4 50/1/4 55/1/4
f 55/1/4 50/1/4 56/1/4
f 51/1/4 52/1/4 57/1/4
f 57/1/4 52/1/4 58/1/4
f 53/1/4 54/1/4 59/1/4
f 59/1/4 54/1/4 60/1/4
f 61/2/4 62/2/4 69/2/4
f 69/2/4 62/2/4 70/2/4
f 63/2/4 64/2/4 71/2/4
f 71/2/4 64/2/4 72/2/4
f 65/2/4 66/2/4 73/2/4
f 73/2/4 66/2/4 74/2/4
f 67/2/4 68/2/4 75/2/4
f 75/2/4 68/2/4 76/2/4
f 77/1/4 78/1/4 81/1/4
f 81/1/4 78/1/4 82/1/4
f 79/1/4 80/1/4 83/1/4
f 83/1/4 80/1/4 84/1/4
f 87/1/5 86/1/5 85/1/5
f 88/1/5 86/1/5 87/1/5
f 91/2/5 90/2/5 89/2/5
f 92/2/5 90/2/5 91/2/5
f 95/2/5 94/2/5 93/2/5
f 96/2/5 94/2/5 95/2/5
f 99/2/5 98/2/5 97/2/5
f 100/2/5 98/2/5 99/2/5
f 103/1/5 102/1/5 101/1/5
f 104/1/5 102/1/5 103/1/5
f 105/1/6 106/1/6 107/1/6
f 107/1/6 106/1/6 108/1/6
f 109/2/6 110/2/6 111/2/6
f 111/2/6 110/2/6 112/2/6
f 113/2/6 114/2/6 115/2/6
f 115/2/6 114/2/6 116/2/6
f 117/2/6 118/2/6 119/2/6
f 119/2/6 118/2/6 120/2/6
f 121/1/6 122/1/6 123/1/6
f 123/1/6 122/1/6 124/1/6
