# MagicaVoxel @ Ephtracy

# group
o 

# material
mtllib espada rey demonio.mtl
usemtl palette

# normals
vn -1 0 0
vn 1 0 0
vn 0 0 1
vn 0 0 -1
vn 0 -1 0
vn 0 1 0

# texcoords
vt 0.0214844 0.5
vt 0.0253906 0.5
vt 0.0292969 0.5
vt 0.0332031 0.5
vt 0.994141 0.5

# verts
v -0.2 -0.7 0
v -0.2 -0.7 -0.2
v -0.2 -0.5 0
v -0.2 -0.5 -0.2
v -0.2 0.7 0.2
v -0.2 0.7 -0.4
v -0.2 0.9 0.4
v -0.2 0.9 0.2
v -0.2 0.9 -0.4
v -0.2 0.9 -0.6
v -0.2 1.1 0.4
v -0.2 1.1 -0.6
v 0 -0.9 0
v 0 -0.9 -0.2
v 0 -0.7 0.2
v 0 -0.7 0
v 0 -0.7 -0.2
v 0 -0.7 -0.4
v 0 -0.5 0.2
v 0 -0.5 0
v 0 -0.5 -0.2
v 0 -0.5 -0.4
v 0 0.5 0.2
v 0 0.5 0
v 0 0.5 -0.2
v 0 0.5 -0.4
v 0 0.7 0.4
v 0 0.7 0.2
v 0 0.7 -0.4
v 0 0.7 -0.6
v 0 0.9 0.8
v 0 0.9 0.6
v 0 0.9 0.4
v 0 0.9 0.2
v 0 0.9 -0.4
v 0 0.9 -0.6
v 0 0.9 -0.8
v 0 0.9 -1
v 0 1.1 0.8
v 0 1.1 0.6
v 0 1.1 0.4
v 0 1.1 -0.6
v 0 1.1 -0.8
v 0 1.1 -1
v 0 1.3 0.2
v 0 1.3 0
v 0 1.3 -0.2
v 0 1.3 -0.4
v 0 1.5 0.6
v 0 1.5 0.4
v 0 1.5 -0.6
v 0 1.5 -0.8
v 0 1.7 0.6
v 0 1.7 0.4
v 0 1.7 -0.6
v 0 1.7 -0.8
v 0 2.9 0.4
v 0 2.9 0.2
v 0 2.9 -0.4
v 0 2.9 -0.6
v 0 3.1 0.2
v 0 3.1 0
v 0 3.1 -0.2
v 0 3.1 -0.4
v 0 5.3 0
v 0 5.3 -0.2
v 0 5.9 0.6
v 0 5.9 0.4
v 0 5.9 0.2
v 0 5.9 0
v 0 5.9 -0.2
v 0 5.9 -0.4
v 0 5.9 -0.6
v 0 5.9 -0.8
v 0 6.3 0.2
v 0 6.3 0
v 0 6.3 -0.2
v 0 6.3 -0.4
v 0 6.5 0.4
v 0 6.5 0.2
v 0 6.5 -0.4
v 0 6.5 -0.6
v 0 6.7 0
v 0 6.7 -0.2
v 0 6.9 0.2
v 0 6.9 0
v 0 6.9 -0.2
v 0 6.9 -0.4
v 0 7.1 0
v 0 7.1 -0.2
v 0.2 -0.9 0
v 0.2 -0.9 -0.2
v 0.2 -0.7 0.2
v 0.2 -0.7 0
v 0.2 -0.7 -0.2
v 0.2 -0.7 -0.4
v 0.2 -0.5 0.2
v 0.2 -0.5 0
v 0.2 -0.5 -0.2
v 0.2 -0.5 -0.4
v 0.2 0.5 0.2
v 0.2 0.5 0
v 0.2 0.5 -0.2
v 0.2 0.5 -0.4
v 0.2 0.7 0.4
v 0.2 0.7 0.2
v 0.2 0.7 -0.4
v 0.2 0.7 -0.6
v 0.2 0.9 0.8
v 0.2 0.9 0.6
v 0.2 0.9 0.4
v 0.2 0.9 0.2
v 0.2 0.9 -0.4
v 0.2 0.9 -0.6
v 0.2 0.9 -0.8
v 0.2 0.9 -1
v 0.2 1.1 0.8
v 0.2 1.1 0.6
v 0.2 1.1 0.4
v 0.2 1.1 -0.6
v 0.2 1.1 -0.8
v 0.2 1.1 -1
v 0.2 1.3 0.2
v 0.2 1.3 0
v 0.2 1.3 -0.2
v 0.2 1.3 -0.4
v 0.2 1.5 0.6
v 0.2 1.5 0.4
v 0.2 1.5 -0.6
v 0.2 1.5 -0.8
v 0.2 1.7 0.6
v 0.2 1.7 0.4
v 0.2 1.7 -0.6
v 0.2 1.7 -0.8
v 0.2 2.9 0.4
v 0.2 2.9 0.2
v 0.2 2.9 -0.4
v 0.2 2.9 -0.6
v 0.2 3.1 0.2
v 0.2 3.1 0
v 0.2 3.1 -0.2
v 0.2 3.1 -0.4
v 0.2 5.3 0
v 0.2 5.3 -0.2
v 0.2 5.9 0.6
v 0.2 5.9 0.4
v 0.2 5.9 0.2
v 0.2 5.9 0
v 0.2 5.9 -0.2
v 0.2 5.9 -0.4
v 0.2 5.9 -0.6
v 0.2 5.9 -0.8
v 0.2 6.3 0.2
v 0.2 6.3 0
v 0.2 6.3 -0.2
v 0.2 6.3 -0.4
v 0.2 6.5 0.4
v 0.2 6.5 0.2
v 0.2 6.5 -0.4
v 0.2 6.5 -0.6
v 0.2 6.7 0
v 0.2 6.7 -0.2
v 0.2 6.9 0.2
v 0.2 6.9 0
v 0.2 6.9 -0.2
v 0.2 6.9 -0.4
v 0.2 7.1 0
v 0.2 7.1 -0.2
v 0.4 -0.7 0
v 0.4 -0.7 -0.2
v 0.4 -0.5 0
v 0.4 -0.5 -0.2
v 0.4 0.7 0.2
v 0.4 0.7 -0.4
v 0.4 0.9 0.4
v 0.4 0.9 0.2
v 0.4 0.9 -0.4
v 0.4 0.9 -0.6
v 0.4 1.1 0.4
v 0.4 1.1 -0.6
v 0 0.9 0.8
v 0 1.1 0.8
v 0.2 0.9 0.8
v 0.2 1.1 0.8
v 0 1.5 0.6
v 0 1.7 0.6
v 0 5.9 0.6
v 0.2 1.5 0.6
v 0.2 1.7 0.6
v 0.2 5.9 0.6
v -0.2 0.9 0.4
v -0.2 1.1 0.4
v 0 0.7 0.4
v 0 0.9 0.4
v 0 1.1 0.4
v 0 1.5 0.4
v 0 5.9 0.4
v 0 6.5 0.4
v 0.2 0.7 0.4
v 0.2 0.9 0.4
v 0.2 1.1 0.4
v 0.2 1.5 0.4
v 0.2 5.9 0.4
v 0.2 6.5 0.4
v 0.4 0.9 0.4
v 0.4 1.1 0.4
v -0.2 0.7 0.2
v -0.2 0.9 0.2
v 0 -0.7 0.2
v 0 -0.5 0.2
v 0 0.5 0.2
v 0 0.7 0.2
v 0 0.9 0.2
v 0 6.5 0.2
v 0 6.9 0.2
v 0.2 -0.7 0.2
v 0.2 -0.5 0.2
v 0.2 0.5 0.2
v 0.2 0.7 0.2
v 0.2 0.9 0.2
v 0.2 6.5 0.2
v 0.2 6.9 0.2
v 0.4 0.7 0.2
v 0.4 0.9 0.2
v -0.2 -0.7 0
v -0.2 -0.5 0
v 0 -0.9 0
v 0 -0.7 0
v 0 -0.5 0
v 0 0.5 0
v 0 6.9 0
v 0 7.1 0
v 0.2 -0.9 0
v 0.2 -0.7 0
v 0.2 -0.5 0
v 0.2 0.5 0
v 0.2 6.9 0
v 0.2 7.1 0
v 0.4 -0.7 0
v 0.4 -0.5 0
v -0.2 -0.7 -0.2
v -0.2 -0.5 -0.2
v 0 -0.9 -0.2
v 0 -0.7 -0.2
v 0 -0.5 -0.2
v 0 0.5 -0.2
v 0 6.9 -0.2
v 0 7.1 -0.2
v 0.2 -0.9 -0.2
v 0.2 -0.7 -0.2
v 0.2 -0.5 -0.2
v 0.2 0.5 -0.2
v 0.2 6.9 -0.2
v 0.2 7.1 -0.2
v 0.4 -0.7 -0.2
v 0.4 -0.5 -0.2
v -0.2 0.7 -0.4
v -0.2 0.9 -0.4
v 0 -0.7 -0.4
v 0 -0.5 -0.4
v 0 0.5 -0.4
v 0 0.7 -0.4
v 0 0.9 -0.4
v 0 6.5 -0.4
v 0 6.9 -0.4
v 0.2 -0.7 -0.4
v 0.2 -0.5 -0.4
v 0.2 0.5 -0.4
v 0.2 0.7 -0.4
v 0.2 0.9 -0.4
v 0.2 6.5 -0.4
v 0.2 6.9 -0.4
v 0.4 0.7 -0.4
v 0.4 0.9 -0.4
v -0.2 0.9 -0.6
v -0.2 1.1 -0.6
v 0 0.7 -0.6
v 0 0.9 -0.6
v 0 1.1 -0.6
v 0 1.5 -0.6
v 0 5.9 -0.6
v 0 6.5 -0.6
v 0.2 0.7 -0.6
v 0.2 0.9 -0.6
v 0.2 1.1 -0.6
v 0.2 1.5 -0.6
v 0.2 5.9 -0.6
v 0.2 6.5 -0.6
v 0.4 0.9 -0.6
v 0.4 1.1 -0.6
v 0 1.5 -0.8
v 0 1.7 -0.8
v 0 5.9 -0.8
v 0.2 1.5 -0.8
v 0.2 1.7 -0.8
v 0.2 5.9 -0.8
v 0 0.9 -1
v 0 1.1 -1
v 0.2 0.9 -1
v 0.2 1.1 -1
v 0 -0.9 0
v 0.2 -0.9 0
v 0 -0.9 -0.2
v 0.2 -0.9 -0.2
v 0 -0.7 0.2
v 0.2 -0.7 0.2
v -0.2 -0.7 0
v 0 -0.7 0
v 0.2 -0.7 0
v 0.4 -0.7 0
v -0.2 -0.7 -0.2
v 0 -0.7 -0.2
v 0.2 -0.7 -0.2
v 0.4 -0.7 -0.2
v 0 -0.7 -0.4
v 0.2 -0.7 -0.4
v 0 0.5 0.2
v 0.2 0.5 0.2
v 0 0.5 0
v 0.2 0.5 0
v 0 0.5 -0.2
v 0.2 0.5 -0.2
v 0 0.5 -0.4
v 0.2 0.5 -0.4
v 0 0.7 0.4
v 0.2 0.7 0.4
v -0.2 0.7 0.2
v 0 0.7 0.2
v 0.2 0.7 0.2
v 0.4 0.7 0.2
v -0.2 0.7 -0.4
v 0 0.7 -0.4
v 0.2 0.7 -0.4
v 0.4 0.7 -0.4
v 0 0.7 -0.6
v 0.2 0.7 -0.6
v 0 0.9 0.8
v 0.2 0.9 0.8
v 0 0.9 0.6
v 0.2 0.9 0.6
v -0.2 0.9 0.4
v 0 0.9 0.4
v 0.2 0.9 0.4
v 0.4 0.9 0.4
v -0.2 0.9 0.2
v 0 0.9 0.2
v 0.2 0.9 0.2
v 0.4 0.9 0.2
v -0.2 0.9 -0.4
v 0 0.9 -0.4
v 0.2 0.9 -0.4
v 0.4 0.9 -0.4
v -0.2 0.9 -0.6
v 0 0.9 -0.6
v 0.2 0.9 -0.6
v 0.4 0.9 -0.6
v 0 0.9 -0.8
v 0.2 0.9 -0.8
v 0 0.9 -1
v 0.2 0.9 -1
v 0 1.5 0.6
v 0.2 1.5 0.6
v 0 1.5 0.4
v 0.2 1.5 0.4
v 0 1.5 -0.6
v 0.2 1.5 -0.6
v 0 1.5 -0.8
v 0.2 1.5 -0.8
v 0 -0.5 0.2
v 0.2 -0.5 0.2
v -0.2 -0.5 0
v 0 -0.5 0
v 0.2 -0.5 0
v 0.4 -0.5 0
v -0.2 -0.5 -0.2
v 0 -0.5 -0.2
v 0.2 -0.5 -0.2
v 0.4 -0.5 -0.2
v 0 -0.5 -0.4
v 0.2 -0.5 -0.4
v 0 1.1 0.8
v 0.2 1.1 0.8
v 0 1.1 0.6
v 0.2 1.1 0.6
v -0.2 1.1 0.4
v 0 1.1 0.4
v 0.2 1.1 0.4
v 0.4 1.1 0.4
v -0.2 1.1 -0.6
v 0 1.1 -0.6
v 0.2 1.1 -0.6
v 0.4 1.1 -0.6
v 0 1.1 -0.8
v 0.2 1.1 -0.8
v 0 1.1 -1
v 0.2 1.1 -1
v 0 5.9 0.6
v 0.2 5.9 0.6
v 0 5.9 0.4
v 0.2 5.9 0.4
v 0 5.9 -0.6
v 0.2 5.9 -0.6
v 0 5.9 -0.8
v 0.2 5.9 -0.8
v 0 6.5 0.4
v 0.2 6.5 0.4
v 0 6.5 0.2
v 0.2 6.5 0.2
v 0 6.5 -0.4
v 0.2 6.5 -0.4
v 0 6.5 -0.6
v 0.2 6.5 -0.6
v 0 6.9 0.2
v 0.2 6.9 0.2
v 0 6.9 0
v 0.2 6.9 0
v 0 6.9 -0.2
v 0.2 6.9 -0.2
v 0 6.9 -0.4
v 0.2 6.9 -0.4
v 0 7.1 0
v 0.2 7.1 0
v 0 7.1 -0.2
v 0.2 7.1 -0.2

# faces
f 3/1/1 2/1/1 1/1/1
f 4/1/1 2/1/1 3/1/1
f 8/1/1 6/1/1 5/1/1
f 9/1/1 6/1/1 8/1/1
f 11/1/1 8/1/1 7/1/1
f 11/1/1 10/1/1 9/1/1
f 11/1/1 9/1/1 8/1/1
f 12/1/1 10/1/1 11/1/1
f 16/2/1 14/2/1 13/2/1
f 17/2/1 14/2/1 16/2/1
f 19/1/1 16/1/1 15/1/1
f 20/1/1 16/1/1 19/1/1
f 21/1/1 18/1/1 17/1/1
f 22/1/1 18/1/1 21/1/1
f 24/1/1 21/1/1 20/1/1
f 25/1/1 21/1/1 24/1/1
f 28/1/1 24/1/1 23/1/1
f 28/1/1 26/1/1 25/1/1
f 28/1/1 25/1/1 24/1/1
f 29/1/1 26/1/1 28/1/1
f 33/1/1 28/1/1 27/1/1
f 34/1/1 28/1/1 33/1/1
f 35/1/1 30/1/1 29/1/1
f 36/1/1 30/1/1 35/1/1
f 39/2/1 32/2/1 31/2/1
f 40/1/1 33/1/1 32/1/1
f 40/2/1 32/2/1 39/2/1
f 41/1/1 33/1/1 40/1/1
f 42/1/1 37/1/1 36/1/1
f 43/2/1 38/2/1 37/2/1
f 43/1/1 37/1/1 42/1/1
f 44/2/1 38/2/1 43/2/1
f 45/1/1 42/1/1 41/1/1
f 46/1/1 42/1/1 45/1/1
f 47/1/1 42/1/1 46/1/1
f 48/1/1 42/1/1 47/1/1
f 50/1/1 45/1/1 41/1/1
f 51/1/1 42/1/1 48/1/1
f 53/1/1 50/1/1 49/1/1
f 54/1/1 45/1/1 50/1/1
f 54/1/1 50/1/1 53/1/1
f 55/1/1 52/1/1 51/1/1
f 55/1/1 51/1/1 48/1/1
f 56/1/1 52/1/1 55/1/1
f 57/1/1 45/1/1 54/1/1
f 57/2/1 54/2/1 53/2/1
f 58/3/1 46/3/1 45/3/1
f 58/1/1 45/1/1 57/1/1
f 59/3/1 48/3/1 47/3/1
f 59/1/1 55/1/1 48/1/1
f 60/2/1 56/2/1 55/2/1
f 60/1/1 55/1/1 59/1/1
f 61/3/1 46/3/1 58/3/1
f 61/3/1 58/3/1 57/3/1
f 62/1/1 47/1/1 46/1/1
f 62/3/1 46/3/1 61/3/1
f 63/3/1 59/3/1 47/3/1
f 63/1/1 47/1/1 62/1/1
f 63/3/1 60/3/1 59/3/1
f 64/3/1 60/3/1 63/3/1
f 65/4/1 62/4/1 61/4/1
f 65/1/1 63/1/1 62/1/1
f 66/4/1 64/4/1 63/4/1
f 66/1/1 63/1/1 65/1/1
f 67/2/1 57/2/1 53/2/1
f 68/3/1 61/3/1 57/3/1
f 68/2/1 57/2/1 67/2/1
f 69/4/1 65/4/1 61/4/1
f 69/3/1 61/3/1 68/3/1
f 69/4/1 66/4/1 65/4/1
f 70/4/1 66/4/1 69/4/1
f 71/4/1 64/4/1 66/4/1
f 71/4/1 66/4/1 70/4/1
f 72/3/1 60/3/1 64/3/1
f 72/4/1 64/4/1 71/4/1
f 73/2/1 56/2/1 60/2/1
f 73/3/1 60/3/1 72/3/1
f 74/2/1 56/2/1 73/2/1
f 75/3/1 70/3/1 69/3/1
f 75/2/1 69/2/1 68/2/1
f 76/4/1 71/4/1 70/4/1
f 76/3/1 70/3/1 75/3/1
f 77/3/1 72/3/1 71/3/1
f 77/4/1 71/4/1 76/4/1
f 78/2/1 73/2/1 72/2/1
f 78/3/1 72/3/1 77/3/1
f 79/2/1 76/2/1 75/2/1
f 79/2/1 75/2/1 68/2/1
f 80/2/1 76/2/1 79/2/1
f 81/2/1 73/2/1 78/2/1
f 81/2/1 78/2/1 77/2/1
f 82/2/1 73/2/1 81/2/1
f 83/2/1 76/2/1 80/2/1
f 83/3/1 77/3/1 76/3/1
f 84/2/1 81/2/1 77/2/1
f 84/3/1 77/3/1 83/3/1
f 85/2/1 83/2/1 80/2/1
f 85/2/1 84/2/1 83/2/1
f 86/2/1 84/2/1 85/2/1
f 87/2/1 81/2/1 84/2/1
f 87/2/1 84/2/1 86/2/1
f 88/2/1 81/2/1 87/2/1
f 89/2/1 87/2/1 86/2/1
f 90/2/1 87/2/1 89/2/1
f 91/2/2 92/2/2 94/2/2
f 94/2/2 92/2/2 95/2/2
f 93/1/2 94/1/2 97/1/2
f 97/1/2 94/1/2 98/1/2
f 95/1/2 96/1/2 99/1/2
f 99/1/2 96/1/2 100/1/2
f 98/1/2 99/1/2 102/1/2
f 102/1/2 99/1/2 103/1/2
f 101/1/2 102/1/2 106/1/2
f 103/1/2 104/1/2 106/1/2
f 102/1/2 103/1/2 106/1/2
f 106/1/2 104/1/2 107/1/2
f 105/1/2 106/1/2 111/1/2
f 111/1/2 106/1/2 112/1/2
f 107/1/2 108/1/2 113/1/2
f 113/1/2 108/1/2 114/1/2
f 109/2/2 110/2/2 117/2/2
f 110/1/2 111/1/2 118/1/2
f 117/2/2 110/2/2 118/2/2
f 118/1/2 111/1/2 119/1/2
f 114/1/2 115/1/2 120/1/2
f 115/2/2 116/2/2 121/2/2
f 120/1/2 115/1/2 121/1/2
f 121/2/2 116/2/2 122/2/2
f 119/1/2 120/1/2 123/1/2
f 123/1/2 120/1/2 124/1/2
f 124/1/2 120/1/2 125/1/2
f 125/1/2 120/1/2 126/1/2
f 119/1/2 123/1/2 128/1/2
f 126/1/2 120/1/2 129/1/2
f 127/1/2 128/1/2 131/1/2
f 128/1/2 123/1/2 132/1/2
f 131/1/2 128/1/2 132/1/2
f 129/1/2 130/1/2 133/1/2
f 126/1/2 129/1/2 133/1/2
f 133/1/2 130/1/2 134/1/2
f 132/1/2 123/1/2 135/1/2
f 131/2/2 132/2/2 135/2/2
f 123/3/2 124/3/2 136/3/2
f 135/1/2 123/1/2 136/1/2
f 125/3/2 126/3/2 137/3/2
f 126/1/2 133/1/2 137/1/2
f 133/2/2 134/2/2 138/2/2
f 137/1/2 133/1/2 138/1/2
f 136/3/2 124/3/2 139/3/2
f 135/3/2 136/3/2 139/3/2
f 124/1/2 125/1/2 140/1/2
f 139/3/2 124/3/2 140/3/2
f 125/3/2 137/3/2 141/3/2
f 140/1/2 125/1/2 141/1/2
f 137/3/2 138/3/2 141/3/2
f 141/3/2 138/3/2 142/3/2
f 139/4/2 140/4/2 143/4/2
f 140/1/2 141/1/2 143/1/2
f 141/4/2 142/4/2 144/4/2
f 143/1/2 141/1/2 144/1/2
f 131/2/2 135/2/2 145/2/2
f 135/3/2 139/3/2 146/3/2
f 145/2/2 135/2/2 146/2/2
f 139/4/2 143/4/2 147/4/2
f 146/3/2 139/3/2 147/3/2
f 143/4/2 144/4/2 147/4/2
f 147/4/2 144/4/2 148/4/2
f 144/4/2 142/4/2 149/4/2
f 148/4/2 144/4/2 149/4/2
f 142/3/2 138/3/2 150/3/2
f 149/4/2 142/4/2 150/4/2
f 138/2/2 134/2/2 151/2/2
f 150/3/2 138/3/2 151/3/2
f 151/2/2 134/2/2 152/2/2
f 147/3/2 148/3/2 153/3/2
f 146/2/2 147/2/2 153/2/2
f 148/4/2 149/4/2 154/4/2
f 153/3/2 148/3/2 154/3/2
f 149/3/2 150/3/2 155/3/2
f 154/4/2 149/4/2 155/4/2
f 150/2/2 151/2/2 156/2/2
f 155/3/2 150/3/2 156/3/2
f 153/2/2 154/2/2 157/2/2
f 146/2/2 153/2/2 157/2/2
f 157/2/2 154/2/2 158/2/2
f 156/2/2 151/2/2 159/2/2
f 155/2/2 156/2/2 159/2/2
f 159/2/2 151/2/2 160/2/2
f 158/2/2 154/2/2 161/2/2
f 154/3/2 155/3/2 161/3/2
f 155/2/2 159/2/2 162/2/2
f 161/3/2 155/3/2 162/3/2
f 158/2/2 161/2/2 163/2/2
f 161/2/2 162/2/2 163/2/2
f 163/2/2 162/2/2 164/2/2
f 162/2/2 159/2/2 165/2/2
f 164/2/2 162/2/2 165/2/2
f 165/2/2 159/2/2 166/2/2
f 164/2/2 165/2/2 167/2/2
f 167/2/2 165/2/2 168/2/2
f 169/1/2 170/1/2 171/1/2
f 171/1/2 170/1/2 172/1/2
f 173/1/2 174/1/2 176/1/2
f 176/1/2 174/1/2 177/1/2
f 175/1/2 176/1/2 179/1/2
f 177/1/2 178/1/2 179/1/2
f 176/1/2 177/1/2 179/1/2
f 179/1/2 178/1/2 180/1/2
f 183/2/3 182/2/3 181/2/3
f 184/2/3 182/2/3 183/2/3
f 188/1/3 186/1/3 185/1/3
f 189/2/3 187/2/3 186/2/3
f 189/1/3 186/1/3 188/1/3
f 190/2/3 187/2/3 189/2/3
f 194/1/3 192/1/3 191/1/3
f 195/1/3 192/1/3 194/1/3
f 199/1/3 194/1/3 193/1/3
f 200/1/3 194/1/3 199/1/3
f 201/1/3 196/1/3 195/1/3
f 202/1/3 196/1/3 201/1/3
f 203/2/3 198/2/3 197/2/3
f 204/2/3 198/2/3 203/2/3
f 205/1/3 201/1/3 200/1/3
f 206/1/3 201/1/3 205/1/3
f 212/1/3 208/1/3 207/1/3
f 213/1/3 208/1/3 212/1/3
f 216/1/3 210/1/3 209/1/3
f 217/1/3 210/1/3 216/1/3
f 218/1/3 212/1/3 211/1/3
f 219/1/3 212/1/3 218/1/3
f 221/2/3 215/2/3 214/2/3
f 222/2/3 215/2/3 221/2/3
f 223/1/3 220/1/3 219/1/3
f 224/1/3 220/1/3 223/1/3
f 228/1/3 226/1/3 225/1/3
f 229/1/3 226/1/3 228/1/3
f 233/2/3 228/2/3 227/2/3
f 234/2/3 228/2/3 233/2/3
f 235/1/3 230/1/3 229/1/3
f 236/1/3 230/1/3 235/1/3
f 237/2/3 232/2/3 231/2/3
f 238/2/3 232/2/3 237/2/3
f 239/1/3 235/1/3 234/1/3
f 240/1/3 235/1/3 239/1/3
f 241/1/4 242/1/4 244/1/4
f 244/1/4 242/1/4 245/1/4
f 243/2/4 244/2/4 249/2/4
f 249/2/4 244/2/4 250/2/4
f 245/1/4 246/1/4 251/1/4
f 251/1/4 246/1/4 252/1/4
f 247/2/4 248/2/4 253/2/4
f 253/2/4 248/2/4 254/2/4
f 250/1/4 251/1/4 255/1/4
f 255/1/4 251/1/4 256/1/4
f 257/1/4 258/1/4 262/1/4
f 262/1/4 258/1/4 263/1/4
f 259/1/4 260/1/4 266/1/4
f 266/1/4 260/1/4 267/1/4
f 261/1/4 262/1/4 268/1/4
f 268/1/4 262/1/4 269/1/4
f 264/2/4 265/2/4 271/2/4
f 271/2/4 265/2/4 272/2/4
f 269/1/4 270/1/4 273/1/4
f 273/1/4 270/1/4 274/1/4
f 275/1/4 276/1/4 278/1/4
f 278/1/4 276/1/4 279/1/4
f 277/1/4 278/1/4 283/1/4
f 283/1/4 278/1/4 284/1/4
f 279/1/4 280/1/4 285/1/4
f 285/1/4 280/1/4 286/1/4
f 281/2/4 282/2/4 287/2/4
f 287/2/4 282/2/4 288/2/4
f 284/1/4 285/1/4 289/1/4
f 289/1/4 285/1/4 290/1/4
f 291/1/4 292/1/4 294/1/4
f 292/2/4 293/2/4 295/2/4
f 294/1/4 292/1/4 295/1/4
f 295/2/4 293/2/4 296/2/4
f 297/2/4 298/2/4 299/2/4
f 299/2/4 298/2/4 300/2/4
f 303/2/5 302/2/5 301/2/5
f 304/2/5 302/2/5 303/2/5
f 308/1/5 306/1/5 305/1/5
f 309/1/5 306/1/5 308/1/5
f 311/1/5 308/1/5 307/1/5
f 312/1/5 308/1/5 311/1/5
f 313/1/5 310/1/5 309/1/5
f 314/1/5 310/1/5 313/1/5
f 315/1/5 313/1/5 312/1/5
f 316/1/5 313/1/5 315/1/5
f 319/1/5 318/1/5 317/1/5
f 320/1/5 318/1/5 319/1/5
f 323/1/5 322/1/5 321/1/5
f 324/1/5 322/1/5 323/1/5
f 328/1/5 326/1/5 325/1/5
f 329/1/5 326/1/5 328/1/5
f 331/1/5 328/1/5 327/1/5
f 332/1/5 328/1/5 331/1/5
f 333/1/5 330/1/5 329/1/5
f 334/1/5 330/1/5 333/1/5
f 335/1/5 333/1/5 332/1/5
f 336/1/5 333/1/5 335/1/5
f 339/2/5 338/2/5 337/2/5
f 340/2/5 338/2/5 339/2/5
f 342/1/5 340/1/5 339/1/5
f 343/1/5 340/1/5 342/1/5
f 345/1/5 342/1/5 341/1/5
f 346/1/5 342/1/5 345/1/5
f 347/1/5 344/1/5 343/1/5
f 348/1/5 344/1/5 347/1/5
f 353/1/5 350/1/5 349/1/5
f 354/1/5 350/1/5 353/1/5
f 355/1/5 352/1/5 351/1/5
f 356/1/5 352/1/5 355/1/5
f 357/1/5 355/1/5 354/1/5
f 358/1/5 355/1/5 357/1/5
f 359/2/5 358/2/5 357/2/5
f 360/2/5 358/2/5 359/2/5
f 363/1/5 362/1/5 361/1/5
f 364/1/5 362/1/5 363/1/5
f 367/1/5 366/1/5 365/1/5
f 368/1/5 366/1/5 367/1/5
f 369/1/6 370/1/6 372/1/6
f 372/1/6 370/1/6 373/1/6
f 371/1/6 372/1/6 375/1/6
f 375/1/6 372/1/6 376/1/6
f 373/1/6 374/1/6 377/1/6
f 377/1/6 374/1/6 378/1/6
f 376/1/6 377/1/6 379/1/6
f 379/1/6 377/1/6 380/1/6
f 381/2/6 382/2/6 383/2/6
f 383/2/6 382/2/6 384/2/6
f 383/1/6 384/1/6 386/1/6
f 386/1/6 384/1/6 387/1/6
f 385/1/6 386/1/6 389/1/6
f 389/1/6 386/1/6 390/1/6
f 387/1/6 388/1/6 391/1/6
f 391/1/6 388/1/6 392/1/6
f 390/1/6 391/1/6 393/1/6
f 393/1/6 391/1/6 394/1/6
f 393/2/6 394/2/6 395/2/6
f 395/2/6 394/2/6 396/2/6
f 397/2/6 398/2/6 399/2/6
f 399/2/6 398/2/6 400/2/6
f 401/2/6 402/2/6 403/2/6
f 403/2/6 402/2/6 404/2/6
f 405/2/6 406/2/6 407/2/6
f 407/2/6 406/2/6 408/2/6
f 409/2/6 410/2/6 411/2/6
f 411/2/6 410/2/6 412/2/6
f 413/2/6 414/2/6 415/2/6
f 415/2/6 414/2/6 416/2/6
f 417/2/6 418/2/6 419/2/6
f 419/2/6 418/2/6 420/2/6
f 421/2/6 422/2/6 423/2/6
f 423/2/6 422/2/6 424/2/6
