# MagicaVoxel @ Ephtracy

# group
o 

# material
mtllib GreySword.mtl
usemtl palette

# normals
vn -1 0 0
vn 1 0 0
vn 0 0 1
vn 0 0 -1
vn 0 -1 0
vn 0 1 0

# texcoords
vt 0.00585938 0.5
vt 0.00976563 0.5
vt 0.0136719 0.5
vt 0.0214844 0.5
vt 0.0371094 0.5
vt 0.0566406 0.5
vt 0.994141 0.5

# verts
v -0.4 0.5 0
v -0.4 0.5 -0.1
v -0.4 0.6 0
v -0.4 0.6 -0.1
v -0.3 0.4 0
v -0.3 0.4 -0.1
v -0.3 0.5 0
v -0.3 0.5 -0.1
v -0.2 0.3 0
v -0.2 0.3 -0.1
v -0.2 0.4 0.1
v -0.2 0.4 0
v -0.2 0.4 -0.1
v -0.2 0.4 -0.2
v -0.2 0.5 0.1
v -0.2 0.5 0
v -0.2 0.5 -0.1
v -0.2 0.5 -0.2
v -0.2 0.6 0
v -0.2 0.6 -0.1
v -0.2 2.4 0
v -0.2 2.4 -0.1
v -0.1 -0.3 0
v -0.1 -0.3 -0.1
v -0.1 -0.2 0
v -0.1 -0.2 -0.1
v -0.1 -0.1 0
v -0.1 -0.1 -0.1
v -0.1 0 0
v -0.1 0 -0.1
v -0.1 0.1 0
v -0.1 0.1 -0.1
v -0.1 0.2 0
v -0.1 0.2 -0.1
v -0.1 0.3 0.1
v -0.1 0.3 0
v -0.1 0.3 -0.1
v -0.1 0.3 -0.2
v -0.1 0.4 0.1
v -0.1 0.4 0
v -0.1 0.4 -0.1
v -0.1 0.4 -0.2
v -0.1 0.5 0.1
v -0.1 0.5 0
v -0.1 0.5 -0.1
v -0.1 0.5 -0.2
v -0.1 0.6 0.1
v -0.1 0.6 0
v -0.1 0.6 -0.1
v -0.1 0.6 -0.2
v -0.1 0.7 0.1
v -0.1 0.7 0
v -0.1 0.7 -0.1
v -0.1 0.7 -0.2
v -0.1 2.4 0
v -0.1 2.4 -0.1
v -0.1 2.5 0
v -0.1 2.5 -0.1
v 0.2 0.5 0
v 0.2 0.5 -0.1
v 0.2 0.6 0
v 0.2 0.6 -0.1
v -0.3 0.5 0
v -0.3 0.5 -0.1
v -0.3 0.6 0
v -0.3 0.6 -0.1
v 0 -0.3 0
v 0 -0.3 -0.1
v 0 -0.2 0
v 0 -0.2 -0.1
v 0 -0.1 0
v 0 -0.1 -0.1
v 0 0 0
v 0 0 -0.1
v 0 0.1 0
v 0 0.1 -0.1
v 0 0.2 0
v 0 0.2 -0.1
v 0 0.3 0.1
v 0 0.3 0
v 0 0.3 -0.1
v 0 0.3 -0.2
v 0 0.4 0.1
v 0 0.4 0
v 0 0.4 -0.1
v 0 0.4 -0.2
v 0 0.5 0.1
v 0 0.5 0
v 0 0.5 -0.1
v 0 0.5 -0.2
v 0 0.6 0.1
v 0 0.6 0
v 0 0.6 -0.1
v 0 0.6 -0.2
v 0 0.7 0.1
v 0 0.7 0
v 0 0.7 -0.1
v 0 0.7 -0.2
v 0 2.4 0
v 0 2.4 -0.1
v 0 2.5 0
v 0 2.5 -0.1
v 0.1 0.3 0
v 0.1 0.3 -0.1
v 0.1 0.4 0.1
v 0.1 0.4 0
v 0.1 0.4 -0.1
v 0.1 0.4 -0.2
v 0.1 0.5 0.1
v 0.1 0.5 0
v 0.1 0.5 -0.1
v 0.1 0.5 -0.2
v 0.1 0.6 0
v 0.1 0.6 -0.1
v 0.1 2.4 0
v 0.1 2.4 -0.1
v 0.2 0.4 0
v 0.2 0.4 -0.1
v 0.2 0.5 0
v 0.2 0.5 -0.1
v 0.3 0.5 0
v 0.3 0.5 -0.1
v 0.3 0.6 0
v 0.3 0.6 -0.1
v -0.2 0.4 0.1
v -0.2 0.5 0.1
v -0.1 0.3 0.1
v -0.1 0.4 0.1
v -0.1 0.5 0.1
v -0.1 0.6 0.1
v -0.1 0.7 0.1
v 0 0.3 0.1
v 0 0.4 0.1
v 0 0.5 0.1
v 0 0.6 0.1
v 0 0.7 0.1
v 0.1 0.4 0.1
v 0.1 0.5 0.1
v -0.4 0.5 0
v -0.4 0.6 0
v -0.3 0.4 0
v -0.3 0.5 0
v -0.3 0.6 0
v -0.2 0.3 0
v -0.2 0.4 0
v -0.2 0.5 0
v -0.2 0.6 0
v -0.2 2.4 0
v -0.1 -0.3 0
v -0.1 -0.2 0
v -0.1 -0.1 0
v -0.1 0 0
v -0.1 0.1 0
v -0.1 0.2 0
v -0.1 0.3 0
v -0.1 0.4 0
v -0.1 0.5 0
v -0.1 0.6 0
v -0.1 0.7 0
v -0.1 2.4 0
v -0.1 2.5 0
v 0 -0.3 0
v 0 -0.2 0
v 0 -0.1 0
v 0 0 0
v 0 0.1 0
v 0 0.2 0
v 0 0.3 0
v 0 0.4 0
v 0 0.5 0
v 0 0.6 0
v 0 0.7 0
v 0 2.4 0
v 0 2.5 0
v 0.1 0.3 0
v 0.1 0.4 0
v 0.1 0.5 0
v 0.1 0.6 0
v 0.1 2.4 0
v 0.2 0.4 0
v 0.2 0.5 0
v 0.2 0.6 0
v 0.3 0.5 0
v 0.3 0.6 0
v -0.4 0.5 -0.1
v -0.4 0.6 -0.1
v -0.3 0.4 -0.1
v -0.3 0.5 -0.1
v -0.3 0.6 -0.1
v -0.2 0.3 -0.1
v -0.2 0.4 -0.1
v -0.2 0.5 -0.1
v -0.2 0.6 -0.1
v -0.2 2.4 -0.1
v -0.1 -0.3 -0.1
v -0.1 -0.2 -0.1
v -0.1 -0.1 -0.1
v -0.1 0 -0.1
v -0.1 0.1 -0.1
v -0.1 0.2 -0.1
v -0.1 0.3 -0.1
v -0.1 0.4 -0.1
v -0.1 0.5 -0.1
v -0.1 0.6 -0.1
v -0.1 0.7 -0.1
v -0.1 2.4 -0.1
v -0.1 2.5 -0.1
v 0 -0.3 -0.1
v 0 -0.2 -0.1
v 0 -0.1 -0.1
v 0 0 -0.1
v 0 0.1 -0.1
v 0 0.2 -0.1
v 0 0.3 -0.1
v 0 0.4 -0.1
v 0 0.5 -0.1
v 0 0.6 -0.1
v 0 0.7 -0.1
v 0 2.4 -0.1
v 0 2.5 -0.1
v 0.1 0.3 -0.1
v 0.1 0.4 -0.1
v 0.1 0.5 -0.1
v 0.1 0.6 -0.1
v 0.1 2.4 -0.1
v 0.2 0.4 -0.1
v 0.2 0.5 -0.1
v 0.2 0.6 -0.1
v 0.3 0.5 -0.1
v 0.3 0.6 -0.1
v -0.2 0.4 -0.2
v -0.2 0.5 -0.2
v -0.1 0.3 -0.2
v -0.1 0.4 -0.2
v -0.1 0.5 -0.2
v -0.1 0.6 -0.2
v -0.1 0.7 -0.2
v 0 0.3 -0.2
v 0 0.4 -0.2
v 0 0.5 -0.2
v 0 0.6 -0.2
v 0 0.7 -0.2
v 0.1 0.4 -0.2
v 0.1 0.5 -0.2
v -0.1 -0.3 0
v 0 -0.3 0
v -0.1 -0.3 -0.1
v 0 -0.3 -0.1
v -0.1 0.3 0.1
v 0 0.3 0.1
v -0.2 0.3 0
v -0.1 0.3 0
v 0 0.3 0
v 0.1 0.3 0
v -0.2 0.3 -0.1
v -0.1 0.3 -0.1
v 0 0.3 -0.1
v 0.1 0.3 -0.1
v -0.1 0.3 -0.2
v 0 0.3 -0.2
v -0.2 0.4 0.1
v -0.1 0.4 0.1
v 0 0.4 0.1
v 0.1 0.4 0.1
v -0.3 0.4 0
v -0.2 0.4 0
v -0.1 0.4 0
v 0 0.4 0
v 0.1 0.4 0
v 0.2 0.4 0
v -0.3 0.4 -0.1
v -0.2 0.4 -0.1
v -0.1 0.4 -0.1
v 0 0.4 -0.1
v 0.1 0.4 -0.1
v 0.2 0.4 -0.1
v -0.2 0.4 -0.2
v -0.1 0.4 -0.2
v 0 0.4 -0.2
v 0.1 0.4 -0.2
v -0.4 0.5 0
v -0.3 0.5 0
v 0.2 0.5 0
v 0.3 0.5 0
v -0.4 0.5 -0.1
v -0.3 0.5 -0.1
v 0.2 0.5 -0.1
v 0.3 0.5 -0.1
v -0.2 0.5 0.1
v -0.1 0.5 0.1
v 0 0.5 0.1
v 0.1 0.5 0.1
v -0.3 0.5 0
v -0.2 0.5 0
v -0.1 0.5 0
v 0 0.5 0
v 0.1 0.5 0
v 0.2 0.5 0
v -0.3 0.5 -0.1
v -0.2 0.5 -0.1
v -0.1 0.5 -0.1
v 0 0.5 -0.1
v 0.1 0.5 -0.1
v 0.2 0.5 -0.1
v -0.2 0.5 -0.2
v -0.1 0.5 -0.2
v 0 0.5 -0.2
v 0.1 0.5 -0.2
v -0.4 0.6 0
v -0.3 0.6 0
v 0.2 0.6 0
v 0.3 0.6 0
v -0.4 0.6 -0.1
v -0.3 0.6 -0.1
v 0.2 0.6 -0.1
v 0.3 0.6 -0.1
v -0.1 0.7 0.1
v 0 0.7 0.1
v -0.1 0.7 0
v 0 0.7 0
v -0.1 0.7 -0.1
v 0 0.7 -0.1
v -0.1 0.7 -0.2
v 0 0.7 -0.2
v -0.2 2.4 0
v -0.1 2.4 0
v 0 2.4 0
v 0.1 2.4 0
v -0.2 2.4 -0.1
v -0.1 2.4 -0.1
v 0 2.4 -0.1
v 0.1 2.4 -0.1
v -0.1 2.5 0
v 0 2.5 0
v -0.1 2.5 -0.1
v 0 2.5 -0.1

# faces
f 3/2/1 2/2/1 1/2/1
f 4/2/1 2/2/1 3/2/1
f 7/4/1 6/4/1 5/4/1
f 8/4/1 6/4/1 7/4/1
f 12/5/1 10/5/1 9/5/1
f 13/5/1 10/5/1 12/5/1
f 15/4/1 12/4/1 11/4/1
f 16/4/1 12/4/1 15/4/1
f 17/4/1 14/4/1 13/4/1
f 18/4/1 14/4/1 17/4/1
f 19/2/1 17/2/1 16/2/1
f 20/2/1 17/2/1 19/2/1
f 21/1/1 20/1/1 19/1/1
f 22/1/1 20/1/1 21/1/1
f 25/5/1 24/5/1 23/5/1
f 26/5/1 24/5/1 25/5/1
f 27/4/1 26/4/1 25/4/1
f 28/4/1 26/4/1 27/4/1
f 29/5/1 28/5/1 27/5/1
f 30/5/1 28/5/1 29/5/1
f 31/4/1 30/4/1 29/4/1
f 32/4/1 30/4/1 31/4/1
f 33/5/1 32/5/1 31/5/1
f 34/5/1 32/5/1 33/5/1
f 36/4/1 34/4/1 33/4/1
f 37/4/1 34/4/1 36/4/1
f 39/4/1 36/4/1 35/4/1
f 40/4/1 36/4/1 39/4/1
f 41/4/1 38/4/1 37/4/1
f 42/4/1 38/4/1 41/4/1
f 47/4/1 44/4/1 43/4/1
f 48/4/1 44/4/1 47/4/1
f 49/4/1 46/4/1 45/4/1
f 50/4/1 46/4/1 49/4/1
f 51/2/1 48/2/1 47/2/1
f 52/2/1 48/2/1 51/2/1
f 53/2/1 50/2/1 49/2/1
f 54/2/1 50/2/1 53/2/1
f 57/1/1 56/1/1 55/1/1
f 58/1/1 56/1/1 57/1/1
f 61/2/1 60/2/1 59/2/1
f 62/2/1 60/2/1 61/2/1
f 63/2/2 64/2/2 65/2/2
f 65/2/2 64/2/2 66/2/2
f 67/5/2 68/5/2 69/5/2
f 69/5/2 68/5/2 70/5/2
f 69/4/2 70/4/2 71/4/2
f 71/4/2 70/4/2 72/4/2
f 71/5/2 72/5/2 73/5/2
f 73/5/2 72/5/2 74/5/2
f 73/4/2 74/4/2 75/4/2
f 75/4/2 74/4/2 76/4/2
f 75/5/2 76/5/2 77/5/2
f 77/5/2 76/5/2 78/5/2
f 77/4/2 78/4/2 80/4/2
f 80/4/2 78/4/2 81/4/2
f 79/4/2 80/4/2 83/4/2
f 83/4/2 80/4/2 84/4/2
f 81/4/2 82/4/2 85/4/2
f 85/4/2 82/4/2 86/4/2
f 87/4/2 88/4/2 91/4/2
f 91/4/2 88/4/2 92/4/2
f 89/4/2 90/4/2 93/4/2
f 93/4/2 90/4/2 94/4/2
f 91/2/2 92/2/2 95/2/2
f 95/2/2 92/2/2 96/2/2
f 93/2/2 94/2/2 97/2/2
f 97/2/2 94/2/2 98/2/2
f 99/1/2 100/1/2 101/1/2
f 101/1/2 100/1/2 102/1/2
f 103/5/2 104/5/2 106/5/2
f 106/5/2 104/5/2 107/5/2
f 105/4/2 106/4/2 109/4/2
f 109/4/2 106/4/2 110/4/2
f 107/4/2 108/4/2 111/4/2
f 111/4/2 108/4/2 112/4/2
f 110/2/2 111/2/2 113/2/2
f 113/2/2 111/2/2 114/2/2
f 113/1/2 114/1/2 115/1/2
f 115/1/2 114/1/2 116/1/2
f 117/4/2 118/4/2 119/4/2
f 119/4/2 118/4/2 120/4/2
f 121/2/2 122/2/2 123/2/2
f 123/2/2 122/2/2 124/2/2
f 128/4/3 126/4/3 125/4/3
f 129/4/3 126/4/3 128/4/3
f 132/4/3 128/4/3 127/4/3
f 133/3/3 129/3/3 128/3/3
f 133/4/3 128/4/3 132/4/3
f 134/4/3 130/4/3 129/4/3
f 134/3/3 129/3/3 133/3/3
f 135/2/3 131/2/3 130/2/3
f 135/4/3 130/4/3 134/4/3
f 136/2/3 131/2/3 135/2/3
f 137/4/3 134/4/3 133/4/3
f 138/4/3 134/4/3 137/4/3
f 142/2/3 140/2/3 139/2/3
f 143/2/3 140/2/3 142/2/3
f 145/4/3 142/4/3 141/4/3
f 146/4/3 142/4/3 145/4/3
f 155/5/3 145/5/3 144/5/3
f 156/5/3 145/5/3 155/5/3
f 157/2/3 147/2/3 146/2/3
f 158/1/3 148/1/3 147/1/3
f 158/2/3 147/2/3 157/2/3
f 159/1/3 148/1/3 158/1/3
f 160/1/3 148/1/3 159/1/3
f 162/5/3 150/5/3 149/5/3
f 163/4/3 151/4/3 150/4/3
f 163/5/3 150/5/3 162/5/3
f 164/5/3 152/5/3 151/5/3
f 164/4/3 151/4/3 163/4/3
f 165/4/3 153/4/3 152/4/3
f 165/5/3 152/5/3 164/5/3
f 166/5/3 154/5/3 153/5/3
f 166/4/3 153/4/3 165/4/3
f 167/4/3 155/4/3 154/4/3
f 167/5/3 154/5/3 166/5/3
f 168/4/3 155/4/3 167/4/3
f 172/6/3 160/6/3 159/6/3
f 173/1/3 161/1/3 160/1/3
f 173/6/3 160/6/3 172/6/3
f 174/1/3 161/1/3 173/1/3
f 175/5/3 169/5/3 168/5/3
f 176/5/3 169/5/3 175/5/3
f 177/2/3 171/2/3 170/2/3
f 178/1/3 172/1/3 171/1/3
f 178/1/3 173/1/3 172/1/3
f 178/2/3 171/2/3 177/2/3
f 179/1/3 173/1/3 178/1/3
f 180/4/3 177/4/3 176/4/3
f 181/4/3 177/4/3 180/4/3
f 183/2/3 182/2/3 181/2/3
f 184/2/3 182/2/3 183/2/3
f 185/2/4 186/2/4 188/2/4
f 188/2/4 186/2/4 189/2/4
f 187/4/4 188/4/4 191/4/4
f 191/4/4 188/4/4 192/4/4
f 190/5/4 191/5/4 201/5/4
f 201/5/4 191/5/4 202/5/4
f 192/2/4 193/2/4 203/2/4
f 193/1/4 194/1/4 204/1/4
f 203/2/4 193/2/4 204/2/4
f 204/1/4 194/1/4 205/1/4
f 205/1/4 194/1/4 206/1/4
f 195/5/4 196/5/4 208/5/4
f 196/4/4 197/4/4 209/4/4
f 208/5/4 196/5/4 209/5/4
f 197/5/4 198/5/4 210/5/4
f 209/4/4 197/4/4 210/4/4
f 198/4/4 199/4/4 211/4/4
f 210/5/4 198/5/4 211/5/4
f 199/5/4 200/5/4 212/5/4
f 211/4/4 199/4/4 212/4/4
f 200/4/4 201/4/4 213/4/4
f 212/5/4 200/5/4 213/5/4
f 213/4/4 201/4/4 214/4/4
f 205/6/4 206/6/4 218/6/4
f 206/1/4 207/1/4 219/1/4
f 218/6/4 206/6/4 219/6/4
f 219/1/4 207/1/4 220/1/4
f 214/5/4 215/5/4 221/5/4
f 221/5/4 215/5/4 222/5/4
f 216/2/4 217/2/4 223/2/4
f 217/1/4 218/1/4 224/1/4
f 218/1/4 219/1/4 224/1/4
f 223/2/4 217/2/4 224/2/4
f 224/1/4 219/1/4 225/1/4
f 222/4/4 223/4/4 226/4/4
f 226/4/4 223/4/4 227/4/4
f 227/2/4 228/2/4 229/2/4
f 229/2/4 228/2/4 230/2/4
f 231/4/4 232/4/4 234/4/4
f 234/4/4 232/4/4 235/4/4
f 233/4/4 234/4/4 238/4/4
f 234/3/4 235/3/4 239/3/4
f 238/4/4 234/4/4 239/4/4
f 235/4/4 236/4/4 240/4/4
f 239/3/4 235/3/4 240/3/4
f 236/2/4 237/2/4 241/2/4
f 240/4/4 236/4/4 241/4/4
f 241/2/4 237/2/4 242/2/4
f 239/4/4 240/4/4 243/4/4
f 243/4/4 240/4/4 244/4/4
f 247/5/5 246/5/5 245/5/5
f 248/5/5 246/5/5 247/5/5
f 252/4/5 250/4/5 249/4/5
f 253/4/5 250/4/5 252/4/5
f 255/5/5 252/5/5 251/5/5
f 256/5/5 252/5/5 255/5/5
f 257/5/5 254/5/5 253/5/5
f 258/5/5 254/5/5 257/5/5
f 259/4/5 257/4/5 256/4/5
f 260/4/5 257/4/5 259/4/5
f 266/4/5 262/4/5 261/4/5
f 267/4/5 262/4/5 266/4/5
f 268/4/5 264/4/5 263/4/5
f 269/4/5 264/4/5 268/4/5
f 271/4/5 266/4/5 265/4/5
f 272/4/5 266/4/5 271/4/5
f 275/4/5 270/4/5 269/4/5
f 276/4/5 270/4/5 275/4/5
f 277/4/5 273/4/5 272/4/5
f 278/4/5 273/4/5 277/4/5
f 279/4/5 275/4/5 274/4/5
f 280/4/5 275/4/5 279/4/5
f 285/2/5 282/2/5 281/2/5
f 286/2/5 282/2/5 285/2/5
f 287/2/5 284/2/5 283/2/5
f 288/2/5 284/2/5 287/2/5
f 289/4/6 290/4/6 294/4/6
f 294/4/6 290/4/6 295/4/6
f 291/4/6 292/4/6 296/4/6
f 296/4/6 292/4/6 297/4/6
f 293/4/6 294/4/6 299/4/6
f 299/4/6 294/4/6 300/4/6
f 297/4/6 298/4/6 303/4/6
f 303/4/6 298/4/6 304/4/6
f 300/4/6 301/4/6 305/4/6
f 305/4/6 301/4/6 306/4/6
f 302/4/6 303/4/6 307/4/6
f 307/4/6 303/4/6 308/4/6
f 309/2/6 310/2/6 313/2/6
f 313/2/6 310/2/6 314/2/6
f 311/2/6 312/2/6 315/2/6
f 315/2/6 312/2/6 316/2/6
f 317/2/6 318/2/6 319/2/6
f 319/2/6 318/2/6 320/2/6
f 321/2/6 322/2/6 323/2/6
f 323/2/6 322/2/6 324/2/6
f 325/1/6 326/1/6 329/1/6
f 329/1/6 326/1/6 330/1/6
f 327/1/6 328/1/6 331/1/6
f 331/1/6 328/1/6 332/1/6
f 333/1/6 334/1/6 335/1/6
f 335/1/6 334/1/6 336/1/6
