# MagicaVoxel @ Ephtracy

# group
o 

# material
mtllib Lanza.mtl
usemtl palette

# normals
vn -1 0 0
vn 1 0 0
vn 0 0 1
vn 0 0 -1
vn 0 -1 0
vn 0 1 0

# texcoords
vt 0.00195313 0.5
vt 0.00585938 0.5
vt 0.00976563 0.5
vt 0.0371094 0.5
vt 0.0410156 0.5
vt 0.0449219 0.5
vt 0.0566406 0.5
vt 0.955078 0.5
vt 0.974609 0.5

# verts
v -0.2 -2.3 0.1
v -0.2 -2.3 -0.2
v -0.2 -2.2 0
v -0.2 -2.2 -0.1
v -0.2 -2.1 0
v -0.2 -2.1 -0.1
v -0.2 -2 0.1
v -0.2 -2 -0.2
v -0.2 2.4 0.1
v -0.2 2.4 -0.2
v -0.2 2.5 0
v -0.2 2.5 -0.1
v -0.2 2.6 0
v -0.2 2.6 -0.1
v -0.2 2.8 0
v -0.2 2.8 -0.1
v -0.2 2.9 0.2
v -0.2 2.9 0.1
v -0.2 2.9 -0.2
v -0.2 2.9 -0.3
v -0.2 3 0.2
v -0.2 3 0
v -0.2 3 -0.1
v -0.2 3 -0.3
v -0.1 -2 0
v -0.1 -2 -0.1
v -0.1 -1.2 0
v -0.1 -1.2 -0.1
v -0.1 -0.7 0
v -0.1 -0.7 -0.1
v -0.1 -0.6 0
v -0.1 -0.6 -0.1
v -0.1 2.38419e-07 0
v -0.1 2.38419e-07 -0.1
v -0.1 0.6 0
v -0.1 0.6 -0.1
v -0.1 1.1 0
v -0.1 1.1 -0.1
v -0.1 1.2 0
v -0.1 1.2 -0.1
v -0.1 1.8 0
v -0.1 1.8 -0.1
v -0.1 2.4 0
v -0.1 2.4 -0.1
v -0.1 2.7 0.2
v -0.1 2.7 0.1
v -0.1 2.7 -0.2
v -0.1 2.7 -0.3
v -0.1 2.8 0.3
v -0.1 2.8 0.2
v -0.1 2.8 0.1
v -0.1 2.8 0
v -0.1 2.8 -0.1
v -0.1 2.8 -0.2
v -0.1 2.8 -0.3
v -0.1 2.8 -0.4
v -0.1 2.9 0.2
v -0.1 2.9 0.1
v -0.1 2.9 -0.2
v -0.1 2.9 -0.3
v -0.1 3 0.2
v -0.1 3 0
v -0.1 3 -0.1
v -0.1 3 -0.3
v -0.1 3.1 0.3
v -0.1 3.1 0.2
v -0.1 3.1 0.1
v -0.1 3.1 -0.2
v -0.1 3.1 -0.3
v -0.1 3.1 -0.4
v -0.1 3.3 0.2
v -0.1 3.3 0.1
v -0.1 3.3 0
v -0.1 3.3 -0.1
v -0.1 3.3 -0.2
v -0.1 3.3 -0.3
v -0.1 3.6 0.1
v -0.1 3.6 0
v -0.1 3.6 -0.1
v -0.1 3.6 -0.2
v -0.1 3.7 0
v -0.1 3.7 -0.1
v 0 2.5 0.1
v 0 2.5 0
v 0 2.5 -0.1
v 0 2.5 -0.2
v 0 2.6 0
v 0 2.6 -0.1
v 0 2.7 0.1
v 0 2.7 -0.2
v -0.1 2.5 0.1
v -0.1 2.5 0
v -0.1 2.5 -0.1
v -0.1 2.5 -0.2
v -0.1 2.6 0
v -0.1 2.6 -0.1
v -0.1 2.7 0.1
v -0.1 2.7 -0.2
v 0 -2 0
v 0 -2 -0.1
v 0 -1.2 0
v 0 -1.2 -0.1
v 0 -0.7 0
v 0 -0.7 -0.1
v 0 -0.6 0
v 0 -0.6 -0.1
v 0 2.38419e-07 0
v 0 2.38419e-07 -0.1
v 0 0.6 0
v 0 0.6 -0.1
v 0 1.1 0
v 0 1.1 -0.1
v 0 1.2 0
v 0 1.2 -0.1
v 0 1.8 0
v 0 1.8 -0.1
v 0 2.4 0
v 0 2.4 -0.1
v 0 2.7 0.2
v 0 2.7 0.1
v 0 2.7 -0.2
v 0 2.7 -0.3
v 0 2.8 0.3
v 0 2.8 0.2
v 0 2.8 0.1
v 0 2.8 0
v 0 2.8 -0.1
v 0 2.8 -0.2
v 0 2.8 -0.3
v 0 2.8 -0.4
v 0 2.9 0.2
v 0 2.9 0.1
v 0 2.9 -0.2
v 0 2.9 -0.3
v 0 3 0.2
v 0 3 0
v 0 3 -0.1
v 0 3 -0.3
v 0 3.1 0.3
v 0 3.1 0.2
v 0 3.1 0.1
v 0 3.1 -0.2
v 0 3.1 -0.3
v 0 3.1 -0.4
v 0 3.3 0.2
v 0 3.3 0.1
v 0 3.3 0
v 0 3.3 -0.1
v 0 3.3 -0.2
v 0 3.3 -0.3
v 0 3.6 0.1
v 0 3.6 0
v 0 3.6 -0.1
v 0 3.6 -0.2
v 0 3.7 0
v 0 3.7 -0.1
v 0.1 -2.3 0.1
v 0.1 -2.3 -0.2
v 0.1 -2.2 0
v 0.1 -2.2 -0.1
v 0.1 -2.1 0
v 0.1 -2.1 -0.1
v 0.1 -2 0.1
v 0.1 -2 -0.2
v 0.1 2.4 0.1
v 0.1 2.4 -0.2
v 0.1 2.5 0
v 0.1 2.5 -0.1
v 0.1 2.6 0
v 0.1 2.6 -0.1
v 0.1 2.8 0
v 0.1 2.8 -0.1
v 0.1 2.9 0.2
v 0.1 2.9 0.1
v 0.1 2.9 -0.2
v 0.1 2.9 -0.3
v 0.1 3 0.2
v 0.1 3 0
v 0.1 3 -0.1
v 0.1 3 -0.3
v -0.1 2.8 0.3
v -0.1 3.1 0.3
v 0 2.8 0.3
v 0 3.1 0.3
v -0.2 2.9 0.2
v -0.2 3 0.2
v -0.1 2.7 0.2
v -0.1 2.8 0.2
v -0.1 2.9 0.2
v -0.1 3 0.2
v -0.1 3.1 0.2
v -0.1 3.3 0.2
v 0 2.7 0.2
v 0 2.8 0.2
v 0 2.9 0.2
v 0 3 0.2
v 0 3.1 0.2
v 0 3.3 0.2
v 0.1 2.9 0.2
v 0.1 3 0.2
v -0.2 -2.3 0.1
v -0.2 -2 0.1
v -0.2 2.4 0.1
v -0.2 2.9 0.1
v -0.1 -2.2 0.1
v -0.1 -2.1 0.1
v -0.1 2.5 0.1
v -0.1 2.7 0.1
v -0.1 2.8 0.1
v -0.1 2.9 0.1
v -0.1 3.3 0.1
v -0.1 3.6 0.1
v 0 -2.2 0.1
v 0 -2.1 0.1
v 0 2.5 0.1
v 0 2.7 0.1
v 0 2.8 0.1
v 0 2.9 0.1
v 0 3.3 0.1
v 0 3.6 0.1
v 0.1 -2.3 0.1
v 0.1 -2 0.1
v 0.1 2.4 0.1
v 0.1 2.9 0.1
v -0.1 -2 0
v -0.1 -1.2 0
v -0.1 -0.7 0
v -0.1 -0.6 0
v -0.1 2.38419e-07 0
v -0.1 0.6 0
v -0.1 1.1 0
v -0.1 1.2 0
v -0.1 1.8 0
v -0.1 2.4 0
v -0.1 3.6 0
v -0.1 3.7 0
v 0 -2 0
v 0 -1.2 0
v 0 -0.7 0
v 0 -0.6 0
v 0 2.38419e-07 0
v 0 0.6 0
v 0 1.1 0
v 0 1.2 0
v 0 1.8 0
v 0 2.4 0
v 0 3.6 0
v 0 3.7 0
v -0.2 2.8 -0.1
v -0.2 3 -0.1
v -0.1 2.8 -0.1
v -0.1 3 -0.1
v 0 2.8 -0.1
v 0 3 -0.1
v 0.1 2.8 -0.1
v 0.1 3 -0.1
v -0.2 2.8 0
v -0.2 3 0
v -0.1 2.8 0
v -0.1 3 0
v 0 2.8 0
v 0 3 0
v 0.1 2.8 0
v 0.1 3 0
v -0.1 -2 -0.1
v -0.1 -1.2 -0.1
v -0.1 -0.7 -0.1
v -0.1 -0.6 -0.1
v -0.1 2.38419e-07 -0.1
v -0.1 0.6 -0.1
v -0.1 1.1 -0.1
v -0.1 1.2 -0.1
v -0.1 1.8 -0.1
v -0.1 2.4 -0.1
v -0.1 3.6 -0.1
v -0.1 3.7 -0.1
v 0 -2 -0.1
v 0 -1.2 -0.1
v 0 -0.7 -0.1
v 0 -0.6 -0.1
v 0 2.38419e-07 -0.1
v 0 0.6 -0.1
v 0 1.1 -0.1
v 0 1.2 -0.1
v 0 1.8 -0.1
v 0 2.4 -0.1
v 0 3.6 -0.1
v 0 3.7 -0.1
v -0.2 -2.3 -0.2
v -0.2 -2 -0.2
v -0.2 2.4 -0.2
v -0.2 2.9 -0.2
v -0.1 -2.2 -0.2
v -0.1 -2.1 -0.2
v -0.1 2.5 -0.2
v -0.1 2.7 -0.2
v -0.1 2.8 -0.2
v -0.1 2.9 -0.2
v -0.1 3.3 -0.2
v -0.1 3.6 -0.2
v 0 -2.2 -0.2
v 0 -2.1 -0.2
v 0 2.5 -0.2
v 0 2.7 -0.2
v 0 2.8 -0.2
v 0 2.9 -0.2
v 0 3.3 -0.2
v 0 3.6 -0.2
v 0.1 -2.3 -0.2
v 0.1 -2 -0.2
v 0.1 2.4 -0.2
v 0.1 2.9 -0.2
v -0.2 2.9 -0.3
v -0.2 3 -0.3
v -0.1 2.7 -0.3
v -0.1 2.8 -0.3
v -0.1 2.9 -0.3
v -0.1 3 -0.3
v -0.1 3.1 -0.3
v -0.1 3.3 -0.3
v 0 2.7 -0.3
v 0 2.8 -0.3
v 0 2.9 -0.3
v 0 3 -0.3
v 0 3.1 -0.3
v 0 3.3 -0.3
v 0.1 2.9 -0.3
v 0.1 3 -0.3
v -0.1 2.8 -0.4
v -0.1 3.1 -0.4
v 0 2.8 -0.4
v 0 3.1 -0.4
v -0.2 -2.3 0.1
v 0.1 -2.3 0.1
v -0.1 -2.3 0
v 0 -2.3 0
v -0.1 -2.3 -0.1
v 0 -2.3 -0.1
v -0.2 -2.3 -0.2
v 0.1 -2.3 -0.2
v -0.2 2.4 0.1
v 0.1 2.4 0.1
v -0.1 2.4 0
v 0 2.4 0
v -0.1 2.4 -0.1
v 0 2.4 -0.1
v -0.2 2.4 -0.2
v 0.1 2.4 -0.2
v -0.1 2.7 0.2
v 0 2.7 0.2
v -0.1 2.7 0.1
v 0 2.7 0.1
v -0.1 2.7 -0.2
v 0 2.7 -0.2
v -0.1 2.7 -0.3
v 0 2.7 -0.3
v -0.1 2.8 0.3
v 0 2.8 0.3
v -0.1 2.8 0.2
v 0 2.8 0.2
v -0.1 2.8 -0.3
v 0 2.8 -0.3
v -0.1 2.8 -0.4
v 0 2.8 -0.4
v -0.2 2.9 0.2
v -0.1 2.9 0.2
v 0 2.9 0.2
v 0.1 2.9 0.2
v -0.2 2.9 0.1
v -0.1 2.9 0.1
v 0 2.9 0.1
v 0.1 2.9 0.1
v -0.2 2.9 -0.2
v -0.1 2.9 -0.2
v 0 2.9 -0.2
v 0.1 2.9 -0.2
v -0.2 2.9 -0.3
v -0.1 2.9 -0.3
v 0 2.9 -0.3
v 0.1 2.9 -0.3
v -0.2 -2 0.1
v 0.1 -2 0.1
v -0.1 -2 0
v 0 -2 0
v -0.1 -2 -0.1
v 0 -2 -0.1
v -0.2 -2 -0.2
v 0.1 -2 -0.2
v -0.1 2.5 0.1
v 0 2.5 0.1
v -0.1 2.5 0
v 0 2.5 0
v -0.1 2.5 -0.1
v 0 2.5 -0.1
v -0.1 2.5 -0.2
v 0 2.5 -0.2
v -0.2 2.8 0
v -0.1 2.8 0
v 0 2.8 0
v 0.1 2.8 0
v -0.2 2.8 -0.1
v -0.1 2.8 -0.1
v 0 2.8 -0.1
v 0.1 2.8 -0.1
v -0.2 3 0.2
v -0.1 3 0.2
v 0 3 0.2
v 0.1 3 0.2
v -0.2 3 0
v -0.1 3 0
v 0 3 0
v 0.1 3 0
v -0.2 3 -0.1
v -0.1 3 -0.1
v 0 3 -0.1
v 0.1 3 -0.1
v -0.2 3 -0.3
v -0.1 3 -0.3
v 0 3 -0.3
v 0.1 3 -0.3
v -0.1 3.1 0.3
v 0 3.1 0.3
v -0.1 3.1 0.2
v 0 3.1 0.2
v -0.1 3.1 -0.3
v 0 3.1 -0.3
v -0.1 3.1 -0.4
v 0 3.1 -0.4
v -0.1 3.3 0.2
v 0 3.3 0.2
v -0.1 3.3 0.1
v 0 3.3 0.1
v -0.1 3.3 -0.2
v 0 3.3 -0.2
v -0.1 3.3 -0.3
v 0 3.3 -0.3
v -0.1 3.6 0.1
v 0 3.6 0.1
v -0.1 3.6 0
v 0 3.6 0
v -0.1 3.6 -0.1
v 0 3.6 -0.1
v -0.1 3.6 -0.2
v 0 3.6 -0.2
v -0.1 3.7 0
v 0 3.7 0
v -0.1 3.7 -0.1
v 0 3.7 -0.1

# faces
f 3/4/1 2/4/1 1/4/1
f 4/4/1 2/4/1 3/4/1
f 5/4/1 3/4/1 1/4/1
f 5/6/1 4/6/1 3/6/1
f 6/4/1 2/4/1 4/4/1
f 6/6/1 4/6/1 5/6/1
f 7/4/1 5/4/1 1/4/1
f 7/4/1 6/4/1 5/4/1
f 8/4/1 2/4/1 6/4/1
f 8/4/1 6/4/1 7/4/1
f 11/7/1 10/7/1 9/7/1
f 12/7/1 10/7/1 11/7/1
f 13/7/1 11/7/1 9/7/1
f 13/3/1 12/3/1 11/3/1
f 14/7/1 10/7/1 12/7/1
f 14/3/1 12/3/1 13/3/1
f 15/7/1 13/7/1 9/7/1
f 15/7/1 14/7/1 13/7/1
f 16/7/1 10/7/1 14/7/1
f 16/7/1 14/7/1 15/7/1
f 18/7/1 15/7/1 9/7/1
f 19/7/1 10/7/1 16/7/1
f 21/7/1 18/7/1 17/7/1
f 22/7/1 15/7/1 18/7/1
f 22/7/1 18/7/1 21/7/1
f 23/7/1 19/7/1 16/7/1
f 23/7/1 20/7/1 19/7/1
f 24/7/1 20/7/1 23/7/1
f 27/5/1 26/5/1 25/5/1
f 28/5/1 26/5/1 27/5/1
f 29/4/1 28/4/1 27/4/1
f 30/4/1 28/4/1 29/4/1
f 31/5/1 30/5/1 29/5/1
f 32/5/1 30/5/1 31/5/1
f 33/4/1 32/4/1 31/4/1
f 34/4/1 32/4/1 33/4/1
f 35/5/1 34/5/1 33/5/1
f 36/5/1 34/5/1 35/5/1
f 37/4/1 36/4/1 35/4/1
f 38/4/1 36/4/1 37/4/1
f 39/5/1 38/5/1 37/5/1
f 40/5/1 38/5/1 39/5/1
f 41/4/1 40/4/1 39/4/1
f 42/4/1 40/4/1 41/4/1
f 43/5/1 42/5/1 41/5/1
f 44/5/1 42/5/1 43/5/1
f 50/1/1 46/1/1 45/1/1
f 51/1/1 46/1/1 50/1/1
f 54/1/1 48/1/1 47/1/1
f 55/1/1 48/1/1 54/1/1
f 57/1/1 50/1/1 49/1/1
f 57/2/1 51/2/1 50/2/1
f 58/2/1 51/2/1 57/2/1
f 59/2/1 55/2/1 54/2/1
f 60/1/1 56/1/1 55/1/1
f 60/2/1 55/2/1 59/2/1
f 61/1/1 57/1/1 49/1/1
f 62/2/1 53/2/1 52/2/1
f 63/2/1 53/2/1 62/2/1
f 64/1/1 56/1/1 60/1/1
f 65/1/1 61/1/1 49/1/1
f 66/2/1 64/2/1 63/2/1
f 66/1/1 61/1/1 65/1/1
f 66/2/1 63/2/1 62/2/1
f 66/2/1 62/2/1 61/2/1
f 67/2/1 64/2/1 66/2/1
f 68/2/1 64/2/1 67/2/1
f 69/1/1 56/1/1 64/1/1
f 69/2/1 64/2/1 68/2/1
f 70/1/1 56/1/1 69/1/1
f 71/1/1 67/1/1 66/1/1
f 72/2/1 68/2/1 67/2/1
f 72/1/1 67/1/1 71/1/1
f 73/2/1 68/2/1 72/2/1
f 74/2/1 68/2/1 73/2/1
f 75/1/1 69/1/1 68/1/1
f 75/2/1 68/2/1 74/2/1
f 76/1/1 69/1/1 75/1/1
f 77/1/1 73/1/1 72/1/1
f 78/2/1 74/2/1 73/2/1
f 78/1/1 73/1/1 77/1/1
f 79/1/1 75/1/1 74/1/1
f 79/2/1 74/2/1 78/2/1
f 80/1/1 75/1/1 79/1/1
f 81/1/1 79/1/1 78/1/1
f 82/1/1 79/1/1 81/1/1
f 87/7/1 84/7/1 83/7/1
f 87/3/1 85/3/1 84/3/1
f 88/7/1 86/7/1 85/7/1
f 88/3/1 85/3/1 87/3/1
f 89/7/1 87/7/1 83/7/1
f 89/7/1 88/7/1 87/7/1
f 90/7/1 86/7/1 88/7/1
f 90/7/1 88/7/1 89/7/1
f 91/7/2 92/7/2 95/7/2
f 92/3/2 93/3/2 95/3/2
f 93/7/2 94/7/2 96/7/2
f 95/3/2 93/3/2 96/3/2
f 91/7/2 95/7/2 97/7/2
f 95/7/2 96/7/2 97/7/2
f 96/7/2 94/7/2 98/7/2
f 97/7/2 96/7/2 98/7/2
f 99/5/2 100/5/2 101/5/2
f 101/5/2 100/5/2 102/5/2
f 101/4/2 102/4/2 103/4/2
f 103/4/2 102/4/2 104/4/2
f 103/5/2 104/5/2 105/5/2
f 105/5/2 104/5/2 106/5/2
f 105/4/2 106/4/2 107/4/2
f 107/4/2 106/4/2 108/4/2
f 107/5/2 108/5/2 109/5/2
f 109/5/2 108/5/2 110/5/2
f 109/4/2 110/4/2 111/4/2
f 111/4/2 110/4/2 112/4/2
f 111/5/2 112/5/2 113/5/2
f 113/5/2 112/5/2 114/5/2
f 113/4/2 114/4/2 115/4/2
f 115/4/2 114/4/2 116/4/2
f 115/5/2 116/5/2 117/5/2
f 117/5/2 116/5/2 118/5/2
f 119/1/2 120/1/2 124/1/2
f 124/1/2 120/1/2 125/1/2
f 121/1/2 122/1/2 128/1/2
f 128/1/2 122/1/2 129/1/2
f 123/1/2 124/1/2 131/1/2
f 124/2/2 125/2/2 131/2/2
f 131/2/2 125/2/2 132/2/2
f 128/2/2 129/2/2 133/2/2
f 129/1/2 130/1/2 134/1/2
f 133/2/2 129/2/2 134/2/2
f 123/1/2 131/1/2 135/1/2
f 126/2/2 127/2/2 136/2/2
f 136/2/2 127/2/2 137/2/2
f 134/1/2 130/1/2 138/1/2
f 123/1/2 135/1/2 139/1/2
f 137/2/2 138/2/2 140/2/2
f 139/1/2 135/1/2 140/1/2
f 136/2/2 137/2/2 140/2/2
f 135/2/2 136/2/2 140/2/2
f 140/2/2 138/2/2 141/2/2
f 141/2/2 138/2/2 142/2/2
f 138/1/2 130/1/2 143/1/2
f 142/2/2 138/2/2 143/2/2
f 143/1/2 130/1/2 144/1/2
f 140/1/2 141/1/2 145/1/2
f 141/2/2 142/2/2 146/2/2
f 145/1/2 141/1/2 146/1/2
f 146/2/2 142/2/2 147/2/2
f 147/2/2 142/2/2 148/2/2
f 142/1/2 143/1/2 149/1/2
f 148/2/2 142/2/2 149/2/2
f 149/1/2 143/1/2 150/1/2
f 146/1/2 147/1/2 151/1/2
f 147/2/2 148/2/2 152/2/2
f 151/1/2 147/1/2 152/1/2
f 148/1/2 149/1/2 153/1/2
f 152/2/2 148/2/2 153/2/2
f 153/1/2 149/1/2 154/1/2
f 152/1/2 153/1/2 155/1/2
f 155/1/2 153/1/2 156/1/2
f 157/4/2 158/4/2 159/4/2
f 159/4/2 158/4/2 160/4/2
f 157/4/2 159/4/2 161/4/2
f 159/6/2 160/6/2 161/6/2
f 160/4/2 158/4/2 162/4/2
f 161/6/2 160/6/2 162/6/2
f 157/4/2 161/4/2 163/4/2
f 161/4/2 162/4/2 163/4/2
f 162/4/2 158/4/2 164/4/2
f 163/4/2 162/4/2 164/4/2
f 165/7/2 166/7/2 167/7/2
f 167/7/2 166/7/2 168/7/2
f 165/7/2 167/7/2 169/7/2
f 167/3/2 168/3/2 169/3/2
f 168/7/2 166/7/2 170/7/2
f 169/3/2 168/3/2 170/3/2
f 165/7/2 169/7/2 171/7/2
f 169/7/2 170/7/2 171/7/2
f 170/7/2 166/7/2 172/7/2
f 171/7/2 170/7/2 172/7/2
f 165/7/2 171/7/2 174/7/2
f 172/7/2 166/7/2 175/7/2
f 173/7/2 174/7/2 177/7/2
f 174/7/2 171/7/2 178/7/2
f 177/7/2 174/7/2 178/7/2
f 172/7/2 175/7/2 179/7/2
f 175/7/2 176/7/2 179/7/2
f 179/7/2 176/7/2 180/7/2
f 183/1/3 182/1/3 181/1/3
f 184/1/3 182/1/3 183/1/3
f 189/7/3 186/7/3 185/7/3
f 190/7/3 186/7/3 189/7/3
f 193/1/3 188/1/3 187/1/3
f 194/1/3 188/1/3 193/1/3
f 197/1/3 192/1/3 191/1/3
f 198/1/3 192/1/3 197/1/3
f 199/7/3 196/7/3 195/7/3
f 200/7/3 196/7/3 199/7/3
f 205/4/3 202/4/3 201/4/3
f 206/4/3 202/4/3 205/4/3
f 207/7/3 204/7/3 203/7/3
f 208/7/3 204/7/3 207/7/3
f 209/7/3 204/7/3 208/7/3
f 210/7/3 204/7/3 209/7/3
f 213/4/3 205/4/3 201/4/3
f 213/6/3 206/6/3 205/6/3
f 214/4/3 202/4/3 206/4/3
f 214/6/3 206/6/3 213/6/3
f 215/7/3 207/7/3 203/7/3
f 219/1/3 212/1/3 211/1/3
f 220/1/3 212/1/3 219/1/3
f 221/4/3 213/4/3 201/4/3
f 221/4/3 214/4/3 213/4/3
f 222/4/3 202/4/3 214/4/3
f 222/4/3 214/4/3 221/4/3
f 223/7/3 218/7/3 217/7/3
f 223/7/3 215/7/3 203/7/3
f 223/7/3 217/7/3 216/7/3
f 223/7/3 216/7/3 215/7/3
f 224/7/3 218/7/3 223/7/3
f 237/5/3 226/5/3 225/5/3
f 238/4/3 227/4/3 226/4/3
f 238/5/3 226/5/3 237/5/3
f 239/5/3 228/5/3 227/5/3
f 239/4/3 227/4/3 238/4/3
f 240/4/3 229/4/3 228/4/3
f 240/5/3 228/5/3 239/5/3
f 241/5/3 230/5/3 229/5/3
f 241/4/3 229/4/3 240/4/3
f 242/4/3 231/4/3 230/4/3
f 242/5/3 230/5/3 241/5/3
f 243/5/3 232/5/3 231/5/3
f 243/4/3 231/4/3 242/4/3
f 244/4/3 233/4/3 232/4/3
f 244/5/3 232/5/3 243/5/3
f 245/5/3 234/5/3 233/5/3
f 245/4/3 233/4/3 244/4/3
f 246/5/3 234/5/3 245/5/3
f 247/1/3 236/1/3 235/1/3
f 248/1/3 236/1/3 247/1/3
f 251/7/3 250/7/3 249/7/3
f 252/7/3 250/7/3 251/7/3
f 255/7/3 254/7/3 253/7/3
f 256/7/3 254/7/3 255/7/3
f 257/7/4 258/7/4 259/7/4
f 259/7/4 258/7/4 260/7/4
f 261/7/4 262/7/4 263/7/4
f 263/7/4 262/7/4 264/7/4
f 265/5/4 266/5/4 277/5/4
f 266/4/4 267/4/4 278/4/4
f 277/5/4 266/5/4 278/5/4
f 267/5/4 268/5/4 279/5/4
f 278/4/4 267/4/4 279/4/4
f 268/4/4 269/4/4 280/4/4
f 279/5/4 268/5/4 280/5/4
f 269/5/4 270/5/4 281/5/4
f 280/4/4 269/4/4 281/4/4
f 270/4/4 271/4/4 282/4/4
f 281/5/4 270/5/4 282/5/4
f 271/5/4 272/5/4 283/5/4
f 282/4/4 271/4/4 283/4/4
f 272/4/4 273/4/4 284/4/4
f 283/5/4 272/5/4 284/5/4
f 273/5/4 274/5/4 285/5/4
f 284/4/4 273/4/4 285/4/4
f 285/5/4 274/5/4 286/5/4
f 275/1/4 276/1/4 287/1/4
f 287/1/4 276/1/4 288/1/4
f 289/4/4 290/4/4 293/4/4
f 293/4/4 290/4/4 294/4/4
f 291/7/4 292/7/4 295/7/4
f 295/7/4 292/7/4 296/7/4
f 296/7/4 292/7/4 297/7/4
f 297/7/4 292/7/4 298/7/4
f 289/4/4 293/4/4 301/4/4
f 293/6/4 294/6/4 301/6/4
f 294/4/4 290/4/4 302/4/4
f 301/6/4 294/6/4 302/6/4
f 291/7/4 295/7/4 303/7/4
f 299/1/4 300/1/4 307/1/4
f 307/1/4 300/1/4 308/1/4
f 289/4/4 301/4/4 309/4/4
f 301/4/4 302/4/4 309/4/4
f 302/4/4 290/4/4 310/4/4
f 309/4/4 302/4/4 310/4/4
f 305/7/4 306/7/4 311/7/4
f 291/7/4 303/7/4 311/7/4
f 304/7/4 305/7/4 311/7/4
f 303/7/4 304/7/4 311/7/4
f 311/7/4 306/7/4 312/7/4
f 313/7/4 314/7/4 317/7/4
f 317/7/4 314/7/4 318/7/4
f 315/1/4 316/1/4 321/1/4
f 321/1/4 316/1/4 322/1/4
f 319/1/4 320/1/4 325/1/4
f 325/1/4 320/1/4 326/1/4
f 323/7/4 324/7/4 327/7/4
f 327/7/4 324/7/4 328/7/4
f 329/1/4 330/1/4 331/1/4
f 331/1/4 330/1/4 332/1/4
f 335/4/5 334/4/5 333/4/5
f 336/4/5 334/4/5 335/4/5
f 337/4/5 335/4/5 333/4/5
f 337/8/5 336/8/5 335/8/5
f 338/4/5 334/4/5 336/4/5
f 338/8/5 336/8/5 337/8/5
f 339/4/5 337/4/5 333/4/5
f 339/4/5 338/4/5 337/4/5
f 340/4/5 334/4/5 338/4/5
f 340/4/5 338/4/5 339/4/5
f 343/7/5 342/7/5 341/7/5
f 344/7/5 342/7/5 343/7/5
f 345/7/5 343/7/5 341/7/5
f 346/7/5 342/7/5 344/7/5
f 347/7/5 345/7/5 341/7/5
f 347/7/5 346/7/5 345/7/5
f 348/7/5 342/7/5 346/7/5
f 348/7/5 346/7/5 347/7/5
f 351/1/5 350/1/5 349/1/5
f 352/1/5 350/1/5 351/1/5
f 353/1/5 352/1/5 351/1/5
f 354/1/5 352/1/5 353/1/5
f 355/1/5 354/1/5 353/1/5
f 356/1/5 354/1/5 355/1/5
f 359/1/5 358/1/5 357/1/5
f 360/1/5 358/1/5 359/1/5
f 363/1/5 362/1/5 361/1/5
f 364/1/5 362/1/5 363/1/5
f 369/7/5 366/7/5 365/7/5
f 370/7/5 366/7/5 369/7/5
f 371/7/5 368/7/5 367/7/5
f 372/7/5 368/7/5 371/7/5
f 377/7/5 374/7/5 373/7/5
f 378/7/5 374/7/5 377/7/5
f 379/7/5 376/7/5 375/7/5
f 380/7/5 376/7/5 379/7/5
f 381/4/6 382/4/6 383/4/6
f 383/4/6 382/4/6 384/4/6
f 381/4/6 383/4/6 385/4/6
f 384/4/6 382/4/6 386/4/6
f 381/4/6 385/4/6 387/4/6
f 385/4/6 386/4/6 387/4/6
f 386/4/6 382/4/6 388/4/6
f 387/4/6 386/4/6 388/4/6
f 389/7/6 390/7/6 391/7/6
f 391/7/6 390/7/6 392/7/6
f 391/7/6 392/7/6 393/7/6
f 393/7/6 392/7/6 394/7/6
f 393/7/6 394/7/6 395/7/6
f 395/7/6 394/7/6 396/7/6
f 397/7/6 398/7/6 401/7/6
f 401/7/6 398/7/6 402/7/6
f 399/7/6 400/7/6 403/7/6
f 403/7/6 400/7/6 404/7/6
f 405/7/6 406/7/6 409/7/6
f 409/7/6 406/7/6 410/7/6
f 407/7/6 408/7/6 411/7/6
f 411/7/6 408/7/6 412/7/6
f 413/7/6 414/7/6 417/7/6
f 417/7/6 414/7/6 418/7/6
f 415/7/6 416/7/6 419/7/6
f 419/7/6 416/7/6 420/7/6
f 421/1/6 422/1/6 423/1/6
f 423/1/6 422/1/6 424/1/6
f 425/1/6 426/1/6 427/1/6
f 427/1/6 426/1/6 428/1/6
f 429/1/6 430/1/6 431/1/6
f 431/1/6 430/1/6 432/1/6
f 433/1/6 434/1/6 435/1/6
f 435/1/6 434/1/6 436/1/6
f 437/1/6 438/1/6 439/1/6
f 439/1/6 438/1/6 440/1/6
f 441/1/6 442/1/6 443/1/6
f 443/1/6 442/1/6 444/1/6
f 445/1/6 446/1/6 447/1/6
f 447/1/6 446/1/6 448/1/6
