# MagicaVoxel @ Ephtracy

# group
o 

# material
mtllib RedDagger.mtl
usemtl palette

# normals
vn -1 0 0
vn 1 0 0
vn 0 0 1
vn 0 0 -1
vn 0 -1 0
vn 0 1 0

# texcoords
vt 0.00585938 0.5
vt 0.00976563 0.5
vt 0.0136719 0.5
vt 0.0175781 0.5
vt 0.0214844 0.5
vt 0.0371094 0.5

# verts
v -0.3 1.5 0.1
v -0.3 1.5 0
v -0.3 1.6 0.1
v -0.3 1.6 0
v -0.3 1.7 0.1
v -0.3 1.7 0
v -0.2 1.2 0.1
v -0.2 1.2 0
v -0.2 1.3 0.1
v -0.2 1.3 0
v -0.2 1.5 0.1
v -0.2 1.5 0
v -0.1 -0.3 0.1
v -0.1 -0.3 0
v -0.1 -0.2 0.1
v -0.1 -0.2 0
v -0.1 0.1 0.1
v -0.1 0.1 0
v -0.1 0.2 0.1
v -0.1 0.2 0
v -0.1 0.3 0.1
v -0.1 0.3 0
v -0.1 0.6 0.1
v -0.1 0.6 0
v -0.1 1.2 0.1
v -0.1 1.2 0
v 0.1 0.1 0.1
v 0.1 0.1 0
v 0.1 0.2 0.1
v 0.1 0.2 0
v 0.1 0.3 0.1
v 0.1 0.3 0
v 0.2 0 0.1
v 0.2 0 0
v 0.2 0.1 0.1
v 0.2 0.1 0
v -0.2 1.6 0.1
v -0.2 1.6 0
v -0.2 1.7 0.1
v -0.2 1.7 0
v -0.1 1.5 0.1
v -0.1 1.5 0
v -0.1 1.6 0.1
v -0.1 1.6 0
v 0 -0.3 0.1
v 0 -0.3 0
v 0 -0.2 0.1
v 0 -0.2 0
v 0 0.1 0.1
v 0 0.1 0
v 0 0.2 0.1
v 0 0.2 0
v 0 0.3 0.1
v 0 0.3 0
v 0 1.4 0.1
v 0 1.4 0
v 0 1.5 0.1
v 0 1.5 0
v 0.1 1.3 0.1
v 0.1 1.3 0
v 0.1 1.4 0.1
v 0.1 1.4 0
v 0.2 1.1 0.1
v 0.2 1.1 0
v 0.2 1.3 0.1
v 0.2 1.3 0
v 0.3 0 0.1
v 0.3 0 0
v 0.3 1.1 0.1
v 0.3 1.1 0
v -0.3 1.5 0.1
v -0.3 1.6 0.1
v -0.3 1.7 0.1
v -0.2 1.2 0.1
v -0.2 1.3 0.1
v -0.2 1.5 0.1
v -0.2 1.6 0.1
v -0.2 1.7 0.1
v -0.1 -0.3 0.1
v -0.1 -0.2 0.1
v -0.1 0.1 0.1
v -0.1 0.2 0.1
v -0.1 0.3 0.1
v -0.1 0.6 0.1
v -0.1 1.2 0.1
v -0.1 1.3 0.1
v -0.1 1.4 0.1
v -0.1 1.5 0.1
v -0.1 1.6 0.1
v 0 -0.3 0.1
v 0 -0.2 0.1
v 0 0.1 0.1
v 0 0.2 0.1
v 0 0.3 0.1
v 0 0.4 0.1
v 0 0.6 0.1
v 0 1.2 0.1
v 0 1.3 0.1
v 0 1.4 0.1
v 0 1.5 0.1
v 0.1 0.1 0.1
v 0.1 0.2 0.1
v 0.1 0.3 0.1
v 0.1 0.4 0.1
v 0.1 1 0.1
v 0.1 1.3 0.1
v 0.1 1.4 0.1
v 0.2 0 0.1
v 0.2 0.1 0.1
v 0.2 0.2 0.1
v 0.2 1 0.1
v 0.2 1.1 0.1
v 0.2 1.3 0.1
v 0.3 0 0.1
v 0.3 1.1 0.1
v -0.3 1.5 0
v -0.3 1.6 0
v -0.3 1.7 0
v -0.2 1.2 0
v -0.2 1.3 0
v -0.2 1.5 0
v -0.2 1.6 0
v -0.2 1.7 0
v -0.1 -0.3 0
v -0.1 -0.2 0
v -0.1 0.1 0
v -0.1 0.2 0
v -0.1 0.3 0
v -0.1 0.6 0
v -0.1 1.2 0
v -0.1 1.3 0
v -0.1 1.4 0
v -0.1 1.5 0
v -0.1 1.6 0
v 0 -0.3 0
v 0 -0.2 0
v 0 0.1 0
v 0 0.2 0
v 0 0.3 0
v 0 0.4 0
v 0 0.6 0
v 0 1.2 0
v 0 1.3 0
v 0 1.4 0
v 0 1.5 0
v 0.1 0.1 0
v 0.1 0.2 0
v 0.1 0.3 0
v 0.1 0.4 0
v 0.1 1 0
v 0.1 1.3 0
v 0.1 1.4 0
v 0.2 0 0
v 0.2 0.1 0
v 0.2 0.2 0
v 0.2 1 0
v 0.2 1.1 0
v 0.2 1.3 0
v 0.3 0 0
v 0.3 1.1 0
v -0.1 -0.3 0.1
v 0 -0.3 0.1
v -0.1 -0.3 0
v 0 -0.3 0
v 0.2 0 0.1
v 0.3 0 0.1
v 0.2 0 0
v 0.3 0 0
v 0.1 0.1 0.1
v 0.2 0.1 0.1
v 0.1 0.1 0
v 0.2 0.1 0
v 0 0.3 0.1
v 0.1 0.3 0.1
v 0 0.3 0
v 0.1 0.3 0
v -0.2 1.2 0.1
v -0.1 1.2 0.1
v -0.2 1.2 0
v -0.1 1.2 0
v -0.3 1.5 0.1
v -0.2 1.5 0.1
v -0.3 1.5 0
v -0.2 1.5 0
v 0.2 1.1 0.1
v 0.3 1.1 0.1
v 0.2 1.1 0
v 0.3 1.1 0
v 0.1 1.3 0.1
v 0.2 1.3 0.1
v 0.1 1.3 0
v 0.2 1.3 0
v 0 1.4 0.1
v 0.1 1.4 0.1
v 0 1.4 0
v 0.1 1.4 0
v -0.1 1.5 0.1
v 0 1.5 0.1
v -0.1 1.5 0
v 0 1.5 0
v -0.2 1.6 0.1
v -0.1 1.6 0.1
v -0.2 1.6 0
v -0.1 1.6 0
v -0.3 1.7 0.1
v -0.2 1.7 0.1
v -0.3 1.7 0
v -0.2 1.7 0

# faces
f 3/3/1 2/3/1 1/3/1
f 4/3/1 2/3/1 3/3/1
f 5/1/1 4/1/1 3/1/1
f 6/1/1 4/1/1 5/1/1
f 9/4/1 8/4/1 7/4/1
f 10/4/1 8/4/1 9/4/1
f 11/3/1 10/3/1 9/3/1
f 12/3/1 10/3/1 11/3/1
f 15/4/1 14/4/1 13/4/1
f 16/4/1 14/4/1 15/4/1
f 17/6/1 16/6/1 15/6/1
f 18/6/1 16/6/1 17/6/1
f 19/4/1 18/4/1 17/4/1
f 20/4/1 18/4/1 19/4/1
f 21/5/1 20/5/1 19/5/1
f 22/5/1 20/5/1 21/5/1
f 23/3/1 22/3/1 21/3/1
f 24/3/1 22/3/1 23/3/1
f 25/4/1 24/4/1 23/4/1
f 26/4/1 24/4/1 25/4/1
f 29/1/1 28/1/1 27/1/1
f 30/1/1 28/1/1 29/1/1
f 31/2/1 30/2/1 29/2/1
f 32/2/1 30/2/1 31/2/1
f 35/1/1 34/1/1 33/1/1
f 36/1/1 34/1/1 35/1/1
f 37/1/2 38/1/2 39/1/2
f 39/1/2 38/1/2 40/1/2
f 41/1/2 42/1/2 43/1/2
f 43/1/2 42/1/2 44/1/2
f 45/4/2 46/4/2 47/4/2
f 47/4/2 46/4/2 48/4/2
f 47/6/2 48/6/2 49/6/2
f 49/6/2 48/6/2 50/6/2
f 49/4/2 50/4/2 51/4/2
f 51/4/2 50/4/2 52/4/2
f 51/5/2 52/5/2 53/5/2
f 53/5/2 52/5/2 54/5/2
f 55/1/2 56/1/2 57/1/2
f 57/1/2 56/1/2 58/1/2
f 59/1/2 60/1/2 61/1/2
f 61/1/2 60/1/2 62/1/2
f 63/1/2 64/1/2 65/1/2
f 65/1/2 64/1/2 66/1/2
f 67/1/2 68/1/2 69/1/2
f 69/1/2 68/1/2 70/1/2
f 76/3/3 72/3/3 71/3/3
f 77/1/3 73/1/3 72/1/3
f 77/3/3 72/3/3 76/3/3
f 78/1/3 73/1/3 77/1/3
f 85/4/3 75/4/3 74/4/3
f 86/3/3 76/3/3 75/3/3
f 86/4/3 75/4/3 85/4/3
f 87/3/3 76/3/3 86/3/3
f 88/1/3 77/1/3 76/1/3
f 88/3/3 76/3/3 87/3/3
f 89/1/3 77/1/3 88/1/3
f 90/4/3 80/4/3 79/4/3
f 91/6/3 81/6/3 80/6/3
f 91/4/3 80/4/3 90/4/3
f 92/4/3 82/4/3 81/4/3
f 92/6/3 81/6/3 91/6/3
f 93/5/3 83/5/3 82/5/3
f 93/4/3 82/4/3 92/4/3
f 94/3/3 84/3/3 83/3/3
f 94/5/3 83/5/3 93/5/3
f 95/3/3 84/3/3 94/3/3
f 96/4/3 85/4/3 84/4/3
f 96/3/3 84/3/3 95/3/3
f 97/3/3 87/3/3 86/3/3
f 97/4/3 85/4/3 96/4/3
f 97/3/3 86/3/3 85/3/3
f 98/3/3 87/3/3 97/3/3
f 99/1/3 88/1/3 87/1/3
f 99/3/3 87/3/3 98/3/3
f 100/1/3 88/1/3 99/1/3
f 103/2/3 95/2/3 94/2/3
f 104/3/3 96/3/3 95/3/3
f 104/3/3 97/3/3 96/3/3
f 104/2/3 95/2/3 103/2/3
f 104/3/3 98/3/3 97/3/3
f 105/3/3 98/3/3 104/3/3
f 106/1/3 99/1/3 98/1/3
f 106/3/3 98/3/3 105/3/3
f 107/1/3 99/1/3 106/1/3
f 109/1/3 102/1/3 101/1/3
f 110/2/3 103/2/3 102/2/3
f 110/2/3 105/2/3 104/2/3
f 110/1/3 102/1/3 109/1/3
f 110/2/3 104/2/3 103/2/3
f 111/1/3 106/1/3 105/1/3
f 111/2/3 105/2/3 110/2/3
f 112/1/3 106/1/3 111/1/3
f 113/1/3 106/1/3 112/1/3
f 114/1/3 109/1/3 108/1/3
f 114/1/3 110/1/3 109/1/3
f 114/1/3 112/1/3 111/1/3
f 114/1/3 111/1/3 110/1/3
f 115/1/3 112/1/3 114/1/3
f 116/3/4 117/3/4 121/3/4
f 117/1/4 118/1/4 122/1/4
f 121/3/4 117/3/4 122/3/4
f 122/1/4 118/1/4 123/1/4
f 119/4/4 120/4/4 130/4/4
f 120/3/4 121/3/4 131/3/4
f 130/4/4 120/4/4 131/4/4
f 131/3/4 121/3/4 132/3/4
f 121/1/4 122/1/4 133/1/4
f 132/3/4 121/3/4 133/3/4
f 133/1/4 122/1/4 134/1/4
f 124/4/4 125/4/4 135/4/4
f 125/6/4 126/6/4 136/6/4
f 135/4/4 125/4/4 136/4/4
f 126/4/4 127/4/4 137/4/4
f 136/6/4 126/6/4 137/6/4
f 127/5/4 128/5/4 138/5/4
f 137/4/4 127/4/4 138/4/4
f 128/3/4 129/3/4 139/3/4
f 138/5/4 128/5/4 139/5/4
f 139/3/4 129/3/4 140/3/4
f 129/4/4 130/4/4 141/4/4
f 140/3/4 129/3/4 141/3/4
f 131/3/4 132/3/4 142/3/4
f 141/4/4 130/4/4 142/4/4
f 130/3/4 131/3/4 142/3/4
f 142/3/4 132/3/4 143/3/4
f 132/1/4 133/1/4 144/1/4
f 143/3/4 132/3/4 144/3/4
f 144/1/4 133/1/4 145/1/4
f 139/2/4 140/2/4 148/2/4
f 140/3/4 141/3/4 149/3/4
f 141/3/4 142/3/4 149/3/4
f 148/2/4 140/2/4 149/2/4
f 142/3/4 143/3/4 149/3/4
f 149/3/4 143/3/4 150/3/4
f 143/1/4 144/1/4 151/1/4
f 150/3/4 143/3/4 151/3/4
f 151/1/4 144/1/4 152/1/4
f 146/1/4 147/1/4 154/1/4
f 147/2/4 148/2/4 155/2/4
f 149/2/4 150/2/4 155/2/4
f 154/1/4 147/1/4 155/1/4
f 148/2/4 149/2/4 155/2/4
f 150/1/4 151/1/4 156/1/4
f 155/2/4 150/2/4 156/2/4
f 156/1/4 151/1/4 157/1/4
f 157/1/4 151/1/4 158/1/4
f 153/1/4 154/1/4 159/1/4
f 154/1/4 155/1/4 159/1/4
f 156/1/4 157/1/4 159/1/4
f 155/1/4 156/1/4 159/1/4
f 159/1/4 157/1/4 160/1/4
f 163/4/5 162/4/5 161/4/5
f 164/4/5 162/4/5 163/4/5
f 167/1/5 166/1/5 165/1/5
f 168/1/5 166/1/5 167/1/5
f 171/1/5 170/1/5 169/1/5
f 172/1/5 170/1/5 171/1/5
f 175/2/5 174/2/5 173/2/5
f 176/2/5 174/2/5 175/2/5
f 179/4/5 178/4/5 177/4/5
f 180/4/5 178/4/5 179/4/5
f 183/3/5 182/3/5 181/3/5
f 184/3/5 182/3/5 183/3/5
f 185/1/6 186/1/6 187/1/6
f 187/1/6 186/1/6 188/1/6
f 189/1/6 190/1/6 191/1/6
f 191/1/6 190/1/6 192/1/6
f 193/1/6 194/1/6 195/1/6
f 195/1/6 194/1/6 196/1/6
f 197/1/6 198/1/6 199/1/6
f 199/1/6 198/1/6 200/1/6
f 201/1/6 202/1/6 203/1/6
f 203/1/6 202/1/6 204/1/6
f 205/1/6 206/1/6 207/1/6
f 207/1/6 206/1/6 208/1/6
