# MagicaVoxel @ Ephtracy

# group
o hacha

# material
mtllib Brazo-0-hacha.mtl
usemtl palette

# normals
vn -1 0 0
vn 1 0 0
vn 0 0 1
vn 0 0 -1
vn 0 -1 0
vn 0 1 0

# texcoords
vt 0.00585938 0.5
vt 0.0214844 0.5
vt 0.0253906 0.5
vt 0.0449219 0.5

# verts
v -1.5 2.6 1.1
v -1.5 2.6 0.9
v -1.5 3 1.1
v -1.5 3 0.9
v -1.4 2.6 0.9
v -1.4 2.6 0.8
v -1.4 3 0.9
v -1.4 3 0.8
v -1.3 2.6 0.8
v -1.3 2.6 0.7
v -1.3 3 0.8
v -1.3 3 0.7
v -1.2 -0.6 0.6
v -1.2 -0.6 -0.7
v -1.2 2.3 0.6
v -1.2 2.3 -0.7
v -1.2 2.6 0.7
v -1.2 2.6 0.6
v -1.2 3 0.7
v -1.2 3 0.6
v -1.1 2.3 0.5
v -1.1 2.3 -0.6
v -1.1 2.6 0.6
v -1.1 2.6 0.5
v -1.1 3 0.6
v -1.1 3 0.5
v -1.1 3.4 0.2
v -1.1 3.4 0.1
v -1.1 3.4 -0.2
v -1.1 3.4 -0.3
v -1.1 3.5 0.5
v -1.1 3.5 0.2
v -1.1 3.5 0.1
v -1.1 3.5 -0.2
v -1.1 3.5 -0.3
v -1.1 3.5 -0.6
v -1.1 4.4 0.5
v -1.1 4.4 0.2
v -1.1 4.4 0.1
v -1.1 4.4 -0.2
v -1.1 4.4 -0.3
v -1.1 4.4 -0.6
v -1.3 2.6 1.1
v -1.3 2.6 1
v -1.3 3 1.1
v -1.3 3 1
v -1.1 2.6 1
v -1.1 2.6 0.9
v -1.1 3 1
v -1.1 3 0.9
v -1 2.6 0.9
v -1 2.6 0.8
v -1 3 0.9
v -1 3 0.8
v -0.9 2.6 0.8
v -0.9 2.6 0.7
v -0.9 3 0.8
v -0.9 3 0.7
v -0.8 2.6 0.7
v -0.8 2.6 0.6
v -0.8 3 0.7
v -0.8 3 0.6
v -0.7 2.3 0.5
v -0.7 2.3 -0.6
v -0.7 2.5 0.5
v -0.7 2.5 -0.6
v -0.7 2.6 0.6
v -0.7 2.6 0.5
v -0.7 2.9 0.5
v -0.7 3 0.6
v -0.7 3 0.5
v -0.7 3.2 0.2
v -0.7 3.2 0.1
v -0.7 3.2 -0.2
v -0.7 3.2 -0.3
v -0.7 3.4 0.5
v -0.7 3.4 0.2
v -0.7 3.4 0.1
v -0.7 3.4 -0.2
v -0.7 3.4 -0.3
v -0.7 3.4 -0.6
v -0.7 3.5 0.5
v -0.7 3.5 0.2
v -0.7 3.5 0.1
v -0.7 3.5 -0.2
v -0.7 3.5 -0.3
v -0.7 3.5 -0.6
v -0.7 4.4 0.5
v -0.7 4.4 0.2
v -0.7 4.4 0.1
v -0.7 4.4 -0.2
v -0.7 4.4 -0.3
v -0.7 4.4 -0.6
v -0.6 -0.6 0.6
v -0.6 -0.6 -0.7
v -0.6 2.3 0.6
v -0.6 2.3 -0.7
v -0.6 2.5 0.5
v -0.6 2.5 -0.6
v -0.6 2.9 0.5
v -0.6 2.9 -0.6
v -0.6 3.2 0.5
v -0.6 3.2 0.2
v -0.6 3.2 0.1
v -0.6 3.2 -0.2
v -0.6 3.2 -0.3
v -0.6 3.2 -0.6
v -0.6 3.4 0.5
v -0.6 3.4 0.2
v -0.6 3.4 0.1
v -0.6 3.4 -0.2
v -0.6 3.4 -0.3
v -0.6 3.4 -0.6
v -1.5 2.6 1.1
v -1.5 3 1.1
v -1.3 2.6 1.1
v -1.3 3 1.1
v -1.3 2.6 1
v -1.3 3 1
v -1.1 2.6 1
v -1.1 3 1
v -1.1 2.6 0.9
v -1.1 3 0.9
v -1 2.6 0.9
v -1 3 0.9
v -1 2.6 0.8
v -1 3 0.8
v -0.9 2.6 0.8
v -0.9 3 0.8
v -0.9 2.6 0.7
v -0.9 3 0.7
v -0.8 2.6 0.7
v -0.8 3 0.7
v -1.2 -0.6 0.6
v -1.2 2.3 0.6
v -0.8 2.6 0.6
v -0.8 3 0.6
v -0.7 2.6 0.6
v -0.7 3 0.6
v -0.6 -0.6 0.6
v -0.6 2.3 0.6
v -1.1 2.3 0.5
v -1.1 2.6 0.5
v -1.1 3 0.5
v -1.1 3.5 0.5
v -1.1 4.4 0.5
v -0.7 2.3 0.5
v -0.7 2.5 0.5
v -0.7 2.6 0.5
v -0.7 2.9 0.5
v -0.7 3 0.5
v -0.7 3.2 0.5
v -0.7 3.4 0.5
v -0.7 3.5 0.5
v -0.7 4.4 0.5
v -0.6 2.5 0.5
v -0.6 2.9 0.5
v -0.6 3.2 0.5
v -0.6 3.4 0.5
v -1.1 3.4 0.1
v -1.1 3.5 0.1
v -1.1 4.4 0.1
v -0.7 3.2 0.1
v -0.7 3.4 0.1
v -0.7 3.5 0.1
v -0.7 4.4 0.1
v -0.6 3.2 0.1
v -0.6 3.4 0.1
v -1.1 3.4 -0.3
v -1.1 3.5 -0.3
v -1.1 4.4 -0.3
v -0.7 3.2 -0.3
v -0.7 3.4 -0.3
v -0.7 3.5 -0.3
v -0.7 4.4 -0.3
v -0.6 3.2 -0.3
v -0.6 3.4 -0.3
v -1.5 2.6 0.9
v -1.5 3 0.9
v -1.4 2.6 0.9
v -1.4 3 0.9
v -1.4 2.6 0.8
v -1.4 3 0.8
v -1.3 2.6 0.8
v -1.3 3 0.8
v -1.3 2.6 0.7
v -1.3 3 0.7
v -1.2 2.6 0.7
v -1.2 3 0.7
v -1.2 2.6 0.6
v -1.2 3 0.6
v -1.1 2.6 0.6
v -1.1 3 0.6
v -1.1 3.4 0.2
v -1.1 3.5 0.2
v -1.1 4.4 0.2
v -0.7 3.2 0.2
v -0.7 3.4 0.2
v -0.7 3.5 0.2
v -0.7 4.4 0.2
v -0.6 3.2 0.2
v -0.6 3.4 0.2
v -1.1 3.4 -0.2
v -1.1 3.5 -0.2
v -1.1 4.4 -0.2
v -0.7 3.2 -0.2
v -0.7 3.4 -0.2
v -0.7 3.5 -0.2
v -0.7 4.4 -0.2
v -0.6 3.2 -0.2
v -0.6 3.4 -0.2
v -1.1 2.3 -0.6
v -1.1 3.5 -0.6
v -1.1 4.4 -0.6
v -0.7 2.3 -0.6
v -0.7 2.5 -0.6
v -0.7 2.9 -0.6
v -0.7 3.2 -0.6
v -0.7 3.4 -0.6
v -0.7 3.5 -0.6
v -0.7 4.4 -0.6
v -0.6 2.5 -0.6
v -0.6 2.9 -0.6
v -0.6 3.2 -0.6
v -0.6 3.4 -0.6
v -1.2 -0.6 -0.7
v -1.2 2.3 -0.7
v -0.6 -0.6 -0.7
v -0.6 2.3 -0.7
v -1.2 -0.6 0.6
v -0.6 -0.6 0.6
v -1.2 -0.6 -0.7
v -0.6 -0.6 -0.7
v -0.7 2.5 0.5
v -0.6 2.5 0.5
v -0.7 2.5 -0.6
v -0.6 2.5 -0.6
v -1.5 2.6 1.1
v -1.3 2.6 1.1
v -1.3 2.6 1
v -1.1 2.6 1
v -1.5 2.6 0.9
v -1.4 2.6 0.9
v -1.1 2.6 0.9
v -1 2.6 0.9
v -1.4 2.6 0.8
v -1.3 2.6 0.8
v -1 2.6 0.8
v -0.9 2.6 0.8
v -1.3 2.6 0.7
v -1.2 2.6 0.7
v -0.9 2.6 0.7
v -0.8 2.6 0.7
v -1.2 2.6 0.6
v -1.1 2.6 0.6
v -0.8 2.6 0.6
v -0.7 2.6 0.6
v -1.1 2.6 0.5
v -0.7 2.6 0.5
v -1.2 2.3 0.6
v -0.6 2.3 0.6
v -1.1 2.3 0.5
v -0.7 2.3 0.5
v -1.1 2.3 -0.6
v -0.7 2.3 -0.6
v -1.2 2.3 -0.7
v -0.6 2.3 -0.7
v -1.5 3 1.1
v -1.3 3 1.1
v -1.3 3 1
v -1.1 3 1
v -1.5 3 0.9
v -1.4 3 0.9
v -1.1 3 0.9
v -1 3 0.9
v -1.4 3 0.8
v -1.3 3 0.8
v -1 3 0.8
v -0.9 3 0.8
v -1.3 3 0.7
v -1.2 3 0.7
v -0.9 3 0.7
v -0.8 3 0.7
v -1.2 3 0.6
v -1.1 3 0.6
v -0.8 3 0.6
v -0.7 3 0.6
v -1.1 3 0.5
v -0.7 3 0.5
v -0.7 3.2 0.2
v -0.6 3.2 0.2
v -0.7 3.2 0.1
v -0.6 3.2 0.1
v -0.7 3.2 -0.2
v -0.6 3.2 -0.2
v -0.7 3.2 -0.3
v -0.6 3.2 -0.3
v -0.7 3.4 0.5
v -0.6 3.4 0.5
v -1.1 3.4 0.2
v -0.7 3.4 0.2
v -0.6 3.4 0.2
v -1.1 3.4 0.1
v -0.7 3.4 0.1
v -0.6 3.4 0.1
v -1.1 3.4 -0.2
v -0.7 3.4 -0.2
v -0.6 3.4 -0.2
v -1.1 3.4 -0.3
v -0.7 3.4 -0.3
v -0.6 3.4 -0.3
v -0.7 3.4 -0.6
v -0.6 3.4 -0.6
v -1.1 4.4 0.5
v -0.7 4.4 0.5
v -1.1 4.4 0.2
v -0.7 4.4 0.2
v -1.1 4.4 0.1
v -0.7 4.4 0.1
v -1.1 4.4 -0.2
v -0.7 4.4 -0.2
v -1.1 4.4 -0.3
v -0.7 4.4 -0.3
v -1.1 4.4 -0.6
v -0.7 4.4 -0.6

# faces
f 3/1/1 2/1/1 1/1/1
f 4/1/1 2/1/1 3/1/1
f 7/1/1 6/1/1 5/1/1
f 8/1/1 6/1/1 7/1/1
f 11/1/1 10/1/1 9/1/1
f 12/1/1 10/1/1 11/1/1
f 15/2/1 14/2/1 13/2/1
f 16/2/1 14/2/1 15/2/1
f 19/1/1 18/1/1 17/1/1
f 20/1/1 18/1/1 19/1/1
f 24/3/1 22/3/1 21/3/1
f 25/3/1 24/3/1 23/3/1
f 26/3/1 22/3/1 24/3/1
f 26/3/1 24/3/1 25/3/1
f 27/3/1 22/3/1 26/3/1
f 28/3/1 22/3/1 27/3/1
f 29/3/1 22/3/1 28/3/1
f 30/3/1 22/3/1 29/3/1
f 31/3/1 27/3/1 26/3/1
f 32/3/1 27/3/1 31/3/1
f 33/3/1 29/3/1 28/3/1
f 34/3/1 29/3/1 33/3/1
f 35/3/1 22/3/1 30/3/1
f 36/3/1 22/3/1 35/3/1
f 37/1/1 32/1/1 31/1/1
f 38/1/1 32/1/1 37/1/1
f 39/1/1 34/1/1 33/1/1
f 40/1/1 34/1/1 39/1/1
f 41/1/1 36/1/1 35/1/1
f 42/1/1 36/1/1 41/1/1
f 43/1/2 44/1/2 45/1/2
f 45/1/2 44/1/2 46/1/2
f 47/1/2 48/1/2 49/1/2
f 49/1/2 48/1/2 50/1/2
f 51/1/2 52/1/2 53/1/2
f 53/1/2 52/1/2 54/1/2
f 55/1/2 56/1/2 57/1/2
f 57/1/2 56/1/2 58/1/2
f 59/1/2 60/1/2 61/1/2
f 61/1/2 60/1/2 62/1/2
f 63/3/2 64/3/2 65/3/2
f 65/3/2 64/3/2 66/3/2
f 67/3/2 68/3/2 69/3/2
f 67/3/2 69/3/2 70/3/2
f 70/3/2 69/3/2 71/3/2
f 72/3/2 73/3/2 77/3/2
f 77/3/2 73/3/2 78/3/2
f 74/3/2 75/3/2 79/3/2
f 79/3/2 75/3/2 80/3/2
f 76/3/2 77/3/2 82/3/2
f 82/3/2 77/3/2 83/3/2
f 78/3/2 79/3/2 84/3/2
f 84/3/2 79/3/2 85/3/2
f 80/3/2 81/3/2 86/3/2
f 86/3/2 81/3/2 87/3/2
f 82/1/2 83/1/2 88/1/2
f 88/1/2 83/1/2 89/1/2
f 84/1/2 85/1/2 90/1/2
f 90/1/2 85/1/2 91/1/2
f 86/1/2 87/1/2 92/1/2
f 92/1/2 87/1/2 93/1/2
f 94/2/2 95/2/2 96/2/2
f 96/2/2 95/2/2 97/2/2
f 98/4/2 99/4/2 100/4/2
f 100/4/2 99/4/2 101/4/2
f 100/2/2 101/2/2 102/2/2
f 102/2/2 101/2/2 103/2/2
f 103/2/2 101/2/2 104/2/2
f 104/2/2 101/2/2 105/2/2
f 105/2/2 101/2/2 106/2/2
f 106/2/2 101/2/2 107/2/2
f 102/4/2 103/4/2 108/4/2
f 108/4/2 103/4/2 109/4/2
f 104/4/2 105/4/2 110/4/2
f 110/4/2 105/4/2 111/4/2
f 106/4/2 107/4/2 112/4/2
f 112/4/2 107/4/2 113/4/2
f 116/1/3 115/1/3 114/1/3
f 117/1/3 115/1/3 116/1/3
f 120/1/3 119/1/3 118/1/3
f 121/1/3 119/1/3 120/1/3
f 124/1/3 123/1/3 122/1/3
f 125/1/3 123/1/3 124/1/3
f 128/1/3 127/1/3 126/1/3
f 129/1/3 127/1/3 128/1/3
f 132/1/3 131/1/3 130/1/3
f 133/1/3 131/1/3 132/1/3
f 138/3/3 137/3/3 136/3/3
f 139/3/3 137/3/3 138/3/3
f 140/2/3 135/2/3 134/2/3
f 141/2/3 135/2/3 140/2/3
f 147/3/3 143/3/3 142/3/3
f 148/3/3 143/3/3 147/3/3
f 149/3/3 143/3/3 148/3/3
f 151/3/3 145/3/3 144/3/3
f 152/3/3 145/3/3 151/3/3
f 153/3/3 145/3/3 152/3/3
f 154/1/3 146/1/3 145/1/3
f 154/3/3 145/3/3 153/3/3
f 155/1/3 146/1/3 154/1/3
f 156/4/3 150/4/3 149/4/3
f 156/4/3 149/4/3 148/4/3
f 157/2/3 152/2/3 151/2/3
f 157/4/3 150/4/3 156/4/3
f 157/2/3 151/2/3 150/2/3
f 158/4/3 153/4/3 152/4/3
f 158/2/3 152/2/3 157/2/3
f 159/4/3 153/4/3 158/4/3
f 164/3/3 161/3/3 160/3/3
f 165/1/3 162/1/3 161/1/3
f 165/3/3 161/3/3 164/3/3
f 166/1/3 162/1/3 165/1/3
f 167/4/3 164/4/3 163/4/3
f 168/4/3 164/4/3 167/4/3
f 173/3/3 170/3/3 169/3/3
f 174/1/3 171/1/3 170/1/3
f 174/3/3 170/3/3 173/3/3
f 175/1/3 171/1/3 174/1/3
f 176/4/3 173/4/3 172/4/3
f 177/4/3 173/4/3 176/4/3
f 178/1/4 179/1/4 180/1/4
f 180/1/4 179/1/4 181/1/4
f 182/1/4 183/1/4 184/1/4
f 184/1/4 183/1/4 185/1/4
f 186/1/4 187/1/4 188/1/4
f 188/1/4 187/1/4 189/1/4
f 190/1/4 191/1/4 192/1/4
f 192/1/4 191/1/4 193/1/4
f 194/3/4 195/3/4 198/3/4
f 195/1/4 196/1/4 199/1/4
f 198/3/4 195/3/4 199/3/4
f 199/1/4 196/1/4 200/1/4
f 197/4/4 198/4/4 201/4/4
f 201/4/4 198/4/4 202/4/4
f 203/3/4 204/3/4 207/3/4
f 204/1/4 205/1/4 208/1/4
f 207/3/4 204/3/4 208/3/4
f 208/1/4 205/1/4 209/1/4
f 206/4/4 207/4/4 210/4/4
f 210/4/4 207/4/4 211/4/4
f 212/3/4 213/3/4 215/3/4
f 215/3/4 213/3/4 216/3/4
f 216/3/4 213/3/4 217/3/4
f 217/3/4 213/3/4 218/3/4
f 218/3/4 213/3/4 219/3/4
f 213/1/4 214/1/4 220/1/4
f 219/3/4 213/3/4 220/3/4
f 220/1/4 214/1/4 221/1/4
f 216/4/4 217/4/4 222/4/4
f 217/2/4 218/2/4 223/2/4
f 222/4/4 217/4/4 223/4/4
f 218/4/4 219/4/4 224/4/4
f 223/2/4 218/2/4 224/2/4
f 224/4/4 219/4/4 225/4/4
f 226/2/4 227/2/4 228/2/4
f 228/2/4 227/2/4 229/2/4
f 232/2/5 231/2/5 230/2/5
f 233/2/5 231/2/5 232/2/5
f 236/4/5 235/4/5 234/4/5
f 237/4/5 235/4/5 236/4/5
f 240/1/5 239/1/5 238/1/5
f 242/1/5 240/1/5 238/1/5
f 242/1/5 241/1/5 240/1/5
f 243/1/5 241/1/5 242/1/5
f 244/1/5 241/1/5 243/1/5
f 246/1/5 245/1/5 244/1/5
f 246/1/5 244/1/5 243/1/5
f 247/1/5 245/1/5 246/1/5
f 248/1/5 245/1/5 247/1/5
f 250/1/5 249/1/5 248/1/5
f 250/1/5 248/1/5 247/1/5
f 251/1/5 249/1/5 250/1/5
f 252/1/5 249/1/5 251/1/5
f 254/1/5 253/1/5 252/1/5
f 254/1/5 252/1/5 251/1/5
f 255/1/5 253/1/5 254/1/5
f 256/1/5 253/1/5 255/1/5
f 258/3/5 257/3/5 256/3/5
f 258/3/5 256/3/5 255/3/5
f 259/3/5 257/3/5 258/3/5
f 260/2/6 261/2/6 262/2/6
f 262/2/6 261/2/6 263/2/6
f 260/2/6 262/2/6 264/2/6
f 263/2/6 261/2/6 265/2/6
f 260/2/6 264/2/6 266/2/6
f 264/2/6 265/2/6 266/2/6
f 265/2/6 261/2/6 267/2/6
f 266/2/6 265/2/6 267/2/6
f 268/1/6 269/1/6 270/1/6
f 268/1/6 270/1/6 272/1/6
f 270/1/6 271/1/6 272/1/6
f 272/1/6 271/1/6 273/1/6
f 273/1/6 271/1/6 274/1/6
f 274/1/6 275/1/6 276/1/6
f 273/1/6 274/1/6 276/1/6
f 276/1/6 275/1/6 277/1/6
f 277/1/6 275/1/6 278/1/6
f 278/1/6 279/1/6 280/1/6
f 277/1/6 278/1/6 280/1/6
f 280/1/6 279/1/6 281/1/6
f 281/1/6 279/1/6 282/1/6
f 282/1/6 283/1/6 284/1/6
f 281/1/6 282/1/6 284/1/6
f 284/1/6 283/1/6 285/1/6
f 285/1/6 283/1/6 286/1/6
f 286/3/6 287/3/6 288/3/6
f 285/3/6 286/3/6 288/3/6
f 288/3/6 287/3/6 289/3/6
f 290/2/6 291/2/6 292/2/6
f 292/2/6 291/2/6 293/2/6
f 294/2/6 295/2/6 296/2/6
f 296/2/6 295/2/6 297/2/6
f 298/4/6 299/4/6 301/4/6
f 301/4/6 299/4/6 302/4/6
f 300/3/6 301/3/6 303/3/6
f 303/3/6 301/3/6 304/3/6
f 304/4/6 305/4/6 307/4/6
f 307/4/6 305/4/6 308/4/6
f 306/3/6 307/3/6 309/3/6
f 309/3/6 307/3/6 310/3/6
f 310/4/6 311/4/6 312/4/6
f 312/4/6 311/4/6 313/4/6
f 314/1/6 315/1/6 316/1/6
f 316/1/6 315/1/6 317/1/6
f 318/1/6 319/1/6 320/1/6
f 320/1/6 319/1/6 321/1/6
f 322/1/6 323/1/6 324/1/6
f 324/1/6 323/1/6 325/1/6
