# MagicaVoxel @ Ephtracy

# group
o 

# material
mtllib DragonSword.mtl
usemtl palette

# normals
vn -1 0 0
vn 1 0 0
vn 0 0 1
vn 0 0 -1
vn 0 -1 0
vn 0 1 0

# texcoords
vt 0.146484 0.5
vt 0.169922 0.5
vt 0.236328 0.5
vt 0.990234 0.5
vt 0.994141 0.5

# verts
v -0.5 1 0.3
v -0.5 1 0.2
v -0.5 1.2 0.3
v -0.5 1.2 0.2
v -0.5 1.3 0.3
v -0.5 1.3 0.2
v -0.3 1.3 0.3
v -0.3 1.3 0.2
v -0.3 1.5 0.3
v -0.3 1.5 0.2
v -0.2 0.9 0.3
v -0.2 0.9 0.2
v -0.2 1 0.3
v -0.2 1 0.2
v -0.2 1.1 0.3
v -0.2 1.1 0.2
v -0.2 1.2 0.3
v -0.2 1.2 0.2
v -0.2 1.3 0.3
v -0.2 1.3 0.2
v -0.2 1.5 0.3
v -0.2 1.5 0.2
v -0.2 4.2 0.3
v -0.2 4.2 0.2
v -0.1 0.2 0.3
v -0.1 0.2 0.2
v -0.1 0.3 0.3
v -0.1 0.3 0.2
v -0.1 0.4 0.3
v -0.1 0.4 0.2
v -0.1 0.5 0.3
v -0.1 0.5 0.2
v -0.1 0.6 0.3
v -0.1 0.6 0.2
v -0.1 0.8 0.3
v -0.1 0.8 0.2
v -0.1 0.9 0.3
v -0.1 0.9 0.2
v -0.1 1 0.4
v -0.1 1 0.3
v -0.1 1 0.2
v -0.1 1 0.1
v -0.1 1.1 0.4
v -0.1 1.1 0.3
v -0.1 1.1 0.2
v -0.1 1.1 0.1
v -0.1 4.2 0.3
v -0.1 4.2 0.2
v -0.1 4.3 0.3
v -0.1 4.3 0.2
v 0 0 0.3
v 0 0 0.2
v 0 0.1 0.3
v 0 0.1 0.2
v 0 0.2 0.4
v 0 0.2 0.3
v 0 0.2 0.2
v 0 0.2 0.1
v 0 0.3 0.4
v 0 0.3 0.3
v 0 0.3 0.2
v 0 0.3 0.1
v 0 0.4 0.4
v 0 0.4 0.3
v 0 0.4 0.2
v 0 0.4 0.1
v 0 0.5 0.4
v 0 0.5 0.3
v 0 0.5 0.2
v 0 0.5 0.1
v 0 0.6 0.4
v 0 0.6 0.3
v 0 0.6 0.2
v 0 0.6 0.1
v 0 0.8 0.4
v 0 0.8 0.3
v 0 0.8 0.2
v 0 0.8 0.1
v 0 1 0.4
v 0 1 0.3
v 0 1 0.2
v 0 1 0.1
v 0 1.1 0.4
v 0 1.1 0.3
v 0 1.1 0.2
v 0 1.1 0.1
v 0 1.3 0.3
v 0 1.3 0.2
v 0 1.5 0.4
v 0 1.5 0.3
v 0 1.5 0.2
v 0 1.5 0.1
v 0 1.8 0.4
v 0 1.8 0.3
v 0 1.8 0.2
v 0 1.8 0.1
v 0 4.3 0.3
v 0 4.3 0.2
v 0 4.4 0.3
v 0 4.4 0.2
v 0.5 1.1 0.3
v 0.5 1.1 0.2
v 0.5 1.2 0.3
v 0.5 1.2 0.2
v 0.5 1.3 0.3
v 0.5 1.3 0.2
v -0.4 1.1 0.3
v -0.4 1.1 0.2
v -0.4 1.2 0.3
v -0.4 1.2 0.2
v -0.4 1.3 0.3
v -0.4 1.3 0.2
v 0.1 0 0.3
v 0.1 0 0.2
v 0.1 0.1 0.3
v 0.1 0.1 0.2
v 0.1 0.2 0.4
v 0.1 0.2 0.3
v 0.1 0.2 0.2
v 0.1 0.2 0.1
v 0.1 0.3 0.4
v 0.1 0.3 0.3
v 0.1 0.3 0.2
v 0.1 0.3 0.1
v 0.1 0.4 0.4
v 0.1 0.4 0.3
v 0.1 0.4 0.2
v 0.1 0.4 0.1
v 0.1 0.5 0.4
v 0.1 0.5 0.3
v 0.1 0.5 0.2
v 0.1 0.5 0.1
v 0.1 0.6 0.4
v 0.1 0.6 0.3
v 0.1 0.6 0.2
v 0.1 0.6 0.1
v 0.1 0.8 0.4
v 0.1 0.8 0.3
v 0.1 0.8 0.2
v 0.1 0.8 0.1
v 0.1 1 0.4
v 0.1 1 0.3
v 0.1 1 0.2
v 0.1 1 0.1
v 0.1 1.1 0.4
v 0.1 1.1 0.3
v 0.1 1.1 0.2
v 0.1 1.1 0.1
v 0.1 1.3 0.3
v 0.1 1.3 0.2
v 0.1 1.5 0.4
v 0.1 1.5 0.3
v 0.1 1.5 0.2
v 0.1 1.5 0.1
v 0.1 1.8 0.4
v 0.1 1.8 0.3
v 0.1 1.8 0.2
v 0.1 1.8 0.1
v 0.1 4.3 0.3
v 0.1 4.3 0.2
v 0.1 4.4 0.3
v 0.1 4.4 0.2
v 0.2 0.2 0.3
v 0.2 0.2 0.2
v 0.2 0.3 0.3
v 0.2 0.3 0.2
v 0.2 0.4 0.3
v 0.2 0.4 0.2
v 0.2 0.5 0.3
v 0.2 0.5 0.2
v 0.2 0.6 0.3
v 0.2 0.6 0.2
v 0.2 0.8 0.3
v 0.2 0.8 0.2
v 0.2 0.9 0.3
v 0.2 0.9 0.2
v 0.2 1 0.4
v 0.2 1 0.3
v 0.2 1 0.2
v 0.2 1 0.1
v 0.2 1.1 0.4
v 0.2 1.1 0.3
v 0.2 1.1 0.2
v 0.2 1.1 0.1
v 0.2 4.2 0.3
v 0.2 4.2 0.2
v 0.2 4.3 0.3
v 0.2 4.3 0.2
v 0.3 0.9 0.3
v 0.3 0.9 0.2
v 0.3 1 0.3
v 0.3 1 0.2
v 0.3 1.1 0.3
v 0.3 1.1 0.2
v 0.3 1.2 0.3
v 0.3 1.2 0.2
v 0.3 1.3 0.3
v 0.3 1.3 0.2
v 0.3 1.5 0.3
v 0.3 1.5 0.2
v 0.3 4.2 0.3
v 0.3 4.2 0.2
v 0.4 1.3 0.3
v 0.4 1.3 0.2
v 0.4 1.5 0.3
v 0.4 1.5 0.2
v 0.6 1 0.3
v 0.6 1 0.2
v 0.6 1.2 0.3
v 0.6 1.2 0.2
v 0.6 1.3 0.3
v 0.6 1.3 0.2
v -0.1 1 0.4
v -0.1 1.1 0.4
v 0 0.2 0.4
v 0 0.3 0.4
v 0 0.4 0.4
v 0 0.5 0.4
v 0 0.6 0.4
v 0 0.8 0.4
v 0 1 0.4
v 0 1.1 0.4
v 0 1.5 0.4
v 0 1.8 0.4
v 0.1 0.2 0.4
v 0.1 0.3 0.4
v 0.1 0.4 0.4
v 0.1 0.5 0.4
v 0.1 0.6 0.4
v 0.1 0.8 0.4
v 0.1 1 0.4
v 0.1 1.1 0.4
v 0.1 1.5 0.4
v 0.1 1.8 0.4
v 0.2 1 0.4
v 0.2 1.1 0.4
v -0.5 1 0.3
v -0.5 1.2 0.3
v -0.5 1.3 0.3
v -0.4 1.1 0.3
v -0.4 1.2 0.3
v -0.4 1.3 0.3
v -0.3 1.3 0.3
v -0.3 1.5 0.3
v -0.2 0.9 0.3
v -0.2 1 0.3
v -0.2 1.1 0.3
v -0.2 1.2 0.3
v -0.2 1.3 0.3
v -0.2 1.5 0.3
v -0.2 4.2 0.3
v -0.1 0.2 0.3
v -0.1 0.3 0.3
v -0.1 0.4 0.3
v -0.1 0.5 0.3
v -0.1 0.6 0.3
v -0.1 0.8 0.3
v -0.1 0.9 0.3
v -0.1 1 0.3
v -0.1 1.1 0.3
v -0.1 1.2 0.3
v -0.1 1.3 0.3
v -0.1 1.5 0.3
v -0.1 2.8 0.3
v -0.1 3.7 0.3
v -0.1 4.2 0.3
v -0.1 4.3 0.3
v 0 0 0.3
v 0 0.1 0.3
v 0 0.2 0.3
v 0 0.3 0.3
v 0 0.4 0.3
v 0 0.5 0.3
v 0 0.6 0.3
v 0 0.8 0.3
v 0 1 0.3
v 0 1.1 0.3
v 0 1.3 0.3
v 0 1.5 0.3
v 0 1.8 0.3
v 0 2 0.3
v 0 2.8 0.3
v 0 3.7 0.3
v 0 4.2 0.3
v 0 4.3 0.3
v 0 4.4 0.3
v 0.1 0 0.3
v 0.1 0.1 0.3
v 0.1 0.2 0.3
v 0.1 0.3 0.3
v 0.1 0.4 0.3
v 0.1 0.5 0.3
v 0.1 0.6 0.3
v 0.1 0.8 0.3
v 0.1 1 0.3
v 0.1 1.1 0.3
v 0.1 1.3 0.3
v 0.1 1.5 0.3
v 0.1 1.8 0.3
v 0.1 2 0.3
v 0.1 2.8 0.3
v 0.1 3.7 0.3
v 0.1 4.2 0.3
v 0.1 4.3 0.3
v 0.1 4.4 0.3
v 0.2 0.2 0.3
v 0.2 0.3 0.3
v 0.2 0.4 0.3
v 0.2 0.5 0.3
v 0.2 0.6 0.3
v 0.2 0.8 0.3
v 0.2 0.9 0.3
v 0.2 1 0.3
v 0.2 1.1 0.3
v 0.2 1.2 0.3
v 0.2 1.3 0.3
v 0.2 1.5 0.3
v 0.2 2.8 0.3
v 0.2 3.7 0.3
v 0.2 4.2 0.3
v 0.2 4.3 0.3
v 0.3 0.9 0.3
v 0.3 1 0.3
v 0.3 1.1 0.3
v 0.3 1.2 0.3
v 0.3 1.3 0.3
v 0.3 1.5 0.3
v 0.3 4.2 0.3
v 0.4 1.3 0.3
v 0.4 1.5 0.3
v 0.5 1.1 0.3
v 0.5 1.2 0.3
v 0.5 1.3 0.3
v 0.6 1 0.3
v 0.6 1.2 0.3
v 0.6 1.3 0.3
v -0.5 1 0.2
v -0.5 1.2 0.2
v -0.5 1.3 0.2
v -0.4 1.1 0.2
v -0.4 1.2 0.2
v -0.4 1.3 0.2
v -0.3 1.3 0.2
v -0.3 1.5 0.2
v -0.2 0.9 0.2
v -0.2 1 0.2
v -0.2 1.1 0.2
v -0.2 1.2 0.2
v -0.2 1.3 0.2
v -0.2 1.5 0.2
v -0.2 4.2 0.2
v -0.1 0.2 0.2
v -0.1 0.3 0.2
v -0.1 0.4 0.2
v -0.1 0.5 0.2
v -0.1 0.6 0.2
v -0.1 0.8 0.2
v -0.1 0.9 0.2
v -0.1 1 0.2
v -0.1 1.1 0.2
v -0.1 1.2 0.2
v -0.1 1.3 0.2
v -0.1 1.5 0.2
v -0.1 2.8 0.2
v -0.1 3.7 0.2
v -0.1 4.2 0.2
v -0.1 4.3 0.2
v 0 0 0.2
v 0 0.1 0.2
v 0 0.2 0.2
v 0 0.3 0.2
v 0 0.4 0.2
v 0 0.5 0.2
v 0 0.6 0.2
v 0 0.8 0.2
v 0 1 0.2
v 0 1.1 0.2
v 0 1.3 0.2
v 0 1.5 0.2
v 0 1.8 0.2
v 0 2 0.2
v 0 2.8 0.2
v 0 3.7 0.2
v 0 4.2 0.2
v 0 4.3 0.2
v 0 4.4 0.2
v 0.1 0 0.2
v 0.1 0.1 0.2
v 0.1 0.2 0.2
v 0.1 0.3 0.2
v 0.1 0.4 0.2
v 0.1 0.5 0.2
v 0.1 0.6 0.2
v 0.1 0.8 0.2
v 0.1 1 0.2
v 0.1 1.1 0.2
v 0.1 1.3 0.2
v 0.1 1.5 0.2
v 0.1 1.8 0.2
v 0.1 2 0.2
v 0.1 2.8 0.2
v 0.1 3.7 0.2
v 0.1 4.2 0.2
v 0.1 4.3 0.2
v 0.1 4.4 0.2
v 0.2 0.2 0.2
v 0.2 0.3 0.2
v 0.2 0.4 0.2
v 0.2 0.5 0.2
v 0.2 0.6 0.2
v 0.2 0.8 0.2
v 0.2 0.9 0.2
v 0.2 1 0.2
v 0.2 1.1 0.2
v 0.2 1.2 0.2
v 0.2 1.3 0.2
v 0.2 1.5 0.2
v 0.2 2.8 0.2
v 0.2 3.7 0.2
v 0.2 4.2 0.2
v 0.2 4.3 0.2
v 0.3 0.9 0.2
v 0.3 1 0.2
v 0.3 1.1 0.2
v 0.3 1.2 0.2
v 0.3 1.3 0.2
v 0.3 1.5 0.2
v 0.3 4.2 0.2
v 0.4 1.3 0.2
v 0.4 1.5 0.2
v 0.5 1.1 0.2
v 0.5 1.2 0.2
v 0.5 1.3 0.2
v 0.6 1 0.2
v 0.6 1.2 0.2
v 0.6 1.3 0.2
v -0.1 1 0.1
v -0.1 1.1 0.1
v 0 0.2 0.1
v 0 0.3 0.1
v 0 0.4 0.1
v 0 0.5 0.1
v 0 0.6 0.1
v 0 0.8 0.1
v 0 1 0.1
v 0 1.1 0.1
v 0 1.5 0.1
v 0 1.8 0.1
v 0.1 0.2 0.1
v 0.1 0.3 0.1
v 0.1 0.4 0.1
v 0.1 0.5 0.1
v 0.1 0.6 0.1
v 0.1 0.8 0.1
v 0.1 1 0.1
v 0.1 1.1 0.1
v 0.1 1.5 0.1
v 0.1 1.8 0.1
v 0.2 1 0.1
v 0.2 1.1 0.1
v 0 0 0.3
v 0.1 0 0.3
v 0 0 0.2
v 0.1 0 0.2
v 0 0.2 0.4
v 0.1 0.2 0.4
v -0.1 0.2 0.3
v 0 0.2 0.3
v 0.1 0.2 0.3
v 0.2 0.2 0.3
v -0.1 0.2 0.2
v 0 0.2 0.2
v 0.1 0.2 0.2
v 0.2 0.2 0.2
v 0 0.2 0.1
v 0.1 0.2 0.1
v -0.2 0.9 0.3
v -0.1 0.9 0.3
v 0.2 0.9 0.3
v 0.3 0.9 0.3
v -0.2 0.9 0.2
v -0.1 0.9 0.2
v 0.2 0.9 0.2
v 0.3 0.9 0.2
v -0.1 1 0.4
v 0 1 0.4
v 0.1 1 0.4
v 0.2 1 0.4
v -0.5 1 0.3
v -0.2 1 0.3
v -0.1 1 0.3
v 0 1 0.3
v 0.1 1 0.3
v 0.2 1 0.3
v 0.3 1 0.3
v 0.6 1 0.3
v -0.5 1 0.2
v -0.2 1 0.2
v -0.1 1 0.2
v 0 1 0.2
v 0.1 1 0.2
v 0.2 1 0.2
v 0.3 1 0.2
v 0.6 1 0.2
v -0.1 1 0.1
v 0 1 0.1
v 0.1 1 0.1
v 0.2 1 0.1
v -0.3 1.3 0.3
v -0.2 1.3 0.3
v 0.3 1.3 0.3
v 0.4 1.3 0.3
v -0.3 1.3 0.2
v -0.2 1.3 0.2
v 0.3 1.3 0.2
v 0.4 1.3 0.2
v -0.1 1.1 0.4
v 0 1.1 0.4
v 0.1 1.1 0.4
v 0.2 1.1 0.4
v -0.4 1.1 0.3
v -0.2 1.1 0.3
v -0.1 1.1 0.3
v 0 1.1 0.3
v 0.1 1.1 0.3
v 0.2 1.1 0.3
v 0.3 1.1 0.3
v 0.5 1.1 0.3
v -0.4 1.1 0.2
v -0.2 1.1 0.2
v -0.1 1.1 0.2
v 0 1.1 0.2
v 0.1 1.1 0.2
v 0.2 1.1 0.2
v 0.3 1.1 0.2
v 0.5 1.1 0.2
v -0.1 1.1 0.1
v 0 1.1 0.1
v 0.1 1.1 0.1
v 0.2 1.1 0.1
v -0.5 1.3 0.3
v -0.4 1.3 0.3
v 0.5 1.3 0.3
v 0.6 1.3 0.3
v -0.5 1.3 0.2
v -0.4 1.3 0.2
v 0.5 1.3 0.2
v 0.6 1.3 0.2
v -0.3 1.5 0.3
v -0.2 1.5 0.3
v 0.3 1.5 0.3
v 0.4 1.5 0.3
v -0.3 1.5 0.2
v -0.2 1.5 0.2
v 0.3 1.5 0.2
v 0.4 1.5 0.2
v 0 1.8 0.4
v 0.1 1.8 0.4
v 0 1.8 0.3
v 0.1 1.8 0.3
v 0 1.8 0.2
v 0.1 1.8 0.2
v 0 1.8 0.1
v 0.1 1.8 0.1
v -0.2 4.2 0.3
v -0.1 4.2 0.3
v 0.2 4.2 0.3
v 0.3 4.2 0.3
v -0.2 4.2 0.2
v -0.1 4.2 0.2
v 0.2 4.2 0.2
v 0.3 4.2 0.2
v -0.1 4.3 0.3
v 0 4.3 0.3
v 0.1 4.3 0.3
v 0.2 4.3 0.3
v -0.1 4.3 0.2
v 0 4.3 0.2
v 0.1 4.3 0.2
v 0.2 4.3 0.2
v 0 4.4 0.3
v 0.1 4.4 0.3
v 0 4.4 0.2
v 0.1 4.4 0.2

# faces
f 3/5/1 2/5/1 1/5/1
f 4/5/1 2/5/1 3/5/1
f 5/1/1 4/1/1 3/1/1
f 6/1/1 4/1/1 5/1/1
f 9/1/1 8/1/1 7/1/1
f 10/1/1 8/1/1 9/1/1
f 13/5/1 12/5/1 11/5/1
f 14/5/1 12/5/1 13/5/1
f 17/5/1 16/5/1 15/5/1
f 18/5/1 16/5/1 17/5/1
f 19/1/1 18/1/1 17/1/1
f 20/1/1 18/1/1 19/1/1
f 23/1/1 22/1/1 21/1/1
f 24/1/1 22/1/1 23/1/1
f 27/4/1 26/4/1 25/4/1
f 28/4/1 26/4/1 27/4/1
f 29/2/1 28/2/1 27/2/1
f 30/2/1 28/2/1 29/2/1
f 31/4/1 30/4/1 29/4/1
f 32/4/1 30/4/1 31/4/1
f 33/2/1 32/2/1 31/2/1
f 34/2/1 32/2/1 33/2/1
f 35/4/1 34/4/1 33/4/1
f 36/4/1 34/4/1 35/4/1
f 37/5/1 36/5/1 35/5/1
f 38/5/1 36/5/1 37/5/1
f 43/5/1 40/5/1 39/5/1
f 44/5/1 40/5/1 43/5/1
f 45/5/1 42/5/1 41/5/1
f 46/5/1 42/5/1 45/5/1
f 49/1/1 48/1/1 47/1/1
f 50/1/1 48/1/1 49/1/1
f 53/5/1 52/5/1 51/5/1
f 54/5/1 52/5/1 53/5/1
f 56/1/1 54/1/1 53/1/1
f 57/1/1 54/1/1 56/1/1
f 59/4/1 56/4/1 55/4/1
f 60/4/1 56/4/1 59/4/1
f 61/4/1 58/4/1 57/4/1
f 62/4/1 58/4/1 61/4/1
f 63/2/1 60/2/1 59/2/1
f 64/2/1 60/2/1 63/2/1
f 65/2/1 62/2/1 61/2/1
f 66/2/1 62/2/1 65/2/1
f 67/4/1 64/4/1 63/4/1
f 68/4/1 64/4/1 67/4/1
f 69/4/1 66/4/1 65/4/1
f 70/4/1 66/4/1 69/4/1
f 71/2/1 68/2/1 67/2/1
f 72/2/1 68/2/1 71/2/1
f 73/2/1 70/2/1 69/2/1
f 74/2/1 70/2/1 73/2/1
f 75/4/1 72/4/1 71/4/1
f 76/4/1 72/4/1 75/4/1
f 77/4/1 74/4/1 73/4/1
f 78/4/1 74/4/1 77/4/1
f 79/5/1 76/5/1 75/5/1
f 80/5/1 76/5/1 79/5/1
f 81/5/1 78/5/1 77/5/1
f 82/5/1 78/5/1 81/5/1
f 87/5/1 84/5/1 83/5/1
f 88/5/1 86/5/1 85/5/1
f 89/5/1 87/5/1 83/5/1
f 90/5/1 87/5/1 89/5/1
f 91/5/1 86/5/1 88/5/1
f 92/5/1 86/5/1 91/5/1
f 93/1/1 90/1/1 89/1/1
f 94/1/1 90/1/1 93/1/1
f 95/1/1 92/1/1 91/1/1
f 96/1/1 92/1/1 95/1/1
f 99/1/1 98/1/1 97/1/1
f 100/1/1 98/1/1 99/1/1
f 103/5/1 102/5/1 101/5/1
f 104/5/1 102/5/1 103/5/1
f 105/1/1 104/1/1 103/1/1
f 106/1/1 104/1/1 105/1/1
f 107/5/2 108/5/2 109/5/2
f 109/5/2 108/5/2 110/5/2
f 109/1/2 110/1/2 111/1/2
f 111/1/2 110/1/2 112/1/2
f 113/5/2 114/5/2 115/5/2
f 115/5/2 114/5/2 116/5/2
f 115/1/2 116/1/2 118/1/2
f 118/1/2 116/1/2 119/1/2
f 117/4/2 118/4/2 121/4/2
f 121/4/2 118/4/2 122/4/2
f 119/4/2 120/4/2 123/4/2
f 123/4/2 120/4/2 124/4/2
f 121/2/2 122/2/2 125/2/2
f 125/2/2 122/2/2 126/2/2
f 123/2/2 124/2/2 127/2/2
f 127/2/2 124/2/2 128/2/2
f 125/4/2 126/4/2 129/4/2
f 129/4/2 126/4/2 130/4/2
f 127/4/2 128/4/2 131/4/2
f 131/4/2 128/4/2 132/4/2
f 129/2/2 130/2/2 133/2/2
f 133/2/2 130/2/2 134/2/2
f 131/2/2 132/2/2 135/2/2
f 135/2/2 132/2/2 136/2/2
f 133/4/2 134/4/2 137/4/2
f 137/4/2 134/4/2 138/4/2
f 135/4/2 136/4/2 139/4/2
f 139/4/2 136/4/2 140/4/2
f 137/5/2 138/5/2 141/5/2
f 141/5/2 138/5/2 142/5/2
f 139/5/2 140/5/2 143/5/2
f 143/5/2 140/5/2 144/5/2
f 145/5/2 146/5/2 149/5/2
f 147/5/2 148/5/2 150/5/2
f 145/5/2 149/5/2 151/5/2
f 151/5/2 149/5/2 152/5/2
f 150/5/2 148/5/2 153/5/2
f 153/5/2 148/5/2 154/5/2
f 151/1/2 152/1/2 155/1/2
f 155/1/2 152/1/2 156/1/2
f 153/1/2 154/1/2 157/1/2
f 157/1/2 154/1/2 158/1/2
f 159/1/2 160/1/2 161/1/2
f 161/1/2 160/1/2 162/1/2
f 163/4/2 164/4/2 165/4/2
f 165/4/2 164/4/2 166/4/2
f 165/2/2 166/2/2 167/2/2
f 167/2/2 166/2/2 168/2/2
f 167/4/2 168/4/2 169/4/2
f 169/4/2 168/4/2 170/4/2
f 169/2/2 170/2/2 171/2/2
f 171/2/2 170/2/2 172/2/2
f 171/4/2 172/4/2 173/4/2
f 173/4/2 172/4/2 174/4/2
f 173/5/2 174/5/2 175/5/2
f 175/5/2 174/5/2 176/5/2
f 177/5/2 178/5/2 181/5/2
f 181/5/2 178/5/2 182/5/2
f 179/5/2 180/5/2 183/5/2
f 183/5/2 180/5/2 184/5/2
f 185/1/2 186/1/2 187/1/2
f 187/1/2 186/1/2 188/1/2
f 189/5/2 190/5/2 191/5/2
f 191/5/2 190/5/2 192/5/2
f 193/5/2 194/5/2 195/5/2
f 195/5/2 194/5/2 196/5/2
f 195/1/2 196/1/2 197/1/2
f 197/1/2 196/1/2 198/1/2
f 199/1/2 200/1/2 201/1/2
f 201/1/2 200/1/2 202/1/2
f 203/1/2 204/1/2 205/1/2
f 205/1/2 204/1/2 206/1/2
f 207/5/2 208/5/2 209/5/2
f 209/5/2 208/5/2 210/5/2
f 209/1/2 210/1/2 211/1/2
f 211/1/2 210/1/2 212/1/2
f 221/5/3 214/5/3 213/5/3
f 222/5/3 214/5/3 221/5/3
f 225/4/3 216/4/3 215/4/3
f 226/2/3 217/2/3 216/2/3
f 226/4/3 216/4/3 225/4/3
f 227/4/3 218/4/3 217/4/3
f 227/2/3 217/2/3 226/2/3
f 228/2/3 219/2/3 218/2/3
f 228/4/3 218/4/3 227/4/3
f 229/4/3 220/4/3 219/4/3
f 229/2/3 219/2/3 228/2/3
f 230/5/3 221/5/3 220/5/3
f 230/4/3 220/4/3 229/4/3
f 231/1/3 222/1/3 221/1/3
f 231/5/3 221/5/3 230/5/3
f 232/5/3 223/5/3 222/5/3
f 232/1/3 222/1/3 231/1/3
f 233/1/3 224/1/3 223/1/3
f 233/5/3 223/5/3 232/5/3
f 234/1/3 224/1/3 233/1/3
f 235/5/3 232/5/3 231/5/3
f 236/5/3 232/5/3 235/5/3
f 240/5/3 238/5/3 237/5/3
f 241/1/3 239/1/3 238/1/3
f 241/5/3 238/5/3 240/5/3
f 242/1/3 239/1/3 241/1/3
f 246/5/3 240/5/3 237/5/3
f 247/5/3 240/5/3 246/5/3
f 249/1/3 244/1/3 243/1/3
f 250/1/3 244/1/3 249/1/3
f 258/5/3 248/5/3 247/5/3
f 258/5/3 246/5/3 245/5/3
f 258/5/3 247/5/3 246/5/3
f 259/5/3 248/5/3 258/5/3
f 260/5/3 248/5/3 259/5/3
f 261/1/3 249/1/3 248/1/3
f 261/5/3 248/5/3 260/5/3
f 262/3/3 250/3/3 249/3/3
f 262/1/3 249/1/3 261/1/3
f 263/1/3 251/1/3 250/1/3
f 263/3/3 250/3/3 262/3/3
f 264/1/3 251/1/3 263/1/3
f 265/1/3 251/1/3 264/1/3
f 266/1/3 251/1/3 265/1/3
f 270/4/3 253/4/3 252/4/3
f 271/2/3 254/2/3 253/2/3
f 271/4/3 253/4/3 270/4/3
f 272/4/3 255/4/3 254/4/3
f 272/2/3 254/2/3 271/2/3
f 273/2/3 256/2/3 255/2/3
f 273/4/3 255/4/3 272/4/3
f 274/4/3 257/4/3 256/4/3
f 274/2/3 256/2/3 273/2/3
f 275/5/3 258/5/3 257/5/3
f 275/4/3 257/4/3 274/4/3
f 275/5/3 259/5/3 258/5/3
f 276/5/3 259/5/3 275/5/3
f 277/5/3 261/5/3 260/5/3
f 277/5/3 262/5/3 261/5/3
f 278/3/3 263/3/3 262/3/3
f 278/5/3 262/5/3 277/5/3
f 278/3/3 264/3/3 263/3/3
f 279/3/3 264/3/3 278/3/3
f 280/3/3 264/3/3 279/3/3
f 281/3/3 264/3/3 280/3/3
f 282/1/3 265/1/3 264/1/3
f 282/3/3 264/3/3 281/3/3
f 283/3/3 266/3/3 265/3/3
f 283/1/3 265/1/3 282/1/3
f 284/1/3 267/1/3 266/1/3
f 284/3/3 266/3/3 283/3/3
f 285/1/3 267/1/3 284/1/3
f 287/5/3 269/5/3 268/5/3
f 288/1/3 270/1/3 269/1/3
f 288/5/3 269/5/3 287/5/3
f 289/1/3 270/1/3 288/1/3
f 299/1/3 281/1/3 280/1/3
f 300/3/3 285/3/3 284/3/3
f 300/3/3 284/3/3 283/3/3
f 300/1/3 281/1/3 299/1/3
f 300/3/3 283/3/3 282/3/3
f 300/3/3 282/3/3 281/3/3
f 301/3/3 285/3/3 300/3/3
f 302/3/3 285/3/3 301/3/3
f 303/3/3 285/3/3 302/3/3
f 304/1/3 286/1/3 285/1/3
f 304/3/3 285/3/3 303/3/3
f 305/1/3 286/1/3 304/1/3
f 306/4/3 290/4/3 289/4/3
f 307/2/3 291/2/3 290/2/3
f 307/4/3 290/4/3 306/4/3
f 308/4/3 292/4/3 291/4/3
f 308/2/3 291/2/3 307/2/3
f 309/2/3 293/2/3 292/2/3
f 309/4/3 292/4/3 308/4/3
f 310/4/3 294/4/3 293/4/3
f 310/2/3 293/2/3 309/2/3
f 311/5/3 295/5/3 294/5/3
f 311/4/3 294/4/3 310/4/3
f 312/5/3 295/5/3 311/5/3
f 313/5/3 295/5/3 312/5/3
f 314/5/3 297/5/3 296/5/3
f 315/5/3 297/5/3 314/5/3
f 316/3/3 299/3/3 298/3/3
f 316/5/3 297/5/3 315/5/3
f 316/3/3 298/3/3 297/3/3
f 316/3/3 300/3/3 299/3/3
f 316/3/3 301/3/3 300/3/3
f 317/3/3 301/3/3 316/3/3
f 318/1/3 302/1/3 301/1/3
f 318/3/3 301/3/3 317/3/3
f 319/3/3 303/3/3 302/3/3
f 319/1/3 302/1/3 318/1/3
f 320/1/3 304/1/3 303/1/3
f 320/3/3 303/3/3 319/3/3
f 321/1/3 304/1/3 320/1/3
f 322/5/3 315/5/3 314/5/3
f 322/5/3 313/5/3 312/5/3
f 322/5/3 314/5/3 313/5/3
f 323/5/3 315/5/3 322/5/3
f 324/5/3 315/5/3 323/5/3
f 325/1/3 316/1/3 315/1/3
f 325/5/3 315/5/3 324/5/3
f 326/3/3 317/3/3 316/3/3
f 326/1/3 316/1/3 325/1/3
f 327/1/3 318/1/3 317/1/3
f 327/3/3 317/3/3 326/3/3
f 327/1/3 320/1/3 319/1/3
f 327/1/3 319/1/3 318/1/3
f 328/1/3 320/1/3 327/1/3
f 329/1/3 327/1/3 326/1/3
f 330/1/3 327/1/3 329/1/3
f 331/5/3 324/5/3 323/5/3
f 334/5/3 331/5/3 323/5/3
f 334/5/3 332/5/3 331/5/3
f 335/1/3 333/1/3 332/1/3
f 335/5/3 332/5/3 334/5/3
f 336/1/3 333/1/3 335/1/3
f 337/5/4 338/5/4 340/5/4
f 338/1/4 339/1/4 341/1/4
f 340/5/4 338/5/4 341/5/4
f 341/1/4 339/1/4 342/1/4
f 337/5/4 340/5/4 346/5/4
f 346/5/4 340/5/4 347/5/4
f 343/1/4 344/1/4 349/1/4
f 349/1/4 344/1/4 350/1/4
f 347/5/4 348/5/4 358/5/4
f 345/5/4 346/5/4 358/5/4
f 346/5/4 347/5/4 358/5/4
f 358/5/4 348/5/4 359/5/4
f 359/5/4 348/5/4 360/5/4
f 348/1/4 349/1/4 361/1/4
f 360/5/4 348/5/4 361/5/4
f 349/3/4 350/3/4 362/3/4
f 361/1/4 349/1/4 362/1/4
f 350/1/4 351/1/4 363/1/4
f 362/3/4 350/3/4 363/3/4
f 363/1/4 351/1/4 364/1/4
f 364/1/4 351/1/4 365/1/4
f 365/1/4 351/1/4 366/1/4
f 352/4/4 353/4/4 370/4/4
f 353/2/4 354/2/4 371/2/4
f 370/4/4 353/4/4 371/4/4
f 354/4/4 355/4/4 372/4/4
f 371/2/4 354/2/4 372/2/4
f 355/2/4 356/2/4 373/2/4
f 372/4/4 355/4/4 373/4/4
f 356/4/4 357/4/4 374/4/4
f 373/2/4 356/2/4 374/2/4
f 357/5/4 358/5/4 375/5/4
f 374/4/4 357/4/4 375/4/4
f 358/5/4 359/5/4 375/5/4
f 375/5/4 359/5/4 376/5/4
f 360/5/4 361/5/4 377/5/4
f 361/5/4 362/5/4 377/5/4
f 362/3/4 363/3/4 378/3/4
f 377/5/4 362/5/4 378/5/4
f 363/3/4 364/3/4 378/3/4
f 378/3/4 364/3/4 379/3/4
f 379/3/4 364/3/4 380/3/4
f 380/3/4 364/3/4 381/3/4
f 364/1/4 365/1/4 382/1/4
f 381/3/4 364/3/4 382/3/4
f 365/3/4 366/3/4 383/3/4
f 382/1/4 365/1/4 383/1/4
f 366/1/4 367/1/4 384/1/4
f 383/3/4 366/3/4 384/3/4
f 384/1/4 367/1/4 385/1/4
f 368/5/4 369/5/4 387/5/4
f 369/1/4 370/1/4 388/1/4
f 387/5/4 369/5/4 388/5/4
f 388/1/4 370/1/4 389/1/4
f 380/1/4 381/1/4 399/1/4
f 384/3/4 385/3/4 400/3/4
f 383/3/4 384/3/4 400/3/4
f 399/1/4 381/1/4 400/1/4
f 382/3/4 383/3/4 400/3/4
f 381/3/4 382/3/4 400/3/4
f 400/3/4 385/3/4 401/3/4
f 401/3/4 385/3/4 402/3/4
f 402/3/4 385/3/4 403/3/4
f 385/1/4 386/1/4 404/1/4
f 403/3/4 385/3/4 404/3/4
f 404/1/4 386/1/4 405/1/4
f 389/4/4 390/4/4 406/4/4
f 390/2/4 391/2/4 407/2/4
f 406/4/4 390/4/4 407/4/4
f 391/4/4 392/4/4 408/4/4
f 407/2/4 391/2/4 408/2/4
f 392/2/4 393/2/4 409/2/4
f 408/4/4 392/4/4 409/4/4
f 393/4/4 394/4/4 410/4/4
f 409/2/4 393/2/4 410/2/4
f 394/5/4 395/5/4 411/5/4
f 410/4/4 394/4/4 411/4/4
f 411/5/4 395/5/4 412/5/4
f 412/5/4 395/5/4 413/5/4
f 396/5/4 397/5/4 414/5/4
f 414/5/4 397/5/4 415/5/4
f 398/3/4 399/3/4 416/3/4
f 415/5/4 397/5/4 416/5/4
f 397/3/4 398/3/4 416/3/4
f 399/3/4 400/3/4 416/3/4
f 400/3/4 401/3/4 416/3/4
f 416/3/4 401/3/4 417/3/4
f 401/1/4 402/1/4 418/1/4
f 417/3/4 401/3/4 418/3/4
f 402/3/4 403/3/4 419/3/4
f 418/1/4 402/1/4 419/1/4
f 403/1/4 404/1/4 420/1/4
f 419/3/4 403/3/4 420/3/4
f 420/1/4 404/1/4 421/1/4
f 414/5/4 415/5/4 422/5/4
f 412/5/4 413/5/4 422/5/4
f 413/5/4 414/5/4 422/5/4
f 422/5/4 415/5/4 423/5/4
f 423/5/4 415/5/4 424/5/4
f 415/1/4 416/1/4 425/1/4
f 424/5/4 415/5/4 425/5/4
f 416/3/4 417/3/4 426/3/4
f 425/1/4 416/1/4 426/1/4
f 417/1/4 418/1/4 427/1/4
f 426/3/4 417/3/4 427/3/4
f 419/1/4 420/1/4 427/1/4
f 418/1/4 419/1/4 427/1/4
f 427/1/4 420/1/4 428/1/4
f 426/1/4 427/1/4 429/1/4
f 429/1/4 427/1/4 430/1/4
f 423/5/4 424/5/4 431/5/4
f 423/5/4 431/5/4 434/5/4
f 431/5/4 432/5/4 434/5/4
f 432/1/4 433/1/4 435/1/4
f 434/5/4 432/5/4 435/5/4
f 435/1/4 433/1/4 436/1/4
f 437/5/4 438/5/4 445/5/4
f 445/5/4 438/5/4 446/5/4
f 439/4/4 440/4/4 449/4/4
f 440/2/4 441/2/4 450/2/4
f 449/4/4 440/4/4 450/4/4
f 441/4/4 442/4/4 451/4/4
f 450/2/4 441/2/4 451/2/4
f 442/2/4 443/2/4 452/2/4
f 451/4/4 442/4/4 452/4/4
f 443/4/4 444/4/4 453/4/4
f 452/2/4 443/2/4 453/2/4
f 444/5/4 445/5/4 454/5/4
f 453/4/4 444/4/4 454/4/4
f 445/1/4 446/1/4 455/1/4
f 454/5/4 445/5/4 455/5/4
f 446/5/4 447/5/4 456/5/4
f 455/1/4 446/1/4 456/1/4
f 447/1/4 448/1/4 457/1/4
f 456/5/4 447/5/4 457/5/4
f 457/1/4 448/1/4 458/1/4
f 455/5/4 456/5/4 459/5/4
f 459/5/4 456/5/4 460/5/4
f 463/5/5 462/5/5 461/5/5
f 464/5/5 462/5/5 463/5/5
f 468/4/5 466/4/5 465/4/5
f 469/4/5 466/4/5 468/4/5
f 471/4/5 468/4/5 467/4/5
f 472/4/5 468/4/5 471/4/5
f 473/4/5 470/4/5 469/4/5
f 474/4/5 470/4/5 473/4/5
f 475/4/5 473/4/5 472/4/5
f 476/4/5 473/4/5 475/4/5
f 481/5/5 478/5/5 477/5/5
f 482/5/5 478/5/5 481/5/5
f 483/5/5 480/5/5 479/5/5
f 484/5/5 480/5/5 483/5/5
f 491/5/5 486/5/5 485/5/5
f 492/5/5 486/5/5 491/5/5
f 493/5/5 488/5/5 487/5/5
f 494/5/5 488/5/5 493/5/5
f 497/5/5 490/5/5 489/5/5
f 498/5/5 490/5/5 497/5/5
f 503/5/5 496/5/5 495/5/5
f 504/5/5 496/5/5 503/5/5
f 505/5/5 500/5/5 499/5/5
f 506/5/5 500/5/5 505/5/5
f 507/5/5 502/5/5 501/5/5
f 508/5/5 502/5/5 507/5/5
f 513/1/5 510/1/5 509/1/5
f 514/1/5 510/1/5 513/1/5
f 515/1/5 512/1/5 511/1/5
f 516/1/5 512/1/5 515/1/5
f 517/5/6 518/5/6 523/5/6
f 523/5/6 518/5/6 524/5/6
f 519/5/6 520/5/6 525/5/6
f 525/5/6 520/5/6 526/5/6
f 521/5/6 522/5/6 529/5/6
f 529/5/6 522/5/6 530/5/6
f 527/5/6 528/5/6 535/5/6
f 535/5/6 528/5/6 536/5/6
f 531/5/6 532/5/6 537/5/6
f 537/5/6 532/5/6 538/5/6
f 533/5/6 534/5/6 539/5/6
f 539/5/6 534/5/6 540/5/6
f 541/1/6 542/1/6 545/1/6
f 545/1/6 542/1/6 546/1/6
f 543/1/6 544/1/6 547/1/6
f 547/1/6 544/1/6 548/1/6
f 549/1/6 550/1/6 553/1/6
f 553/1/6 550/1/6 554/1/6
f 551/1/6 552/1/6 555/1/6
f 555/1/6 552/1/6 556/1/6
f 557/1/6 558/1/6 559/1/6
f 559/1/6 558/1/6 560/1/6
f 561/1/6 562/1/6 563/1/6
f 563/1/6 562/1/6 564/1/6
f 565/1/6 566/1/6 569/1/6
f 569/1/6 566/1/6 570/1/6
f 567/1/6 568/1/6 571/1/6
f 571/1/6 568/1/6 572/1/6
f 573/1/6 574/1/6 577/1/6
f 577/1/6 574/1/6 578/1/6
f 575/1/6 576/1/6 579/1/6
f 579/1/6 576/1/6 580/1/6
f 581/1/6 582/1/6 583/1/6
f 583/1/6 582/1/6 584/1/6
