# MagicaVoxel @ Ephtracy

# group
o 

# material
mtllib Pocion_5_Mana.mtl
usemtl palette

# normals
vn -1 0 0
vn 1 0 0
vn 0 0 1
vn 0 0 -1
vn 0 -1 0
vn 0 1 0

# texcoords
vt 0.0292969 0.5
vt 0.0449219 0.5
vt 0.0566406 0.5

# verts
v -0.2 0 0.1
v -0.2 0 -0.2
v -0.2 0.2 0.1
v -0.2 0.2 -0.2
v -0.2 0.3 0.1
v -0.2 0.3 -0.2
v -0.2 0.5 0.1
v -0.2 0.5 -0.2
v -0.1 0.5 -1.49012e-08
v -0.1 0.5 -0.1
v -0.1 0.7 -1.49012e-08
v -0.1 0.7 -0.1
v -0.1 0.8 -1.49012e-08
v -0.1 0.8 -0.1
v 0 0.5 -1.49012e-08
v 0 0.5 -0.1
v 0 0.7 -1.49012e-08
v 0 0.7 -0.1
v 0 0.8 -1.49012e-08
v 0 0.8 -0.1
v 0.1 0 0.1
v 0.1 0 -0.2
v 0.1 0.2 0.1
v 0.1 0.2 -0.2
v 0.1 0.3 0.1
v 0.1 0.3 -0.2
v 0.1 0.5 0.1
v 0.1 0.5 -0.2
v -0.2 0 0.1
v -0.2 0.2 0.1
v -0.2 0.3 0.1
v -0.2 0.5 0.1
v 0.1 0 0.1
v 0.1 0.2 0.1
v 0.1 0.3 0.1
v 0.1 0.5 0.1
v -0.1 0.5 -1.49012e-08
v -0.1 0.7 -1.49012e-08
v -0.1 0.8 -1.49012e-08
v 0 0.5 -1.49012e-08
v 0 0.7 -1.49012e-08
v 0 0.8 -1.49012e-08
v -0.1 0.5 -0.1
v -0.1 0.7 -0.1
v -0.1 0.8 -0.1
v 0 0.5 -0.1
v 0 0.7 -0.1
v 0 0.8 -0.1
v -0.2 0 -0.2
v -0.2 0.2 -0.2
v -0.2 0.3 -0.2
v -0.2 0.5 -0.2
v 0.1 0 -0.2
v 0.1 0.2 -0.2
v 0.1 0.3 -0.2
v 0.1 0.5 -0.2
v -0.2 0 0.1
v 0.1 0 0.1
v -0.2 0 -0.2
v 0.1 0 -0.2
v -0.2 0.5 0.1
v 0.1 0.5 0.1
v -0.1 0.5 -1.49012e-08
v 0 0.5 -1.49012e-08
v -0.1 0.5 -0.1
v 0 0.5 -0.1
v -0.2 0.5 -0.2
v 0.1 0.5 -0.2
v -0.1 0.8 -1.49012e-08
v 0 0.8 -1.49012e-08
v -0.1 0.8 -0.1
v 0 0.8 -0.1

# faces
f 3/1/1 2/1/1 1/1/1
f 4/1/1 2/1/1 3/1/1
f 5/2/1 4/2/1 3/2/1
f 6/2/1 4/2/1 5/2/1
f 7/1/1 6/1/1 5/1/1
f 8/1/1 6/1/1 7/1/1
f 11/1/1 10/1/1 9/1/1
f 12/1/1 10/1/1 11/1/1
f 13/3/1 12/3/1 11/3/1
f 14/3/1 12/3/1 13/3/1
f 15/1/2 16/1/2 17/1/2
f 17/1/2 16/1/2 18/1/2
f 17/3/2 18/3/2 19/3/2
f 19/3/2 18/3/2 20/3/2
f 21/1/2 22/1/2 23/1/2
f 23/1/2 22/1/2 24/1/2
f 23/2/2 24/2/2 25/2/2
f 25/2/2 24/2/2 26/2/2
f 25/1/2 26/1/2 27/1/2
f 27/1/2 26/1/2 28/1/2
f 33/1/3 30/1/3 29/1/3
f 34/2/3 31/2/3 30/2/3
f 34/1/3 30/1/3 33/1/3
f 35/1/3 32/1/3 31/1/3
f 35/2/3 31/2/3 34/2/3
f 36/1/3 32/1/3 35/1/3
f 40/1/3 38/1/3 37/1/3
f 41/3/3 39/3/3 38/3/3
f 41/1/3 38/1/3 40/1/3
f 42/3/3 39/3/3 41/3/3
f 43/1/4 44/1/4 46/1/4
f 44/3/4 45/3/4 47/3/4
f 46/1/4 44/1/4 47/1/4
f 47/3/4 45/3/4 48/3/4
f 49/1/4 50/1/4 53/1/4
f 50/2/4 51/2/4 54/2/4
f 53/1/4 50/1/4 54/1/4
f 51/1/4 52/1/4 55/1/4
f 54/2/4 51/2/4 55/2/4
f 55/1/4 52/1/4 56/1/4
f 59/1/5 58/1/5 57/1/5
f 60/1/5 58/1/5 59/1/5
f 61/1/6 62/1/6 63/1/6
f 63/1/6 62/1/6 64/1/6
f 61/1/6 63/1/6 65/1/6
f 64/1/6 62/1/6 66/1/6
f 61/1/6 65/1/6 67/1/6
f 65/1/6 66/1/6 67/1/6
f 66/1/6 62/1/6 68/1/6
f 67/1/6 66/1/6 68/1/6
f 69/3/6 70/3/6 71/3/6
f 71/3/6 70/3/6 72/3/6
