# Blender 3.3.1
# www.blender.org
mtllib dagger.mtl
o Untitled
v 0.054198 0.319532 0.240041
v -0.045797 0.319532 0.241025
v 0.054198 0.419532 0.240041
v -0.045797 0.419532 0.241025
v 0.054198 0.519532 0.240041
v -0.045797 0.519532 0.241025
v 0.054198 0.619532 0.240041
v -0.045797 0.619532 0.241025
v 0.054198 1.319532 0.240041
v -0.045797 1.319532 0.241025
v 0.053214 0.519532 0.140046
v -0.046781 0.519532 0.141030
v 0.053214 0.619532 0.140046
v -0.046781 0.619532 0.141030
v 0.052230 -0.280468 0.040051
v -0.047766 -0.280468 0.041035
v 0.052230 0.319532 0.040051
v -0.047765 0.319532 0.041035
v 0.050261 0.119532 -0.159940
v -0.049734 0.119532 -0.158956
v 0.050261 0.319532 -0.159940
v -0.049734 0.319532 -0.158956
v 0.053214 1.219532 0.140046
v -0.046781 1.219532 0.141030
v 0.053214 1.319532 0.140046
v -0.046781 1.319532 0.141030
v 0.052230 1.119532 0.040051
v -0.047765 1.119532 0.041035
v 0.052230 1.219532 0.040051
v -0.047765 1.219532 0.041035
v 0.051245 -0.280468 -0.059945
v -0.048750 -0.280468 -0.058960
v 0.051246 0.319532 -0.059945
v -0.048750 0.319532 -0.058960
v 0.051246 0.919532 -0.059945
v -0.048749 0.919532 -0.058960
v 0.051246 1.119532 -0.059945
v -0.048749 1.119532 -0.058960
v 0.050262 0.819532 -0.159940
v -0.049734 0.819532 -0.158956
v 0.050262 0.919532 -0.159940
v -0.049734 0.919532 -0.158956
v 0.049277 0.119532 -0.259935
v -0.050718 0.119532 -0.258951
v 0.049277 0.219532 -0.259935
v -0.050718 0.219532 -0.258951
v 0.049277 0.519532 -0.259935
v -0.050718 0.519532 -0.258951
v 0.049277 0.819532 -0.259935
v -0.050718 0.819532 -0.258951
v 0.048293 0.219532 -0.359930
v -0.051702 0.219532 -0.358946
v 0.048293 0.519532 -0.359930
v -0.051702 0.519532 -0.358946
v 0.054198 0.319532 0.240041
v 0.054198 0.419532 0.240041
v 0.054198 0.519532 0.240041
v 0.054198 0.619532 0.240041
v 0.054198 1.319532 0.240041
v 0.053214 0.519532 0.140046
v 0.053214 0.619532 0.140046
v 0.053214 0.719532 0.140046
v 0.053214 1.019532 0.140046
v 0.053214 1.219532 0.140046
v 0.053214 1.319532 0.140046
v 0.052230 -0.280468 0.040051
v 0.052230 0.319532 0.040051
v 0.052230 0.419532 0.040051
v 0.052230 0.719532 0.040051
v 0.052230 0.819532 0.040051
v 0.052230 1.019532 0.040051
v 0.052230 1.119532 0.040051
v 0.052230 1.219532 0.040051
v 0.051245 -0.280468 -0.059945
v 0.051246 0.319532 -0.059945
v 0.051246 0.719532 -0.059945
v 0.051246 0.819532 -0.059945
v 0.051246 0.919532 -0.059945
v 0.051246 1.119532 -0.059945
v 0.050261 0.119532 -0.159940
v 0.050261 0.319532 -0.159940
v 0.050261 0.419532 -0.159940
v 0.050262 0.719532 -0.159940
v 0.050262 0.819532 -0.159940
v 0.050262 0.919532 -0.159940
v 0.049277 0.119532 -0.259935
v 0.049277 0.219532 -0.259935
v 0.049277 0.419532 -0.259935
v 0.049277 0.519532 -0.259935
v 0.049277 0.819532 -0.259935
v 0.048293 0.219532 -0.359930
v 0.048293 0.519532 -0.359930
v -0.045797 0.319532 0.241025
v -0.045797 0.419532 0.241025
v -0.045797 0.519532 0.241025
v -0.045797 0.619532 0.241025
v -0.045797 1.319532 0.241025
v -0.046781 0.519532 0.141030
v -0.046781 0.619532 0.141030
v -0.046781 0.719532 0.141030
v -0.046781 1.019532 0.141030
v -0.046781 1.219532 0.141030
v -0.046781 1.319532 0.141030
v -0.047766 -0.280468 0.041035
v -0.047765 0.319532 0.041035
v -0.047765 0.419532 0.041035
v -0.047765 0.719532 0.041035
v -0.047765 0.819532 0.041035
v -0.047765 1.019532 0.041035
v -0.047765 1.119532 0.041035
v -0.047765 1.219532 0.041035
v -0.048750 -0.280468 -0.058960
v -0.048750 0.319532 -0.058960
v -0.048750 0.719532 -0.058960
v -0.048750 0.819532 -0.058960
v -0.048749 0.919532 -0.058960
v -0.048749 1.119532 -0.058960
v -0.049734 0.119532 -0.158956
v -0.049734 0.319532 -0.158956
v -0.049734 0.419532 -0.158956
v -0.049734 0.719532 -0.158956
v -0.049734 0.819532 -0.158956
v -0.049734 0.919532 -0.158956
v -0.050718 0.119532 -0.258951
v -0.050718 0.219532 -0.258951
v -0.050718 0.419532 -0.258951
v -0.050718 0.519532 -0.258951
v -0.050718 0.819532 -0.258951
v -0.051702 0.219532 -0.358946
v -0.051702 0.519532 -0.358946
v 0.052230 -0.280468 0.040051
v 0.051245 -0.280468 -0.059945
v -0.047766 -0.280468 0.041035
v -0.048750 -0.280468 -0.058960
v 0.050261 0.119532 -0.159940
v 0.049277 0.119532 -0.259935
v -0.049734 0.119532 -0.158956
v -0.050718 0.119532 -0.258951
v 0.049277 0.219532 -0.259935
v 0.048293 0.219532 -0.359930
v -0.050718 0.219532 -0.258951
v -0.051702 0.219532 -0.358946
v 0.054198 0.319532 0.240041
v 0.052230 0.319532 0.040051
v 0.051246 0.319532 -0.059945
v 0.050261 0.319532 -0.159940
v -0.045797 0.319532 0.241025
v -0.047765 0.319532 0.041035
v -0.048750 0.319532 -0.058960
v -0.049734 0.319532 -0.158956
v 0.054198 0.619532 0.240041
v 0.053214 0.619532 0.140046
v -0.045797 0.619532 0.241025
v -0.046781 0.619532 0.141030
v 0.054198 0.519532 0.240041
v 0.053214 0.519532 0.140046
v 0.049277 0.519532 -0.259935
v 0.048293 0.519532 -0.359930
v -0.045797 0.519532 0.241025
v -0.046781 0.519532 0.141030
v -0.050718 0.519532 -0.258951
v -0.051702 0.519532 -0.358946
v 0.050262 0.819532 -0.159940
v 0.049277 0.819532 -0.259935
v -0.049734 0.819532 -0.158956
v -0.050718 0.819532 -0.258951
v 0.051246 0.919532 -0.059945
v 0.050262 0.919532 -0.159940
v -0.048749 0.919532 -0.058960
v -0.049734 0.919532 -0.158956
v 0.052230 1.119532 0.040051
v 0.051246 1.119532 -0.059945
v -0.047765 1.119532 0.041035
v -0.048749 1.119532 -0.058960
v 0.053214 1.219532 0.140046
v 0.052230 1.219532 0.040051
v -0.046781 1.219532 0.141030
v -0.047765 1.219532 0.041035
v 0.054198 1.319532 0.240041
v 0.053214 1.319532 0.140046
v -0.045797 1.319532 0.241025
v -0.046781 1.319532 0.141030
vn 0.0098 -0.0000 1.0000
vn -0.0098 -0.0000 -1.0000
vn 1.0000 -0.0000 -0.0098
vn -1.0000 -0.0000 0.0098
vn -0.0000 -1.0000 -0.0000
vn -0.0000 1.0000 -0.0000
vt 0.021484 0.500000
vt 0.021484 0.500000
vt 0.021484 0.500000
vt 0.001953 0.500000
vt 0.021484 0.500000
vt 0.001953 0.500000
vt 0.001953 0.500000
vt 0.001953 0.500000
vt 0.001953 0.500000
vt 0.001953 0.500000
vt 0.001953 0.500000
vt 0.001953 0.500000
vt 0.001953 0.500000
vt 0.001953 0.500000
vt 0.001953 0.500000
vt 0.001953 0.500000
vt 0.021484 0.500000
vt 0.021484 0.500000
vt 0.021484 0.500000
vt 0.021484 0.500000
vt 0.021484 0.500000
vt 0.021484 0.500000
vt 0.021484 0.500000
vt 0.021484 0.500000
vt 0.001953 0.500000
vt 0.001953 0.500000
vt 0.001953 0.500000
vt 0.001953 0.500000
vt 0.001953 0.500000
vt 0.001953 0.500000
vt 0.001953 0.500000
vt 0.001953 0.500000
vt 0.021484 0.500000
vt 0.021484 0.500000
vt 0.021484 0.500000
vt 0.021484 0.500000
vt 0.001953 0.500000
vt 0.001953 0.500000
vt 0.001953 0.500000
vt 0.001953 0.500000
vt 0.001953 0.500000
vt 0.001953 0.500000
vt 0.001953 0.500000
vt 0.001953 0.500000
vt 0.021484 0.500000
vt 0.021484 0.500000
vt 0.021484 0.500000
vt 0.021484 0.500000
vt 0.001953 0.500000
vt 0.001953 0.500000
vt 0.001953 0.500000
vt 0.001953 0.500000
vt 0.001953 0.500000
vt 0.001953 0.500000
vt 0.001953 0.500000
vt 0.001953 0.500000
vt 0.021484 0.500000
vt 0.001953 0.500000
vt 0.021484 0.500000
vt 0.001953 0.500000
vt 0.001953 0.500000
vt 0.001953 0.500000
vt 0.001953 0.500000
vt 0.001953 0.500000
vt 0.044922 0.500000
vt 0.001953 0.500000
vt 0.001953 0.500000
vt 0.044922 0.500000
vt 0.001953 0.500000
vt 0.001953 0.500000
vt 0.021484 0.500000
vt 0.021484 0.500000
vt 0.001953 0.500000
vt 0.044922 0.500000
vt 0.021484 0.500000
vt 0.001953 0.500000
vt 0.044922 0.500000
vt 0.044922 0.500000
vt 0.001953 0.500000
vt 0.044922 0.500000
vt 0.001953 0.500000
vt 0.001953 0.500000
vt 0.001953 0.500000
vt 0.021484 0.500000
vt 0.021484 0.500000
vt 0.044922 0.500000
vt 0.001953 0.500000
vt 0.044922 0.500000
vt 0.001953 0.500000
vt 0.001953 0.500000
vt 0.001953 0.500000
vt 0.021484 0.500000
vt 0.021484 0.500000
vt 0.044922 0.500000
vt 0.021484 0.500000
vt 0.001953 0.500000
vt 0.044922 0.500000
vt 0.001953 0.500000
vt 0.001953 0.500000
vt 0.001953 0.500000
vt 0.021484 0.500000
vt 0.021484 0.500000
vt 0.001953 0.500000
vt 0.021484 0.500000
vt 0.001953 0.500000
vt 0.001953 0.500000
vt 0.001953 0.500000
vt 0.001953 0.500000
vt 0.001953 0.500000
vt 0.021484 0.500000
vt 0.001953 0.500000
vt 0.021484 0.500000
vt 0.001953 0.500000
vt 0.001953 0.500000
vt 0.001953 0.500000
vt 0.001953 0.500000
vt 0.001953 0.500000
vt 0.044922 0.500000
vt 0.001953 0.500000
vt 0.001953 0.500000
vt 0.044922 0.500000
vt 0.001953 0.500000
vt 0.001953 0.500000
vt 0.021484 0.500000
vt 0.021484 0.500000
vt 0.001953 0.500000
vt 0.044922 0.500000
vt 0.021484 0.500000
vt 0.001953 0.500000
vt 0.044922 0.500000
vt 0.044922 0.500000
vt 0.001953 0.500000
vt 0.044922 0.500000
vt 0.001953 0.500000
vt 0.001953 0.500000
vt 0.001953 0.500000
vt 0.021484 0.500000
vt 0.021484 0.500000
vt 0.044922 0.500000
vt 0.001953 0.500000
vt 0.044922 0.500000
vt 0.001953 0.500000
vt 0.001953 0.500000
vt 0.001953 0.500000
vt 0.021484 0.500000
vt 0.021484 0.500000
vt 0.044922 0.500000
vt 0.021484 0.500000
vt 0.001953 0.500000
vt 0.044922 0.500000
vt 0.001953 0.500000
vt 0.001953 0.500000
vt 0.001953 0.500000
vt 0.021484 0.500000
vt 0.021484 0.500000
vt 0.001953 0.500000
vt 0.021484 0.500000
vt 0.001953 0.500000
vt 0.001953 0.500000
vt 0.001953 0.500000
vt 0.001953 0.500000
vt 0.001953 0.500000
vt 0.021484 0.500000
vt 0.021484 0.500000
vt 0.021484 0.500000
vt 0.021484 0.500000
vt 0.021484 0.500000
vt 0.021484 0.500000
vt 0.021484 0.500000
vt 0.021484 0.500000
vt 0.001953 0.500000
vt 0.001953 0.500000
vt 0.001953 0.500000
vt 0.001953 0.500000
vt 0.021484 0.500000
vt 0.021484 0.500000
vt 0.021484 0.500000
vt 0.021484 0.500000
vt 0.021484 0.500000
vt 0.021484 0.500000
vt 0.021484 0.500000
vt 0.021484 0.500000
vt 0.001953 0.500000
vt 0.001953 0.500000
vt 0.001953 0.500000
vt 0.001953 0.500000
vt 0.001953 0.500000
vt 0.001953 0.500000
vt 0.001953 0.500000
vt 0.001953 0.500000
vt 0.001953 0.500000
vt 0.001953 0.500000
vt 0.001953 0.500000
vt 0.001953 0.500000
vt 0.001953 0.500000
vt 0.001953 0.500000
vt 0.001953 0.500000
vt 0.001953 0.500000
vt 0.001953 0.500000
vt 0.001953 0.500000
vt 0.001953 0.500000
vt 0.001953 0.500000
vt 0.001953 0.500000
vt 0.001953 0.500000
vt 0.001953 0.500000
vt 0.001953 0.500000
vt 0.001953 0.500000
vt 0.001953 0.500000
vt 0.001953 0.500000
vt 0.001953 0.500000
vt 0.001953 0.500000
vt 0.001953 0.500000
vt 0.001953 0.500000
vt 0.001953 0.500000
s 0
usemtl palette
f 3/3/1 2/2/1 1/1/1
f 4/5/1 2/2/1 3/3/1
f 5/7/1 4/6/1 3/4/1
f 6/8/1 4/6/1 5/7/1
f 9/11/1 8/10/1 7/9/1
f 10/12/1 8/10/1 9/11/1
f 13/15/1 12/14/1 11/13/1
f 14/16/1 12/14/1 13/15/1
f 17/19/1 16/18/1 15/17/1
f 18/20/1 16/18/1 17/19/1
f 21/23/1 20/22/1 19/21/1
f 22/24/1 20/22/1 21/23/1
f 23/25/2 24/26/2 25/27/2
f 25/27/2 24/26/2 26/28/2
f 27/29/2 28/30/2 29/31/2
f 29/31/2 28/30/2 30/32/2
f 31/33/2 32/34/2 33/35/2
f 33/35/2 32/34/2 34/36/2
f 35/37/2 36/38/2 37/39/2
f 37/39/2 36/38/2 38/40/2
f 39/41/2 40/42/2 41/43/2
f 41/43/2 40/42/2 42/44/2
f 43/45/2 44/46/2 45/47/2
f 45/47/2 44/46/2 46/48/2
f 47/49/2 48/50/2 49/51/2
f 49/51/2 48/50/2 50/52/2
f 51/53/2 52/54/2 53/55/2
f 53/55/2 52/54/2 54/56/2
f 60/63/3 57/60/3 56/58/3
f 61/64/3 59/62/3 58/61/3
f 62/66/3 59/62/3 61/64/3
f 63/67/3 59/62/3 62/66/3
f 64/69/3 59/62/3 63/67/3
f 65/70/3 59/62/3 64/69/3
f 67/72/3 56/59/3 55/57/3
f 68/73/3 60/63/3 56/58/3
f 68/73/3 61/64/3 60/63/3
f 68/75/3 56/59/3 67/72/3
f 68/73/3 62/66/3 61/64/3
f 69/77/3 63/68/3 62/65/3
f 69/76/3 62/66/3 68/73/3
f 70/78/3 63/68/3 69/77/3
f 71/81/3 64/69/3 63/67/3
f 71/80/3 63/68/3 70/78/3
f 72/82/3 64/69/3 71/81/3
f 73/83/3 64/69/3 72/82/3
f 74/84/3 67/72/3 66/71/3
f 74/84/3 68/75/3 67/72/3
f 75/85/3 68/75/3 74/84/3
f 76/86/3 70/78/3 69/77/3
f 76/86/3 69/77/3 68/74/3
f 77/89/3 72/82/3 71/81/3
f 77/88/3 70/78/3 76/86/3
f 77/89/3 71/81/3 70/79/3
f 78/90/3 72/82/3 77/89/3
f 79/91/3 72/82/3 78/90/3
f 81/93/3 68/75/3 75/85/3
f 82/94/3 76/86/3 68/74/3
f 82/95/3 68/75/3 81/93/3
f 83/98/3 78/90/3 77/89/3
f 83/97/3 76/86/3 82/94/3
f 83/98/3 77/89/3 76/87/3
f 84/99/3 78/90/3 83/98/3
f 85/100/3 78/90/3 84/99/3
f 86/101/3 82/95/3 81/93/3
f 86/101/3 81/93/3 80/92/3
f 87/102/3 82/95/3 86/101/3
f 88/105/3 84/99/3 83/98/3
f 88/104/3 82/95/3 87/102/3
f 88/105/3 83/98/3 82/96/3
f 89/106/3 84/99/3 88/105/3
f 90/107/3 84/99/3 89/106/3
f 91/108/3 88/105/3 87/103/3
f 91/108/3 89/106/3 88/105/3
f 92/109/3 89/106/3 91/108/3
f 94/111/4 95/113/4 98/116/4
f 96/114/4 97/115/4 99/117/4
f 99/117/4 97/115/4 100/119/4
f 100/119/4 97/115/4 101/120/4
f 101/120/4 97/115/4 102/122/4
f 102/122/4 97/115/4 103/123/4
f 93/110/4 94/112/4 105/125/4
f 94/111/4 98/116/4 106/126/4
f 98/116/4 99/117/4 106/126/4
f 105/125/4 94/112/4 106/128/4
f 99/117/4 100/119/4 106/126/4
f 100/118/4 101/121/4 107/130/4
f 106/126/4 100/119/4 107/129/4
f 107/130/4 101/121/4 108/131/4
f 101/120/4 102/122/4 109/134/4
f 108/131/4 101/121/4 109/133/4
f 109/134/4 102/122/4 110/135/4
f 110/135/4 102/122/4 111/136/4
f 104/124/4 105/125/4 112/137/4
f 105/125/4 106/128/4 112/137/4
f 112/137/4 106/128/4 113/138/4
f 107/130/4 108/131/4 114/139/4
f 106/127/4 107/130/4 114/139/4
f 109/134/4 110/135/4 115/142/4
f 114/139/4 108/131/4 115/141/4
f 108/132/4 109/134/4 115/142/4
f 115/142/4 110/135/4 116/143/4
f 116/143/4 110/135/4 117/144/4
f 113/138/4 106/128/4 119/146/4
f 106/127/4 114/139/4 120/147/4
f 119/146/4 106/128/4 120/148/4
f 115/142/4 116/143/4 121/151/4
f 120/147/4 114/139/4 121/150/4
f 114/140/4 115/142/4 121/151/4
f 121/151/4 116/143/4 122/152/4
f 122/152/4 116/143/4 123/153/4
f 119/146/4 120/148/4 124/154/4
f 118/145/4 119/146/4 124/154/4
f 124/154/4 120/148/4 125/155/4
f 121/151/4 122/152/4 126/158/4
f 125/155/4 120/148/4 126/157/4
f 120/149/4 121/151/4 126/158/4
f 126/158/4 122/152/4 127/159/4
f 127/159/4 122/152/4 128/160/4
f 125/156/4 126/158/4 129/161/4
f 126/158/4 127/159/4 129/161/4
f 129/161/4 127/159/4 130/162/4
f 133/165/5 132/164/5 131/163/5
f 134/166/5 132/164/5 133/165/5
f 137/169/5 136/168/5 135/167/5
f 138/170/5 136/168/5 137/169/5
f 141/173/5 140/172/5 139/171/5
f 142/174/5 140/172/5 141/173/5
f 147/179/5 144/176/5 143/175/5
f 148/180/5 144/176/5 147/179/5
f 149/181/5 146/178/5 145/177/5
f 150/182/5 146/178/5 149/181/5
f 153/185/5 152/184/5 151/183/5
f 154/186/5 152/184/5 153/185/5
f 155/187/6 156/188/6 159/191/6
f 159/191/6 156/188/6 160/192/6
f 157/189/6 158/190/6 161/193/6
f 161/193/6 158/190/6 162/194/6
f 163/195/6 164/196/6 165/197/6
f 165/197/6 164/196/6 166/198/6
f 167/199/6 168/200/6 169/201/6
f 169/201/6 168/200/6 170/202/6
f 171/203/6 172/204/6 173/205/6
f 173/205/6 172/204/6 174/206/6
f 175/207/6 176/208/6 177/209/6
f 177/209/6 176/208/6 178/210/6
f 179/211/6 180/212/6 181/213/6
f 181/213/6 180/212/6 182/214/6
