# MagicaVoxel @ Ephtracy

# group
o 

# material
mtllib caja1_entera.mtl
usemtl palette

# normals
vn -1 0 0
vn 1 0 0
vn 0 0 1
vn 0 0 -1
vn 0 -1 0
vn 0 1 0

# texcoords
vt 0.0214844 0.5
vt 0.0371094 0.5
vt 0.0410156 0.5

# verts
v -1 0 1
v -1 0 0.8
v -1 0 -0.8
v -1 0 -1
v -1 0.1 0.9
v -1 0.1 0.8
v -1 0.1 -0.8
v -1 0.1 -0.9
v -1 0.2 1
v -1 0.2 0.9
v -1 0.2 -0.9
v -1 0.2 -1
v -1 1.8 1
v -1 1.8 0.9
v -1 1.8 0.8
v -1 1.8 -0.8
v -1 1.8 -0.9
v -1 1.8 -1
v -1 1.9 0.9
v -1 1.9 0.8
v -1 1.9 -0.8
v -1 1.9 -0.9
v -1 2 1
v -1 2 0.8
v -1 2 -0.8
v -1 2 -1
v -0.9 0.1 0.8
v -0.9 0.1 0.5
v -0.9 0.1 0.4
v -0.9 0.1 0.1
v -0.9 0.1 -0.1
v -0.9 0.1 -0.4
v -0.9 0.1 -0.5
v -0.9 0.1 -0.8
v -0.9 1.8 0.8
v -0.9 1.8 0.5
v -0.9 1.8 0.4
v -0.9 1.8 0.1
v -0.9 1.8 -0.1
v -0.9 1.8 -0.4
v -0.9 1.8 -0.5
v -0.9 1.8 -0.8
v -0.8 0.1 0.5
v -0.8 0.1 0.4
v -0.8 0.1 0.1
v -0.8 0.1 -0.1
v -0.8 0.1 -0.4
v -0.8 0.1 -0.5
v -0.8 1.8 0.5
v -0.8 1.8 0.4
v -0.8 1.8 0.1
v -0.8 1.8 -0.1
v -0.8 1.8 -0.4
v -0.8 1.8 -0.5
v -0.7 1.9 0.7
v -0.7 1.9 -0.7
v -0.7 2 0.7
v -0.7 2 -0.7
v -0.4 0.1 0.9
v -0.4 0.1 0.8
v -0.4 0.1 -0.8
v -0.4 0.1 -0.9
v -0.4 1.8 0.9
v -0.4 1.8 0.8
v -0.4 1.8 -0.8
v -0.4 1.8 -0.9
v 0.1 0.1 0.9
v 0.1 0.1 0.8
v 0.1 0.1 -0.8
v 0.1 0.1 -0.9
v 0.1 1.8 0.9
v 0.1 1.8 0.8
v 0.1 1.8 -0.8
v 0.1 1.8 -0.9
v 0.5 0.1 0.9
v 0.5 0.1 0.8
v 0.5 0.1 -0.8
v 0.5 0.1 -0.9
v 0.5 1.8 0.9
v 0.5 1.8 0.8
v 0.5 1.8 -0.8
v 0.5 1.8 -0.9
v 0.7 0.1 0.7
v 0.7 0.1 -0.7
v 0.7 1.9 0.7
v 0.7 1.9 -0.7
v 0.8 0.1 1
v 0.8 0.1 0.9
v 0.8 0.1 -0.9
v 0.8 0.1 -1
v 0.8 1.8 1
v 0.8 1.8 0.9
v 0.8 1.8 -0.9
v 0.8 1.8 -1
v 0.8 1.9 0.8
v 0.8 1.9 -0.8
v 0.8 2 0.8
v 0.8 2 -0.8
v -0.8 0.1 1
v -0.8 0.1 0.9
v -0.8 0.1 -0.9
v -0.8 0.1 -1
v -0.8 1.8 1
v -0.8 1.8 0.9
v -0.8 1.8 -0.9
v -0.8 1.8 -1
v -0.8 1.9 0.8
v -0.8 1.9 -0.8
v -0.8 2 0.8
v -0.8 2 -0.8
v -0.7 0.1 0.7
v -0.7 0.1 -0.7
v -0.7 1.9 0.7
v -0.7 1.9 -0.7
v -0.5 0.1 0.9
v -0.5 0.1 0.8
v -0.5 0.1 -0.8
v -0.5 0.1 -0.9
v -0.5 1.8 0.9
v -0.5 1.8 0.8
v -0.5 1.8 -0.8
v -0.5 1.8 -0.9
v -0.1 0.1 0.9
v -0.1 0.1 0.8
v -0.1 0.1 -0.8
v -0.1 0.1 -0.9
v -0.1 1.8 0.9
v -0.1 1.8 0.8
v -0.1 1.8 -0.8
v -0.1 1.8 -0.9
v 0.4 0.1 0.9
v 0.4 0.1 0.8
v 0.4 0.1 -0.8
v 0.4 0.1 -0.9
v 0.4 1.8 0.9
v 0.4 1.8 0.8
v 0.4 1.8 -0.8
v 0.4 1.8 -0.9
v 0.7 1.9 0.7
v 0.7 1.9 -0.7
v 0.7 2 0.7
v 0.7 2 -0.7
v 0.8 0.1 0.5
v 0.8 0.1 0.4
v 0.8 0.1 0.1
v 0.8 0.1 -0.1
v 0.8 0.1 -0.4
v 0.8 0.1 -0.5
v 0.8 1.8 0.5
v 0.8 1.8 0.4
v 0.8 1.8 0.1
v 0.8 1.8 -0.1
v 0.8 1.8 -0.4
v 0.8 1.8 -0.5
v 0.9 0.1 0.8
v 0.9 0.1 0.5
v 0.9 0.1 0.4
v 0.9 0.1 0.1
v 0.9 0.1 -0.1
v 0.9 0.1 -0.4
v 0.9 0.1 -0.5
v 0.9 0.1 -0.8
v 0.9 1.8 0.8
v 0.9 1.8 0.5
v 0.9 1.8 0.4
v 0.9 1.8 0.1
v 0.9 1.8 -0.1
v 0.9 1.8 -0.4
v 0.9 1.8 -0.5
v 0.9 1.8 -0.8
v 1 0 1
v 1 0 0.8
v 1 0 -0.8
v 1 0 -1
v 1 0.1 0.9
v 1 0.1 0.8
v 1 0.1 -0.8
v 1 0.1 -0.9
v 1 0.2 1
v 1 0.2 0.9
v 1 0.2 -0.9
v 1 0.2 -1
v 1 1.8 1
v 1 1.8 0.9
v 1 1.8 0.8
v 1 1.8 -0.8
v 1 1.8 -0.9
v 1 1.8 -1
v 1 1.9 0.9
v 1 1.9 0.8
v 1 1.9 -0.8
v 1 1.9 -0.9
v 1 2 1
v 1 2 0.8
v 1 2 -0.8
v 1 2 -1
v -1 0 1
v -1 0.2 1
v -1 1.8 1
v -1 2 1
v -0.9 0.1 1
v -0.9 0.2 1
v -0.9 1.8 1
v -0.9 1.9 1
v -0.8 0 1
v -0.8 0.1 1
v -0.8 1.8 1
v -0.8 1.9 1
v -0.8 2 1
v 0.8 0 1
v 0.8 0.1 1
v 0.8 1.8 1
v 0.8 1.9 1
v 0.8 2 1
v 0.9 0.1 1
v 0.9 0.2 1
v 0.9 1.8 1
v 0.9 1.9 1
v 1 0 1
v 1 0.2 1
v 1 1.8 1
v 1 2 1
v -0.8 0.1 0.9
v -0.8 1.8 0.9
v -0.5 0.1 0.9
v -0.5 1.8 0.9
v -0.4 0.1 0.9
v -0.4 1.8 0.9
v -0.1 0.1 0.9
v -0.1 1.8 0.9
v 0.1 0.1 0.9
v 0.1 1.8 0.9
v 0.4 0.1 0.9
v 0.4 1.8 0.9
v 0.5 0.1 0.9
v 0.5 1.8 0.9
v 0.8 0.1 0.9
v 0.8 1.8 0.9
v -0.5 0.1 0.8
v -0.5 1.8 0.8
v -0.4 0.1 0.8
v -0.4 1.8 0.8
v -0.1 0.1 0.8
v -0.1 1.8 0.8
v 0.1 0.1 0.8
v 0.1 1.8 0.8
v 0.4 0.1 0.8
v 0.4 1.8 0.8
v 0.5 0.1 0.8
v 0.5 1.8 0.8
v -0.7 1.9 0.7
v -0.7 2 0.7
v 0.7 1.9 0.7
v 0.7 2 0.7
v -0.9 0.1 0.4
v -0.9 1.8 0.4
v -0.8 0.1 0.4
v -0.8 1.8 0.4
v 0.8 0.1 0.4
v 0.8 1.8 0.4
v 0.9 0.1 0.4
v 0.9 1.8 0.4
v -0.9 0.1 -0.1
v -0.9 1.8 -0.1
v -0.8 0.1 -0.1
v -0.8 1.8 -0.1
v 0.8 0.1 -0.1
v 0.8 1.8 -0.1
v 0.9 0.1 -0.1
v 0.9 1.8 -0.1
v -0.9 0.1 -0.5
v -0.9 1.8 -0.5
v -0.8 0.1 -0.5
v -0.8 1.8 -0.5
v 0.8 0.1 -0.5
v 0.8 1.8 -0.5
v 0.9 0.1 -0.5
v 0.9 1.8 -0.5
v -0.7 0.1 -0.7
v -0.7 1.9 -0.7
v 0.7 0.1 -0.7
v 0.7 1.9 -0.7
v -1 0.1 -0.8
v -1 1.8 -0.8
v -0.9 0.1 -0.8
v -0.9 1.8 -0.8
v -0.8 1.9 -0.8
v -0.8 2 -0.8
v 0.8 1.9 -0.8
v 0.8 2 -0.8
v 0.9 0.1 -0.8
v 0.9 1.8 -0.8
v 1 0.1 -0.8
v 1 1.8 -0.8
v -1 0.1 0.8
v -1 1.8 0.8
v -0.9 0.1 0.8
v -0.9 1.8 0.8
v -0.8 1.9 0.8
v -0.8 2 0.8
v 0.8 1.9 0.8
v 0.8 2 0.8
v 0.9 0.1 0.8
v 0.9 1.8 0.8
v 1 0.1 0.8
v 1 1.8 0.8
v -0.7 0.1 0.7
v -0.7 1.9 0.7
v 0.7 0.1 0.7
v 0.7 1.9 0.7
v -0.9 0.1 0.5
v -0.9 1.8 0.5
v -0.8 0.1 0.5
v -0.8 1.8 0.5
v 0.8 0.1 0.5
v 0.8 1.8 0.5
v 0.9 0.1 0.5
v 0.9 1.8 0.5
v -0.9 0.1 0.1
v -0.9 1.8 0.1
v -0.8 0.1 0.1
v -0.8 1.8 0.1
v 0.8 0.1 0.1
v 0.8 1.8 0.1
v 0.9 0.1 0.1
v 0.9 1.8 0.1
v -0.9 0.1 -0.4
v -0.9 1.8 -0.4
v -0.8 0.1 -0.4
v -0.8 1.8 -0.4
v 0.8 0.1 -0.4
v 0.8 1.8 -0.4
v 0.9 0.1 -0.4
v 0.9 1.8 -0.4
v -0.7 1.9 -0.7
v -0.7 2 -0.7
v 0.7 1.9 -0.7
v 0.7 2 -0.7
v -0.5 0.1 -0.8
v -0.5 1.8 -0.8
v -0.4 0.1 -0.8
v -0.4 1.8 -0.8
v -0.1 0.1 -0.8
v -0.1 1.8 -0.8
v 0.1 0.1 -0.8
v 0.1 1.8 -0.8
v 0.4 0.1 -0.8
v 0.4 1.8 -0.8
v 0.5 0.1 -0.8
v 0.5 1.8 -0.8
v -0.8 0.1 -0.9
v -0.8 1.8 -0.9
v -0.5 0.1 -0.9
v -0.5 1.8 -0.9
v -0.4 0.1 -0.9
v -0.4 1.8 -0.9
v -0.1 0.1 -0.9
v -0.1 1.8 -0.9
v 0.1 0.1 -0.9
v 0.1 1.8 -0.9
v 0.4 0.1 -0.9
v 0.4 1.8 -0.9
v 0.5 0.1 -0.9
v 0.5 1.8 -0.9
v 0.8 0.1 -0.9
v 0.8 1.8 -0.9
v -1 0 -1
v -1 0.2 -1
v -1 1.8 -1
v -1 2 -1
v -0.9 0.1 -1
v -0.9 0.2 -1
v -0.9 1.8 -1
v -0.9 1.9 -1
v -0.8 0 -1
v -0.8 0.1 -1
v -0.8 1.8 -1
v -0.8 1.9 -1
v -0.8 2 -1
v 0.8 0 -1
v 0.8 0.1 -1
v 0.8 1.8 -1
v 0.8 1.9 -1
v 0.8 2 -1
v 0.9 0.1 -1
v 0.9 0.2 -1
v 0.9 1.8 -1
v 0.9 1.9 -1
v 1 0 -1
v 1 0.2 -1
v 1 1.8 -1
v 1 2 -1
v -1 0 1
v -0.8 0 1
v 0.8 0 1
v 1 0 1
v -0.9 0 0.9
v -0.8 0 0.9
v 0.8 0 0.9
v 0.9 0 0.9
v -1 0 0.8
v -0.9 0 0.8
v 0.9 0 0.8
v 1 0 0.8
v -1 0 -0.8
v -0.9 0 -0.8
v 0.9 0 -0.8
v 1 0 -0.8
v -0.9 0 -0.9
v -0.8 0 -0.9
v 0.8 0 -0.9
v 0.9 0 -0.9
v -1 0 -1
v -0.8 0 -1
v 0.8 0 -1
v 1 0 -1
v -0.8 1.8 1
v 0.8 1.8 1
v -0.8 1.8 0.9
v -0.5 1.8 0.9
v -0.4 1.8 0.9
v -0.1 1.8 0.9
v 0.1 1.8 0.9
v 0.4 1.8 0.9
v 0.5 1.8 0.9
v 0.8 1.8 0.9
v -1 1.8 0.8
v -0.9 1.8 0.8
v -0.5 1.8 0.8
v -0.4 1.8 0.8
v -0.1 1.8 0.8
v 0.1 1.8 0.8
v 0.4 1.8 0.8
v 0.5 1.8 0.8
v 0.9 1.8 0.8
v 1 1.8 0.8
v -0.9 1.8 0.5
v -0.8 1.8 0.5
v 0.8 1.8 0.5
v 0.9 1.8 0.5
v -0.9 1.8 0.4
v -0.8 1.8 0.4
v 0.8 1.8 0.4
v 0.9 1.8 0.4
v -0.9 1.8 0.1
v -0.8 1.8 0.1
v 0.8 1.8 0.1
v 0.9 1.8 0.1
v -0.9 1.8 -0.1
v -0.8 1.8 -0.1
v 0.8 1.8 -0.1
v 0.9 1.8 -0.1
v -0.9 1.8 -0.4
v -0.8 1.8 -0.4
v 0.8 1.8 -0.4
v 0.9 1.8 -0.4
v -0.9 1.8 -0.5
v -0.8 1.8 -0.5
v 0.8 1.8 -0.5
v 0.9 1.8 -0.5
v -1 1.8 -0.8
v -0.9 1.8 -0.8
v -0.5 1.8 -0.8
v -0.4 1.8 -0.8
v -0.1 1.8 -0.8
v 0.1 1.8 -0.8
v 0.4 1.8 -0.8
v 0.5 1.8 -0.8
v 0.9 1.8 -0.8
v 1 1.8 -0.8
v -0.8 1.8 -0.9
v -0.5 1.8 -0.9
v -0.4 1.8 -0.9
v -0.1 1.8 -0.9
v 0.1 1.8 -0.9
v 0.4 1.8 -0.9
v 0.5 1.8 -0.9
v 0.8 1.8 -0.9
v -0.8 1.8 -1
v 0.8 1.8 -1
v -0.7 1.9 0.7
v 0.7 1.9 0.7
v -0.7 1.9 -0.7
v 0.7 1.9 -0.7
v -0.8 0.1 1
v 0.8 0.1 1
v -0.8 0.1 0.9
v -0.5 0.1 0.9
v -0.4 0.1 0.9
v -0.1 0.1 0.9
v 0.1 0.1 0.9
v 0.4 0.1 0.9
v 0.5 0.1 0.9
v 0.8 0.1 0.9
v -1 0.1 0.8
v -0.9 0.1 0.8
v -0.5 0.1 0.8
v -0.4 0.1 0.8
v -0.1 0.1 0.8
v 0.1 0.1 0.8
v 0.4 0.1 0.8
v 0.5 0.1 0.8
v 0.9 0.1 0.8
v 1 0.1 0.8
v -0.7 0.1 0.7
v 0.7 0.1 0.7
v -0.9 0.1 0.5
v -0.8 0.1 0.5
v 0.8 0.1 0.5
v 0.9 0.1 0.5
v -0.9 0.1 0.4
v -0.8 0.1 0.4
v 0.8 0.1 0.4
v 0.9 0.1 0.4
v -0.9 0.1 0.1
v -0.8 0.1 0.1
v 0.8 0.1 0.1
v 0.9 0.1 0.1
v -0.9 0.1 -0.1
v -0.8 0.1 -0.1
v 0.8 0.1 -0.1
v 0.9 0.1 -0.1
v -0.9 0.1 -0.4
v -0.8 0.1 -0.4
v 0.8 0.1 -0.4
v 0.9 0.1 -0.4
v -0.9 0.1 -0.5
v -0.8 0.1 -0.5
v 0.8 0.1 -0.5
v 0.9 0.1 -0.5
v -0.7 0.1 -0.7
v 0.7 0.1 -0.7
v -1 0.1 -0.8
v -0.9 0.1 -0.8
v -0.5 0.1 -0.8
v -0.4 0.1 -0.8
v -0.1 0.1 -0.8
v 0.1 0.1 -0.8
v 0.4 0.1 -0.8
v 0.5 0.1 -0.8
v 0.9 0.1 -0.8
v 1 0.1 -0.8
v -0.8 0.1 -0.9
v -0.5 0.1 -0.9
v -0.4 0.1 -0.9
v -0.1 0.1 -0.9
v 0.1 0.1 -0.9
v 0.4 0.1 -0.9
v 0.5 0.1 -0.9
v 0.8 0.1 -0.9
v -0.8 0.1 -1
v 0.8 0.1 -1
v -0.8 1.9 0.8
v 0.8 1.9 0.8
v -0.7 1.9 0.7
v 0.7 1.9 0.7
v -0.7 1.9 -0.7
v 0.7 1.9 -0.7
v -0.8 1.9 -0.8
v 0.8 1.9 -0.8
v -1 2 1
v -0.8 2 1
v 0.8 2 1
v 1 2 1
v -0.9 2 0.9
v -0.8 2 0.9
v 0.8 2 0.9
v 0.9 2 0.9
v -1 2 0.8
v -0.9 2 0.8
v -0.8 2 0.8
v 0.8 2 0.8
v 0.9 2 0.8
v 1 2 0.8
v -0.7 2 0.7
v 0.7 2 0.7
v -0.7 2 -0.7
v 0.7 2 -0.7
v -1 2 -0.8
v -0.9 2 -0.8
v -0.8 2 -0.8
v 0.8 2 -0.8
v 0.9 2 -0.8
v 1 2 -0.8
v -0.9 2 -0.9
v -0.8 2 -0.9
v 0.8 2 -0.9
v 0.9 2 -0.9
v -1 2 -1
v -0.8 2 -1
v 0.8 2 -1
v 1 2 -1

# faces
f 5/3/1 2/3/1 1/3/1
f 6/1/1 3/1/1 2/1/1
f 6/3/1 2/3/1 5/3/1
f 7/3/1 4/3/1 3/3/1
f 7/1/1 3/1/1 6/1/1
f 8/3/1 4/3/1 7/3/1
f 9/3/1 5/3/1 1/3/1
f 10/1/1 6/1/1 5/1/1
f 10/3/1 5/3/1 9/3/1
f 11/3/1 4/3/1 8/3/1
f 11/1/1 8/1/1 7/1/1
f 12/3/1 4/3/1 11/3/1
f 13/1/1 10/1/1 9/1/1
f 14/1/1 6/1/1 10/1/1
f 14/1/1 10/1/1 13/1/1
f 15/1/1 6/1/1 14/1/1
f 16/1/1 11/1/1 7/1/1
f 16/1/1 12/1/1 11/1/1
f 17/1/1 12/1/1 16/1/1
f 18/1/1 12/1/1 17/1/1
f 19/1/1 15/1/1 14/1/1
f 19/3/1 14/3/1 13/3/1
f 19/1/1 16/1/1 15/1/1
f 19/1/1 17/1/1 16/1/1
f 20/1/1 17/1/1 19/1/1
f 21/1/1 17/1/1 20/1/1
f 22/3/1 18/3/1 17/3/1
f 22/1/1 17/1/1 21/1/1
f 23/3/1 19/3/1 13/3/1
f 23/3/1 20/3/1 19/3/1
f 24/1/1 21/1/1 20/1/1
f 24/3/1 20/3/1 23/3/1
f 25/3/1 22/3/1 21/3/1
f 25/1/1 21/1/1 24/1/1
f 26/3/1 18/3/1 22/3/1
f 26/3/1 22/3/1 25/3/1
f 35/2/1 28/2/1 27/2/1
f 36/2/1 28/2/1 35/2/1
f 37/2/1 30/2/1 29/2/1
f 38/2/1 30/2/1 37/2/1
f 39/2/1 32/2/1 31/2/1
f 40/2/1 32/2/1 39/2/1
f 41/2/1 34/2/1 33/2/1
f 42/2/1 34/2/1 41/2/1
f 49/1/1 44/1/1 43/1/1
f 50/1/1 44/1/1 49/1/1
f 51/1/1 46/1/1 45/1/1
f 52/1/1 46/1/1 51/1/1
f 53/1/1 48/1/1 47/1/1
f 54/1/1 48/1/1 53/1/1
f 57/2/1 56/2/1 55/2/1
f 58/2/1 56/2/1 57/2/1
f 63/2/1 60/2/1 59/2/1
f 64/2/1 60/2/1 63/2/1
f 65/2/1 62/2/1 61/2/1
f 66/2/1 62/2/1 65/2/1
f 71/2/1 68/2/1 67/2/1
f 72/2/1 68/2/1 71/2/1
f 73/2/1 70/2/1 69/2/1
f 74/2/1 70/2/1 73/2/1
f 79/2/1 76/2/1 75/2/1
f 80/2/1 76/2/1 79/2/1
f 81/2/1 78/2/1 77/2/1
f 82/2/1 78/2/1 81/2/1
f 85/1/1 84/1/1 83/1/1
f 86/1/1 84/1/1 85/1/1
f 91/1/1 88/1/1 87/1/1
f 92/1/1 88/1/1 91/1/1
f 93/1/1 90/1/1 89/1/1
f 94/1/1 90/1/1 93/1/1
f 97/1/1 96/1/1 95/1/1
f 98/1/1 96/1/1 97/1/1
f 99/1/2 100/1/2 103/1/2
f 103/1/2 100/1/2 104/1/2
f 101/1/2 102/1/2 105/1/2
f 105/1/2 102/1/2 106/1/2
f 107/1/2 108/1/2 109/1/2
f 109/1/2 108/1/2 110/1/2
f 111/1/2 112/1/2 113/1/2
f 113/1/2 112/1/2 114/1/2
f 115/2/2 116/2/2 119/2/2
f 119/2/2 116/2/2 120/2/2
f 117/2/2 118/2/2 121/2/2
f 121/2/2 118/2/2 122/2/2
f 123/2/2 124/2/2 127/2/2
f 127/2/2 124/2/2 128/2/2
f 125/2/2 126/2/2 129/2/2
f 129/2/2 126/2/2 130/2/2
f 131/2/2 132/2/2 135/2/2
f 135/2/2 132/2/2 136/2/2
f 133/2/2 134/2/2 137/2/2
f 137/2/2 134/2/2 138/2/2
f 139/2/2 140/2/2 141/2/2
f 141/2/2 140/2/2 142/2/2
f 143/1/2 144/1/2 149/1/2
f 149/1/2 144/1/2 150/1/2
f 145/1/2 146/1/2 151/1/2
f 151/1/2 146/1/2 152/1/2
f 147/1/2 148/1/2 153/1/2
f 153/1/2 148/1/2 154/1/2
f 155/2/2 156/2/2 163/2/2
f 163/2/2 156/2/2 164/2/2
f 157/2/2 158/2/2 165/2/2
f 165/2/2 158/2/2 166/2/2
f 159/2/2 160/2/2 167/2/2
f 167/2/2 160/2/2 168/2/2
f 161/2/2 162/2/2 169/2/2
f 169/2/2 162/2/2 170/2/2
f 171/3/2 172/3/2 175/3/2
f 172/1/2 173/1/2 176/1/2
f 175/3/2 172/3/2 176/3/2
f 173/3/2 174/3/2 177/3/2
f 176/1/2 173/1/2 177/1/2
f 177/3/2 174/3/2 178/3/2
f 171/3/2 175/3/2 179/3/2
f 175/1/2 176/1/2 180/1/2
f 179/3/2 175/3/2 180/3/2
f 178/3/2 174/3/2 181/3/2
f 177/1/2 178/1/2 181/1/2
f 181/3/2 174/3/2 182/3/2
f 179/1/2 180/1/2 183/1/2
f 180/1/2 176/1/2 184/1/2
f 183/1/2 180/1/2 184/1/2
f 184/1/2 176/1/2 185/1/2
f 177/1/2 181/1/2 186/1/2
f 181/1/2 182/1/2 186/1/2
f 186/1/2 182/1/2 187/1/2
f 187/1/2 182/1/2 188/1/2
f 184/1/2 185/1/2 189/1/2
f 183/3/2 184/3/2 189/3/2
f 185/1/2 186/1/2 189/1/2
f 186/1/2 187/1/2 189/1/2
f 189/1/2 187/1/2 190/1/2
f 190/1/2 187/1/2 191/1/2
f 187/3/2 188/3/2 192/3/2
f 191/1/2 187/1/2 192/1/2
f 183/3/2 189/3/2 193/3/2
f 189/3/2 190/3/2 193/3/2
f 190/1/2 191/1/2 194/1/2
f 193/3/2 190/3/2 194/3/2
f 191/3/2 192/3/2 195/3/2
f 194/1/2 191/1/2 195/1/2
f 192/3/2 188/3/2 196/3/2
f 195/3/2 192/3/2 196/3/2
f 201/3/3 198/3/3 197/3/3
f 202/1/3 199/1/3 198/1/3
f 202/3/3 198/3/3 201/3/3
f 203/3/3 200/3/3 199/3/3
f 203/1/3 199/1/3 202/1/3
f 204/3/3 200/3/3 203/3/3
f 205/3/3 201/3/3 197/3/3
f 206/1/3 202/1/3 201/1/3
f 206/3/3 201/3/3 205/3/3
f 206/1/3 203/1/3 202/1/3
f 206/1/3 204/1/3 203/1/3
f 207/1/3 204/1/3 206/1/3
f 208/3/3 200/3/3 204/3/3
f 208/1/3 204/1/3 207/1/3
f 209/3/3 200/3/3 208/3/3
f 210/1/3 206/1/3 205/1/3
f 211/1/3 206/1/3 210/1/3
f 212/1/3 209/1/3 208/1/3
f 212/1/3 208/1/3 207/1/3
f 213/1/3 209/1/3 212/1/3
f 214/1/3 209/1/3 213/1/3
f 215/3/3 211/3/3 210/3/3
f 215/1/3 212/1/3 211/1/3
f 215/1/3 213/1/3 212/1/3
f 216/1/3 213/1/3 215/1/3
f 217/1/3 213/1/3 216/1/3
f 218/3/3 214/3/3 213/3/3
f 218/1/3 213/1/3 217/1/3
f 219/3/3 215/3/3 210/3/3
f 219/3/3 216/3/3 215/3/3
f 220/1/3 217/1/3 216/1/3
f 220/3/3 216/3/3 219/3/3
f 221/3/3 218/3/3 217/3/3
f 221/1/3 217/1/3 220/1/3
f 222/3/3 214/3/3 218/3/3
f 222/3/3 218/3/3 221/3/3
f 225/2/3 224/2/3 223/2/3
f 226/2/3 224/2/3 225/2/3
f 229/2/3 228/2/3 227/2/3
f 230/2/3 228/2/3 229/2/3
f 233/2/3 232/2/3 231/2/3
f 234/2/3 232/2/3 233/2/3
f 237/2/3 236/2/3 235/2/3
f 238/2/3 236/2/3 237/2/3
f 241/1/3 240/1/3 239/1/3
f 242/1/3 240/1/3 241/1/3
f 245/1/3 244/1/3 243/1/3
f 246/1/3 244/1/3 245/1/3
f 249/1/3 248/1/3 247/1/3
f 250/1/3 248/1/3 249/1/3
f 253/2/3 252/2/3 251/2/3
f 254/2/3 252/2/3 253/2/3
f 257/2/3 256/2/3 255/2/3
f 258/2/3 256/2/3 257/2/3
f 261/2/3 260/2/3 259/2/3
f 262/2/3 260/2/3 261/2/3
f 265/2/3 264/2/3 263/2/3
f 266/2/3 264/2/3 265/2/3
f 269/2/3 268/2/3 267/2/3
f 270/2/3 268/2/3 269/2/3
f 273/2/3 272/2/3 271/2/3
f 274/2/3 272/2/3 273/2/3
f 277/2/3 276/2/3 275/2/3
f 278/2/3 276/2/3 277/2/3
f 281/1/3 280/1/3 279/1/3
f 282/1/3 280/1/3 281/1/3
f 285/1/3 284/1/3 283/1/3
f 286/1/3 284/1/3 285/1/3
f 289/1/3 288/1/3 287/1/3
f 290/1/3 288/1/3 289/1/3
f 293/1/3 292/1/3 291/1/3
f 294/1/3 292/1/3 293/1/3
f 295/1/4 296/1/4 297/1/4
f 297/1/4 296/1/4 298/1/4
f 299/1/4 300/1/4 301/1/4
f 301/1/4 300/1/4 302/1/4
f 303/1/4 304/1/4 305/1/4
f 305/1/4 304/1/4 306/1/4
f 307/1/4 308/1/4 309/1/4
f 309/1/4 308/1/4 310/1/4
f 311/2/4 312/2/4 313/2/4
f 313/2/4 312/2/4 314/2/4
f 315/2/4 316/2/4 317/2/4
f 317/2/4 316/2/4 318/2/4
f 319/2/4 320/2/4 321/2/4
f 321/2/4 320/2/4 322/2/4
f 323/2/4 324/2/4 325/2/4
f 325/2/4 324/2/4 326/2/4
f 327/2/4 328/2/4 329/2/4
f 329/2/4 328/2/4 330/2/4
f 331/2/4 332/2/4 333/2/4
f 333/2/4 332/2/4 334/2/4
f 335/2/4 336/2/4 337/2/4
f 337/2/4 336/2/4 338/2/4
f 339/1/4 340/1/4 341/1/4
f 341/1/4 340/1/4 342/1/4
f 343/1/4 344/1/4 345/1/4
f 345/1/4 344/1/4 346/1/4
f 347/1/4 348/1/4 349/1/4
f 349/1/4 348/1/4 350/1/4
f 351/2/4 352/2/4 353/2/4
f 353/2/4 352/2/4 354/2/4
f 355/2/4 356/2/4 357/2/4
f 357/2/4 356/2/4 358/2/4
f 359/2/4 360/2/4 361/2/4
f 361/2/4 360/2/4 362/2/4
f 363/2/4 364/2/4 365/2/4
f 365/2/4 364/2/4 366/2/4
f 367/3/4 368/3/4 371/3/4
f 368/1/4 369/1/4 372/1/4
f 371/3/4 368/3/4 372/3/4
f 369/3/4 370/3/4 373/3/4
f 372/1/4 369/1/4 373/1/4
f 373/3/4 370/3/4 374/3/4
f 367/3/4 371/3/4 375/3/4
f 371/1/4 372/1/4 376/1/4
f 375/3/4 371/3/4 376/3/4
f 372/1/4 373/1/4 376/1/4
f 373/1/4 374/1/4 376/1/4
f 376/1/4 374/1/4 377/1/4
f 374/3/4 370/3/4 378/3/4
f 377/1/4 374/1/4 378/1/4
f 378/3/4 370/3/4 379/3/4
f 375/1/4 376/1/4 380/1/4
f 380/1/4 376/1/4 381/1/4
f 378/1/4 379/1/4 382/1/4
f 377/1/4 378/1/4 382/1/4
f 382/1/4 379/1/4 383/1/4
f 383/1/4 379/1/4 384/1/4
f 380/3/4 381/3/4 385/3/4
f 381/1/4 382/1/4 385/1/4
f 382/1/4 383/1/4 385/1/4
f 385/1/4 383/1/4 386/1/4
f 386/1/4 383/1/4 387/1/4
f 383/3/4 384/3/4 388/3/4
f 387/1/4 383/1/4 388/1/4
f 380/3/4 385/3/4 389/3/4
f 385/3/4 386/3/4 389/3/4
f 386/1/4 387/1/4 390/1/4
f 389/3/4 386/3/4 390/3/4
f 387/3/4 388/3/4 391/3/4
f 390/1/4 387/1/4 391/1/4
f 388/3/4 384/3/4 392/3/4
f 391/3/4 388/3/4 392/3/4
f 397/3/5 394/3/5 393/3/5
f 398/1/5 395/1/5 394/1/5
f 398/3/5 394/3/5 397/3/5
f 399/3/5 396/3/5 395/3/5
f 399/1/5 395/1/5 398/1/5
f 400/3/5 396/3/5 399/3/5
f 401/3/5 397/3/5 393/3/5
f 402/1/5 398/1/5 397/1/5
f 402/3/5 397/3/5 401/3/5
f 402/1/5 399/1/5 398/1/5
f 402/1/5 400/1/5 399/1/5
f 403/3/5 396/3/5 400/3/5
f 403/1/5 400/1/5 402/1/5
f 404/3/5 396/3/5 403/3/5
f 405/1/5 402/1/5 401/1/5
f 405/1/5 403/1/5 402/1/5
f 405/1/5 404/1/5 403/1/5
f 406/1/5 404/1/5 405/1/5
f 407/1/5 404/1/5 406/1/5
f 408/1/5 404/1/5 407/1/5
f 409/3/5 406/3/5 405/3/5
f 409/1/5 407/1/5 406/1/5
f 410/1/5 407/1/5 409/1/5
f 411/1/5 407/1/5 410/1/5
f 412/3/5 408/3/5 407/3/5
f 412/1/5 407/1/5 411/1/5
f 413/3/5 409/3/5 405/3/5
f 413/3/5 410/3/5 409/3/5
f 414/1/5 411/1/5 410/1/5
f 414/3/5 410/3/5 413/3/5
f 415/3/5 412/3/5 411/3/5
f 415/1/5 411/1/5 414/1/5
f 416/3/5 408/3/5 412/3/5
f 416/3/5 412/3/5 415/3/5
f 419/1/5 418/1/5 417/1/5
f 420/1/5 418/1/5 419/1/5
f 421/1/5 418/1/5 420/1/5
f 422/1/5 418/1/5 421/1/5
f 423/1/5 418/1/5 422/1/5
f 424/1/5 418/1/5 423/1/5
f 425/1/5 418/1/5 424/1/5
f 426/1/5 418/1/5 425/1/5
f 429/1/5 421/1/5 420/1/5
f 430/1/5 421/1/5 429/1/5
f 431/1/5 423/1/5 422/1/5
f 432/1/5 423/1/5 431/1/5
f 433/1/5 425/1/5 424/1/5
f 434/1/5 425/1/5 433/1/5
f 437/1/5 428/1/5 427/1/5
f 440/1/5 436/1/5 435/1/5
f 441/1/5 438/1/5 437/1/5
f 441/1/5 437/1/5 427/1/5
f 442/1/5 438/1/5 441/1/5
f 443/1/5 440/1/5 439/1/5
f 444/1/5 436/1/5 440/1/5
f 444/1/5 440/1/5 443/1/5
f 445/1/5 441/1/5 427/1/5
f 448/1/5 436/1/5 444/1/5
f 449/1/5 446/1/5 445/1/5
f 449/1/5 445/1/5 427/1/5
f 450/1/5 446/1/5 449/1/5
f 451/1/5 448/1/5 447/1/5
f 452/1/5 436/1/5 448/1/5
f 452/1/5 448/1/5 451/1/5
f 453/1/5 449/1/5 427/1/5
f 456/1/5 436/1/5 452/1/5
f 457/1/5 454/1/5 453/1/5
f 457/1/5 453/1/5 427/1/5
f 458/1/5 454/1/5 457/1/5
f 459/1/5 456/1/5 455/1/5
f 460/1/5 436/1/5 456/1/5
f 460/1/5 456/1/5 459/1/5
f 461/1/5 457/1/5 427/1/5
f 462/1/5 457/1/5 461/1/5
f 469/1/5 436/1/5 460/1/5
f 470/1/5 436/1/5 469/1/5
f 472/1/5 464/1/5 463/1/5
f 473/1/5 464/1/5 472/1/5
f 474/1/5 466/1/5 465/1/5
f 475/1/5 466/1/5 474/1/5
f 476/1/5 468/1/5 467/1/5
f 477/1/5 468/1/5 476/1/5
f 479/1/5 475/1/5 474/1/5
f 479/1/5 478/1/5 477/1/5
f 479/1/5 477/1/5 476/1/5
f 479/1/5 476/1/5 475/1/5
f 479/1/5 473/1/5 472/1/5
f 479/1/5 474/1/5 473/1/5
f 479/1/5 472/1/5 471/1/5
f 480/1/5 478/1/5 479/1/5
f 483/2/5 482/2/5 481/2/5
f 484/2/5 482/2/5 483/2/5
f 485/1/6 486/1/6 487/1/6
f 487/1/6 486/1/6 488/1/6
f 488/1/6 486/1/6 489/1/6
f 489/1/6 486/1/6 490/1/6
f 490/1/6 486/1/6 491/1/6
f 491/1/6 486/1/6 492/1/6
f 492/1/6 486/1/6 493/1/6
f 493/1/6 486/1/6 494/1/6
f 488/1/6 489/1/6 497/1/6
f 497/1/6 489/1/6 498/1/6
f 490/1/6 491/1/6 499/1/6
f 499/1/6 491/1/6 500/1/6
f 492/1/6 493/1/6 501/1/6
f 501/1/6 493/1/6 502/1/6
f 495/1/6 496/1/6 507/1/6
f 503/1/6 504/1/6 510/1/6
f 507/1/6 508/1/6 511/1/6
f 495/1/6 507/1/6 511/1/6
f 511/1/6 508/1/6 512/1/6
f 509/1/6 510/1/6 513/1/6
f 510/1/6 504/1/6 514/1/6
f 513/1/6 510/1/6 514/1/6
f 495/1/6 511/1/6 515/1/6
f 514/1/6 504/1/6 518/1/6
f 515/1/6 516/1/6 519/1/6
f 495/1/6 515/1/6 519/1/6
f 519/1/6 516/1/6 520/1/6
f 517/1/6 518/1/6 521/1/6
f 518/1/6 504/1/6 522/1/6
f 521/1/6 518/1/6 522/1/6
f 495/1/6 519/1/6 523/1/6
f 522/1/6 504/1/6 526/1/6
f 523/1/6 524/1/6 527/1/6
f 495/1/6 523/1/6 527/1/6
f 527/1/6 524/1/6 528/1/6
f 525/1/6 526/1/6 529/1/6
f 526/1/6 504/1/6 530/1/6
f 529/1/6 526/1/6 530/1/6
f 505/1/6 506/1/6 531/1/6
f 531/1/6 506/1/6 532/1/6
f 495/1/6 527/1/6 533/1/6
f 533/1/6 527/1/6 534/1/6
f 530/1/6 504/1/6 541/1/6
f 541/1/6 504/1/6 542/1/6
f 535/1/6 536/1/6 544/1/6
f 544/1/6 536/1/6 545/1/6
f 537/1/6 538/1/6 546/1/6
f 546/1/6 538/1/6 547/1/6
f 539/1/6 540/1/6 548/1/6
f 548/1/6 540/1/6 549/1/6
f 546/1/6 547/1/6 551/1/6
f 549/1/6 550/1/6 551/1/6
f 548/1/6 549/1/6 551/1/6
f 547/1/6 548/1/6 551/1/6
f 544/1/6 545/1/6 551/1/6
f 545/1/6 546/1/6 551/1/6
f 543/1/6 544/1/6 551/1/6
f 551/1/6 550/1/6 552/1/6
f 553/1/6 554/1/6 555/1/6
f 555/1/6 554/1/6 556/1/6
f 553/1/6 555/1/6 557/1/6
f 556/1/6 554/1/6 558/1/6
f 553/1/6 557/1/6 559/1/6
f 557/1/6 558/1/6 559/1/6
f 558/1/6 554/1/6 560/1/6
f 559/1/6 558/1/6 560/1/6
f 561/3/6 562/3/6 565/3/6
f 562/1/6 563/1/6 566/1/6
f 565/3/6 562/3/6 566/3/6
f 563/3/6 564/3/6 567/3/6
f 566/1/6 563/1/6 567/1/6
f 567/3/6 564/3/6 568/3/6
f 561/3/6 565/3/6 569/3/6
f 565/1/6 566/1/6 570/1/6
f 569/3/6 565/3/6 570/3/6
f 566/1/6 567/1/6 570/1/6
f 567/1/6 568/1/6 570/1/6
f 570/1/6 568/1/6 571/1/6
f 571/1/6 568/1/6 572/1/6
f 568/3/6 564/3/6 573/3/6
f 572/1/6 568/1/6 573/1/6
f 573/3/6 564/3/6 574/3/6
f 575/2/6 576/2/6 577/2/6
f 577/2/6 576/2/6 578/2/6
f 569/1/6 570/1/6 579/1/6
f 570/1/6 571/1/6 579/1/6
f 579/1/6 571/1/6 580/1/6
f 580/1/6 571/1/6 581/1/6
f 572/1/6 573/1/6 582/1/6
f 573/1/6 574/1/6 582/1/6
f 582/1/6 574/1/6 583/1/6
f 583/1/6 574/1/6 584/1/6
f 580/1/6 581/1/6 585/1/6
f 579/3/6 580/3/6 585/3/6
f 581/1/6 582/1/6 585/1/6
f 582/1/6 583/1/6 585/1/6
f 585/1/6 583/1/6 586/1/6
f 586/1/6 583/1/6 587/1/6
f 583/3/6 584/3/6 588/3/6
f 587/1/6 583/1/6 588/1/6
f 579/3/6 585/3/6 589/3/6
f 585/3/6 586/3/6 589/3/6
f 586/1/6 587/1/6 590/1/6
f 589/3/6 586/3/6 590/3/6
f 587/3/6 588/3/6 591/3/6
f 590/1/6 587/1/6 591/1/6
f 588/3/6 584/3/6 592/3/6
f 591/3/6 588/3/6 592/3/6
